<svg width="129" height="48" viewBox="0 0 129 48" fill="none" xmlns="http://www.w3.org/2000/svg">
<g clip-path="url(#clip0_1429_2393)">
<path fill-rule="evenodd" clip-rule="evenodd" d="M68.9828 29.6322C67.5809 31.0538 65.9036 31.7682 63.9615 31.7682C62.3896 31.7682 61.0538 31.4481 59.6916 30.6566V27.3964C60.7884 28.1395 62.1661 28.8472 63.5261 28.8472C66.3615 28.8472 68.0475 26.8975 68.0475 24.1355C68.0475 21.3703 66.3022 19.3626 63.4648 19.3626C62.198 19.3626 61.1712 19.8177 60.3691 20.7298C59.5094 21.7179 59.065 23.1301 59.065 24.9974V37.8645H58.8513C57.2885 37.8645 56.0227 36.599 56.0227 35.0381V24.514C56.0227 20.0469 58.7549 16.4423 63.4499 16.4423C65.7686 16.4423 67.652 17.2346 69.0807 18.8261C70.4233 20.3133 71.0886 22.199 71.0886 24.4647C71.0886 26.4827 70.3865 28.2077 68.9836 29.6303L68.9828 29.6322ZM101.91 29.5232C100.514 31.021 98.7163 31.7683 96.5372 31.7683C94.2371 31.7683 92.364 30.976 90.9354 29.3845C89.5934 27.8789 88.9278 25.9923 88.9278 23.7459C88.9278 19.7679 92.0006 16.4433 96.0454 16.4433C97.605 16.4433 98.9592 16.7722 100.328 17.5221V20.8145C99.2314 20.0714 97.854 19.3637 96.4937 19.3637C93.6582 19.3637 91.969 21.3131 91.969 24.0786C91.969 26.8049 93.7553 28.8515 96.5517 28.8515C97.8175 28.8515 98.8598 28.3774 99.6935 27.4229C100.522 26.4741 100.953 25.0802 100.953 23.2068V12.9659C100.953 11.4043 102.219 10.1395 103.781 10.1395H103.995V23.6889C103.995 26.075 103.304 28.0273 101.909 29.5271L101.91 29.5232ZM110.501 14.9986C110.182 15.3558 109.725 15.5203 109.166 15.5203C108.122 15.5203 107.374 14.7508 107.374 13.7151C107.374 12.6553 108.108 11.9398 109.166 11.9398C110.184 11.9398 110.958 12.6942 110.958 13.7151C110.958 14.2201 110.81 14.6529 110.501 14.9986ZM125.959 23.2055C125.959 22.007 125.505 21.0585 124.594 20.3395C123.773 19.6926 122.747 19.3637 121.499 19.3637C118.745 19.3637 116.978 21.5145 116.978 24.1655C116.978 26.718 118.852 28.8483 121.47 28.8483C123.291 28.8483 124.265 27.7853 125.305 26.4609V30.2779C124.775 30.6741 124.167 31.106 123.545 31.3596C122.89 31.6331 122.107 31.7661 121.202 31.7661C116.823 31.7661 113.936 28.1422 113.936 23.9551C113.936 21.8045 114.605 20.0254 115.951 18.6415C117.379 17.1723 119.253 16.4436 121.546 16.4436C125.893 16.4436 129.006 18.9382 129.006 23.4469V31.4703H128.793C127.229 31.4703 125.962 30.2048 125.962 28.6436L125.959 23.2055ZM84.3241 22.3446C83.9397 21.1563 83.4579 20.5719 82.3491 19.9533C79.7127 18.4812 77.1182 19.7345 75.912 22.333L84.3241 22.3446ZM82.0028 31.723C80.0594 32.1356 78.1521 31.8175 76.2913 30.7784C74.4763 29.7659 73.2611 28.26 72.6535 26.2694C71.4219 22.2464 73.9448 17.76 78.0038 16.6754C80.0152 16.1373 81.9447 16.3808 83.7765 17.4037C86.8196 19.1036 87.9303 21.7324 87.7336 25.1214L75.4754 25.0969C75.6561 26.4786 76.5132 27.5596 77.7184 28.232C78.94 28.9139 80.0632 29.0771 81.1046 28.754C82.2621 28.3909 83.2005 27.4473 83.9639 26.569L86.462 28.3874C85.4432 30.209 84.0561 31.2872 82.0018 31.7249L82.0028 31.723ZM107.658 16.7446H110.7V31.4687H110.486C108.925 31.4687 107.658 30.2032 107.658 28.642L107.658 16.7446ZM4.45763 31.4687C1.48192 31.4687 0.00390625 29.4463 0.00390625 26.6218V15.9078C0.00390625 14.3465 1.27069 13.0814 2.8332 13.0814H3.04682V16.7471H8.18747V19.6669H3.04682V26.963C3.04682 28.2033 3.60088 28.5519 4.78703 28.5519H8.18618V31.4713L4.45763 31.4687ZM22.1274 29.6078C20.6246 31.0477 18.8186 31.769 16.7191 31.769C14.6399 31.769 12.8426 31.0468 11.3398 29.6078C9.83177 28.1628 9.08002 26.3251 9.08002 24.1076C9.08002 19.7821 12.3856 16.4446 16.7168 16.4446C18.7966 16.4446 20.5965 17.1723 22.109 18.6219C23.6267 20.0759 24.3846 21.9111 24.3846 24.106C24.3846 26.3225 23.6319 28.1612 22.1239 29.6062L22.1274 29.6078ZM36.3529 20.2874C35.9065 21.0353 35.5605 21.5715 35.317 21.8956C35.0486 22.248 34.7836 22.5293 34.5211 22.724C36.6354 23.4063 37.4229 24.87 37.4229 27.0495V31.4684H37.2093C35.6471 31.4684 34.38 30.2029 34.38 28.6417V27.3508C34.38 25.9389 33.7463 24.9811 32.2493 24.9811H29.4864V31.4694H29.2728C27.7106 31.4694 26.4448 30.2039 26.4448 28.6426V12.9659C26.4448 11.4043 27.7103 10.1395 29.2728 10.1395H29.4864V22.0346H30.3855C31.3737 22.0346 32.0229 21.697 32.3957 21.0582L34.9512 16.7488L38.418 16.7453L36.3529 20.2874ZM52.0586 29.6078C50.5551 31.0477 48.7498 31.769 46.6503 31.769C44.5715 31.769 42.7739 31.0468 41.271 29.6078C39.763 28.1628 39.0112 26.3251 39.0112 24.1076C39.0112 19.7821 42.3169 16.4446 46.6481 16.4446C48.7285 16.4446 50.5277 17.1723 52.0403 18.6219C53.5579 20.0759 54.3155 21.9111 54.3155 24.106C54.3155 26.3225 53.5631 28.1612 52.0551 29.6062L52.0586 29.6078ZM49.8627 20.68C49.0239 19.8036 47.9593 19.3637 46.65 19.3637C43.8504 19.3637 42.1737 21.4032 42.1737 24.1076C42.1737 26.7734 43.8894 28.8515 46.65 28.8515C49.4109 28.8515 51.1263 26.7747 51.1263 24.1076C51.1263 22.6922 50.7003 21.5564 49.8627 20.68ZM19.9347 20.68C19.0962 19.8036 18.0313 19.3637 16.7223 19.3637C13.9227 19.3637 12.246 21.4032 12.246 24.1076C12.246 26.7734 13.9617 28.8515 16.7223 28.8515C19.4829 28.8515 21.1986 26.7747 21.1986 24.1076C21.1986 22.6922 20.7732 21.5564 19.9354 20.68H19.9347Z" fill="#909498"/>
</g>
<defs>
<clipPath id="clip0_1429_2393">
<rect width="129" height="28" fill="white" transform="translate(0 10)"/>
</clipPath>
</defs>
</svg>
