<svg width="76" height="48" viewBox="0 0 76 48" fill="none" xmlns="http://www.w3.org/2000/svg">
<path d="M71.0196 15.8692C73.1022 17.663 74.4161 20.1526 74.6068 22.8905C74.7473 26.1483 73.698 28.7743 71.5383 31.205C71.3849 31.3488 71.3849 31.3488 71.1965 31.3488C71.1965 31.4102 71.1965 31.4716 71.1965 31.5349C71.0235 31.6876 70.8513 31.827 70.6668 31.9651C70.6118 32.0064 70.5568 32.0477 70.5002 32.0902C68.2201 33.7652 65.5603 34.3463 62.7501 33.9993C60.7456 33.6928 59.0573 32.8307 57.541 31.5349C57.4637 31.4692 57.3864 31.4035 57.3067 31.3358C55.4272 29.6079 54.3284 26.8889 54.2151 24.3856C54.1339 21.4312 55.0171 18.721 57.0624 16.54C57.5822 16.0024 58.1263 15.5406 58.7484 15.1185C58.9605 14.9808 58.9605 14.9808 59.142 14.7907C63.0085 12.7998 67.649 13.0581 71.0196 15.8692ZM58.577 17.6744C58.5052 17.743 58.4335 17.8116 58.3595 17.8823C56.8078 19.4655 56.1617 21.638 56.099 23.7965C56.1489 26.3701 57.1822 28.5646 59.0445 30.3561C60.6086 31.7579 62.7246 32.3592 64.8078 32.2704C66.7228 32.1309 68.3446 31.4713 69.7839 30.2326C69.8763 30.1598 69.9687 30.087 70.0639 30.012C71.5191 28.8133 72.343 26.8325 72.6092 25.0233C72.7579 22.3602 72.3291 20.0233 70.5379 17.9686C69.2711 16.576 67.3386 15.4983 65.4183 15.3576C65.295 15.3533 65.295 15.3533 65.1693 15.3488C64.9834 15.3417 64.9834 15.3417 64.7937 15.3343C62.3771 15.2714 60.3251 15.9785 58.577 17.6744Z" fill="#909498"/>
<path d="M21.6602 13.7675C30.8151 13.7675 30.8151 13.7675 33.0499 15.895C34.5685 17.5091 34.8172 19.4844 34.7634 21.5951C34.6675 23.5792 33.5948 25.2283 32.1597 26.5422C31.644 26.972 30.839 27.6279 30.136 27.6279C30.8301 28.7456 31.6101 29.8042 32.3889 30.8651C32.8434 31.4844 33.2955 32.105 33.7382 32.7326C33.7821 32.794 33.826 32.8554 33.8712 32.9186C34.0681 33.1999 34.2096 33.4331 34.2797 33.7675C32.4195 34.0303 32.4195 34.0303 31.8105 33.6301C31.4359 33.2498 31.1809 32.7944 30.9275 32.3297C30.7173 31.9536 30.4695 31.6044 30.2243 31.25C30.1318 31.1119 30.0394 30.9737 29.9473 30.8354C29.6127 30.3375 29.2635 29.85 28.9124 29.3634C28.8465 29.272 28.8465 29.272 28.7793 29.1788C28.7411 29.1261 28.7029 29.0734 28.6636 29.0192C28.535 28.8372 28.535 28.8372 28.3968 28.5415C28.1262 28.2437 28.0765 28.237 27.6919 28.2072C27.4987 28.2034 27.3053 28.2026 27.1121 28.2042C27.0102 28.203 26.9083 28.2017 26.8033 28.2004C26.478 28.1969 26.1528 28.1972 25.8274 28.1977C25.6068 28.196 25.3862 28.1941 25.1656 28.1919C24.625 28.187 24.0844 28.1854 23.5437 28.1861C23.5439 28.2546 23.5441 28.3232 23.5443 28.3938C23.5462 29.0385 23.5476 29.6833 23.5486 30.328C23.549 30.6595 23.5497 30.991 23.5508 31.3225C23.552 31.7033 23.5525 32.084 23.5529 32.4648C23.5534 32.5843 23.5538 32.7039 23.5543 32.8271C23.5544 32.9919 23.5544 32.9919 23.5544 33.1601C23.5546 33.2574 23.5548 33.3546 23.555 33.4549C23.5437 33.6744 23.5437 33.6744 23.4495 33.7675C22.859 33.7675 22.2685 33.7675 21.6602 33.7675C21.6602 27.1675 21.6602 20.5675 21.6602 13.7675ZM23.5437 15.5349C23.5415 16.9386 23.5398 18.3423 23.5388 19.7461C23.5383 20.3978 23.5376 21.0495 23.5366 21.7013C23.5355 22.3298 23.535 22.9582 23.5347 23.5867C23.5346 23.827 23.5342 24.0673 23.5337 24.3075C23.533 24.643 23.5329 24.9785 23.533 25.3139C23.5326 25.4142 23.5323 25.5144 23.532 25.6177C23.5321 25.7087 23.5322 25.7998 23.5324 25.8936C23.5323 25.973 23.5322 26.0524 23.5321 26.1342C23.5313 26.3316 23.5313 26.3316 23.6379 26.5116C24.1299 26.5187 24.6219 26.5237 25.1139 26.527C25.2805 26.5284 25.4471 26.5302 25.6136 26.5327C27.7813 26.5638 29.7641 26.3351 31.4504 24.8623C32.5815 23.7199 32.9488 22.1324 32.966 20.59C32.9439 19.5652 32.6527 18.6442 32.1137 17.7675C32.053 17.6662 32.053 17.6662 31.9912 17.5629C31.3278 16.579 30.2412 15.9903 29.1001 15.7209C28.8443 15.6798 28.5934 15.6442 28.3363 15.6167C28.2638 15.6088 28.1912 15.601 28.1165 15.5929C27.2016 15.5035 26.2866 15.5147 25.3683 15.5233C25.19 15.5242 25.0117 15.5251 24.8334 15.5258C24.4035 15.5278 23.9736 15.531 23.5437 15.5349Z" fill="#909498"/>
<path d="M1.60059 13.7674C3.17067 13.7653 4.74076 13.7636 6.31085 13.7626C7.03982 13.7621 7.76879 13.7615 8.49776 13.7604C9.1329 13.7595 9.76804 13.7589 10.4032 13.7587C10.7397 13.7586 11.0762 13.7583 11.4127 13.7576C11.7878 13.7569 12.1628 13.7568 12.5378 13.7569C12.6502 13.7565 12.7626 13.7562 12.8784 13.7559C13.0307 13.7561 13.0307 13.7561 13.1861 13.7562C13.275 13.7562 13.3638 13.7561 13.4553 13.756C13.6551 13.7674 13.6551 13.7674 13.7493 13.8605C13.7493 14.413 13.7493 14.9656 13.7493 15.5349C12.0711 15.5656 10.3929 15.5963 8.66378 15.6279C8.66428 16.1642 8.66477 16.7005 8.66528 17.253C8.66684 19.0215 8.66788 20.7899 8.66866 22.5584C8.66915 23.631 8.66981 24.7036 8.67089 25.7762C8.67182 26.7109 8.67243 27.6456 8.67264 28.5803C8.67277 29.0754 8.67306 29.5705 8.67374 30.0655C8.67438 30.5313 8.67458 30.997 8.67443 31.4628C8.67446 31.6339 8.67465 31.8051 8.67501 31.9762C8.67548 32.2095 8.67537 32.4428 8.67511 32.6761C8.67538 32.7441 8.67566 32.8122 8.67594 32.8823C8.67499 33.2008 8.64862 33.4552 8.56961 33.7674C7.97912 33.7674 7.38864 33.7674 6.78026 33.7674C6.66697 33.4317 6.67337 33.1261 6.67476 32.7768C6.67468 32.7036 6.6746 32.6304 6.67452 32.555C6.67436 32.3091 6.67488 32.0631 6.6754 31.8171C6.67542 31.6411 6.67541 31.4651 6.67535 31.2891C6.67533 30.8106 6.67588 30.3321 6.67654 29.8535C6.67713 29.3537 6.67718 28.8539 6.67729 28.354C6.67759 27.4072 6.67836 26.4604 6.67931 25.5135C6.68036 24.4357 6.68088 23.3579 6.68135 22.2801C6.68233 20.0627 6.68406 17.8453 6.68609 15.6279C5.00787 15.5972 3.32966 15.5665 1.60059 15.5349C1.60059 14.9516 1.60059 14.3684 1.60059 13.7674Z" fill="#909498"/>
<path d="M43.1325 13.7675C43.7541 13.7675 44.3756 13.7675 45.016 13.7675C45.016 20.3675 45.016 26.9675 45.016 33.7675C44.3945 33.7675 43.7729 33.7675 43.1325 33.7675C43.0457 29.7473 43.0277 25.7273 43.0268 21.7063C43.0266 21.2349 43.0263 20.7634 43.0258 20.292C43.0253 19.645 43.0253 18.998 43.0257 18.3511C43.0258 18.1102 43.0257 17.8694 43.0255 17.6285C43.0246 16.3373 43.0445 15.056 43.1325 13.7675Z" fill="#909498"/>
<path d="M1.60059 13.7674C3.17067 13.7653 4.74076 13.7636 6.31085 13.7626C7.03982 13.7621 7.76879 13.7615 8.49776 13.7604C9.1329 13.7595 9.76804 13.7589 10.4032 13.7587C10.7397 13.7586 11.0762 13.7583 11.4127 13.7576C11.7878 13.7569 12.1628 13.7568 12.5378 13.7569C12.6502 13.7565 12.7626 13.7562 12.8784 13.7559C13.0307 13.7561 13.0307 13.7561 13.1861 13.7562C13.275 13.7562 13.3638 13.7561 13.4553 13.756C13.6551 13.7674 13.6551 13.7674 13.7493 13.8605C13.7493 14.413 13.7493 14.9656 13.7493 15.5349C12.0711 15.5656 10.3929 15.5963 8.66378 15.6279C8.66428 16.1642 8.66477 16.7005 8.66528 17.253C8.66684 19.0215 8.66788 20.7899 8.66866 22.5584C8.66915 23.631 8.66981 24.7036 8.67089 25.7762C8.67182 26.7109 8.67243 27.6456 8.67264 28.5803C8.67277 29.0754 8.67306 29.5705 8.67374 30.0655C8.67438 30.5313 8.67458 30.997 8.67443 31.4628C8.67446 31.6339 8.67465 31.8051 8.67501 31.9762C8.67548 32.2095 8.67537 32.4428 8.67511 32.6761C8.67538 32.7441 8.67566 32.8122 8.67594 32.8823C8.67499 33.2008 8.64862 33.4552 8.56961 33.7674C7.97912 33.7674 7.38864 33.7674 6.78026 33.7674C6.69397 33.5117 6.67426 33.3623 6.67413 33.0991C6.67386 33.0197 6.6736 32.9402 6.67332 32.8583C6.67351 32.7713 6.67371 32.6842 6.6739 32.5944C6.67374 32.5023 6.67358 32.4101 6.67341 32.3151C6.673 32.0074 6.67328 31.6998 6.67358 31.3921C6.67348 31.1754 6.67336 30.9587 6.6732 30.742C6.67295 30.1626 6.67337 29.5832 6.67398 29.0038C6.67431 28.6468 6.67447 28.2899 6.67457 27.933C6.67576 24.5436 6.69188 21.1558 6.78026 17.7674C6.81134 17.7674 6.84242 17.7674 6.87444 17.7674C6.87444 22.9246 6.87444 28.0819 6.87444 33.3953C6.9366 33.3953 6.99875 33.3953 7.06279 33.3953C7.06279 33.4567 7.06279 33.5181 7.06279 33.5814C7.52896 33.5814 7.99513 33.5814 8.47543 33.5814C8.47543 27.5953 8.47543 21.6093 8.47543 15.4419C10.1536 15.4419 11.8319 15.4419 13.5609 15.4419C13.5609 14.9814 13.5609 14.5209 13.5609 14.0465C9.67617 14.0465 5.79142 14.0465 1.78894 14.0465C1.82002 14.4763 1.85109 14.906 1.88311 15.3488C3.4681 15.3795 5.05308 15.4102 6.68609 15.4419C6.68609 15.4725 6.68609 15.5032 6.68609 15.5349C5.00787 15.5349 3.32966 15.5349 1.60059 15.5349C1.60059 14.9516 1.60059 14.3684 1.60059 13.7674Z" fill="#909498"/>
<path d="M64.0782 13.4771C66.9925 13.4265 69.4964 14.3898 71.5884 16.3845C73.6075 18.3694 74.6146 20.9927 74.6285 23.7907C74.5985 26.6966 73.4512 29.0525 71.5387 31.2049C71.3853 31.3488 71.3853 31.3488 71.1969 31.3488C71.1969 31.4102 71.1969 31.4716 71.1969 31.5349C71.0239 31.6876 70.8517 31.827 70.6672 31.9651C70.6122 32.0064 70.5572 32.0477 70.5006 32.0902C68.3812 33.6471 65.83 34.3446 63.192 34.0465C62.9718 33.9515 62.9718 33.9515 62.8153 33.8605C62.924 33.8584 62.924 33.8584 63.0349 33.8564C64.8081 33.8193 66.3681 33.6717 68.0549 33.1243C68.2859 33.0506 68.5121 32.9834 68.7484 32.9302C68.7484 32.8688 68.7484 32.8074 68.7484 32.7442C68.9038 32.7442 69.0592 32.7442 69.2193 32.7442C69.2193 32.6828 69.2193 32.6214 69.2193 32.5581C69.4194 32.4172 69.4194 32.4172 69.6901 32.2558C70.4714 31.785 70.4714 31.785 71.1587 31.1933C71.2911 31.0698 71.2911 31.0698 71.4795 31.0698C71.5008 30.9873 71.5222 30.9048 71.5442 30.8198C71.6864 30.4653 71.8545 30.3005 72.1387 30.0465C72.4252 29.7893 72.6027 29.5334 72.7915 29.2C72.8841 29.0374 72.9805 28.8768 73.0772 28.7166C74.3937 26.4402 74.6502 23.5556 74.0222 21.0233C73.7425 20.078 73.3308 19.168 72.8156 18.3256C72.7038 18.1395 72.7038 18.1395 72.7038 17.9535C72.6416 17.9535 72.5794 17.9535 72.5154 17.9535C72.1387 17.4501 72.1387 17.4501 72.1387 17.2093C72.0765 17.2093 72.0144 17.2093 71.9504 17.2093C71.9193 17.1172 71.8882 17.0251 71.8562 16.9302C71.7035 16.7738 71.7035 16.7738 71.5148 16.6221C71.4463 16.5649 71.3779 16.5077 71.3073 16.4488C71.2398 16.3928 71.1723 16.3368 71.1028 16.2791C71.0219 16.208 71.0219 16.208 70.9394 16.1355C70.3074 15.5811 69.6398 15.0817 68.8425 14.7907C68.8425 14.7293 68.8425 14.6679 68.8425 14.6047C68.7784 14.5951 68.7143 14.5855 68.6483 14.5756C68.3717 14.5116 68.3717 14.5116 68.0833 14.3837C66.9505 13.8854 65.7435 13.8448 64.5259 13.8483C64.3226 13.8488 64.1193 13.8483 63.916 13.8478C62.862 13.8009 62.862 13.8009 61.8618 14.0523C61.6129 14.1752 61.3938 14.1518 61.1201 14.1395C61.1512 14.0781 61.1823 14.0168 61.2143 13.9535C61.464 13.8798 61.7079 13.8174 61.9618 13.7616C62.0352 13.7452 62.1086 13.7288 62.1841 13.7119C62.8197 13.5737 63.428 13.4999 64.0782 13.4771Z" fill="#909498"/>
<path d="M43.1321 13.7675C43.7537 13.7675 44.3752 13.7675 45.0156 13.7675C45.0156 20.3675 45.0156 26.9675 45.0156 33.7675C44.3941 33.7675 43.7725 33.7675 43.1321 33.7675C43.1321 32.3554 43.1321 30.9433 43.1321 29.4884C43.1632 29.4884 43.1943 29.4884 43.2263 29.4884C43.2263 30.8391 43.2263 32.1898 43.2263 33.5814C43.7235 33.5814 44.2208 33.5814 44.7331 33.5814C44.7331 27.1042 44.7331 20.627 44.7331 13.9535C44.2358 13.9535 43.7386 13.9535 43.2263 13.9535C43.2263 15.12 43.2263 16.2865 43.2263 17.4884C43.1952 17.4884 43.1641 17.4884 43.1321 17.4884C43.0534 16.2357 43.0386 15.0197 43.1321 13.7675Z" fill="#909498"/>
<path d="M23.3555 15.5349C23.3865 15.5349 23.4176 15.5349 23.4496 15.5349C23.4496 19.1572 23.4496 22.7796 23.4496 26.5117C27.796 26.6303 29.6653 26.6047 31.4781 24.7181C32.5892 23.4376 32.9737 21.8215 32.8522 20.168C32.7226 19.0386 32.3192 18.0599 31.5488 17.2093C31.5488 17.1479 31.5488 17.0865 31.5488 17.0233C31.4951 16.9989 31.4415 16.9746 31.3862 16.9495C31.1562 16.8289 30.9663 16.6859 30.7601 16.5291C30.1865 16.1237 29.5802 15.9274 28.9118 15.721C29.0895 15.6236 29.0895 15.6236 29.2886 15.5349C29.4592 15.6047 29.4592 15.6047 29.6653 15.721C29.7585 15.7401 29.8517 15.7593 29.9478 15.7791C30.9009 16.0423 31.6901 16.772 32.208 17.5814C32.208 17.6428 32.208 17.7042 32.208 17.7675C32.2682 17.7905 32.3284 17.8135 32.3905 17.8372C32.5847 17.9535 32.5847 17.9535 32.6355 18.1254C32.6498 18.1915 32.6641 18.2575 32.6789 18.3256C32.7236 18.4388 32.7682 18.552 32.8143 18.6686C33.0759 19.3513 33.1866 20.0214 33.1851 20.75C33.1849 20.826 33.1848 20.902 33.1846 20.9804C33.1632 22.0499 32.8804 23.0439 32.3964 24C32.3342 24 32.272 24 32.208 24C32.1818 24.0921 32.1818 24.0921 32.155 24.1861C31.9624 24.5832 31.6833 24.9062 31.3604 25.2093C31.2983 25.2093 31.2361 25.2093 31.1721 25.2093C31.1721 25.2707 31.1721 25.3321 31.1721 25.3954C31.1099 25.3954 31.0478 25.3954 30.9837 25.3954C30.9837 25.4568 30.9837 25.5182 30.9837 25.5814C30.7691 25.7004 30.5534 25.8159 30.3363 25.9303C30.2786 25.9626 30.2209 25.995 30.1615 26.0284C28.8093 26.7286 27.2972 26.7518 25.8082 26.7309C25.5104 26.7267 25.2128 26.7252 24.9151 26.724C24.7257 26.7228 24.5363 26.7214 24.3469 26.7199C24.2135 26.7188 24.2135 26.7188 24.0773 26.7178C23.9961 26.7166 23.9148 26.7154 23.8311 26.7142C23.7595 26.7133 23.6878 26.7123 23.614 26.7114C23.4496 26.6977 23.4496 26.6977 23.3555 26.6047C23.3464 26.4611 23.344 26.3171 23.3441 26.1732C23.344 26.08 23.3439 25.9867 23.3438 25.8906C23.3441 25.7874 23.3444 25.6843 23.3448 25.5779C23.3448 25.47 23.3447 25.362 23.3447 25.2507C23.3448 24.8918 23.3455 24.533 23.3463 24.1741C23.3464 23.926 23.3466 23.678 23.3467 23.4299C23.347 22.8425 23.3477 22.2551 23.3487 21.6677C23.3497 20.9991 23.3503 20.3305 23.3507 19.6619C23.3517 18.2863 23.3534 16.9106 23.3555 15.5349Z" fill="#909498"/>
<path d="M62.062 15.6279C61.9577 15.6685 61.9577 15.6685 61.8512 15.71C59.4278 16.6772 57.8292 18.1967 56.7882 20.5581C55.9346 22.7169 56.0298 25.1636 56.9202 27.2911C57.7773 29.2098 59.2437 30.8197 61.2422 31.5962C62.068 31.9014 62.8456 32.1148 63.7277 32.1512C63.8008 32.1547 63.8739 32.1582 63.9492 32.1618C64.576 32.19 65.2016 32.1959 65.829 32.186C65.829 32.2167 65.829 32.2474 65.829 32.2791C63.9769 32.6922 61.8647 32.3869 60.2329 31.4411C58.9573 30.6001 57.7947 29.5532 57.0806 28.1958C56.9769 27.9935 56.9769 27.9935 56.8371 27.7871C56.6633 27.4808 56.5595 27.166 56.4585 26.8314C56.4384 26.765 56.4183 26.6987 56.3976 26.6303C56.3574 26.4968 56.3176 26.3631 56.2781 26.2294C56.2317 26.0752 56.1813 25.9222 56.13 25.7696C55.8499 24.8595 55.8986 23.9172 55.9406 22.9767C55.9436 22.9085 55.9466 22.8403 55.9497 22.77C56.0303 21.3375 56.6457 19.3346 57.7299 18.3256C57.7571 18.2661 57.7843 18.2066 57.8123 18.1453C57.9556 17.8859 58.1526 17.7607 58.3891 17.5814C58.4571 17.5123 58.5251 17.4432 58.5952 17.3721C59.6306 16.3721 59.6306 16.3721 60.0843 16.3721C60.0843 16.3107 60.0843 16.2493 60.0843 16.186C60.1465 16.186 60.2086 16.186 60.2727 16.186C60.2727 16.1246 60.2727 16.0632 60.2727 16C61.4852 15.451 61.4852 15.451 62.062 15.6279Z" fill="#909498"/>
<path d="M54.4333 21.7675C54.4643 21.7675 54.4954 21.7675 54.5274 21.7675C54.5293 21.8659 54.5312 21.9643 54.5331 22.0657C54.5403 22.436 54.5487 22.8063 54.5573 23.1767C54.5609 23.336 54.5642 23.4953 54.5672 23.6546C54.5888 24.796 54.6268 25.8981 55.0281 26.9826C55.0925 27.1628 55.0925 27.1628 55.133 27.343C55.223 27.6648 55.3983 27.9456 55.5579 28.2384C55.6575 28.4651 55.6575 28.4651 55.6575 28.8372C55.7197 28.8372 55.7819 28.8372 55.8459 28.8372C55.8679 28.8903 55.8898 28.9435 55.9125 28.9982C56.1573 29.5357 56.4621 29.9727 56.8465 30.4186C56.8917 30.471 56.9368 30.5235 56.9833 30.5775C57.1892 30.8107 57.373 30.9901 57.6352 31.1628C57.6352 31.2242 57.6352 31.2856 57.6352 31.3489C57.6918 31.3745 57.7484 31.4002 57.8067 31.4266C58.0119 31.5349 58.0119 31.5349 58.2827 31.7791C58.7916 32.2211 59.3954 32.5231 59.9896 32.8372C60.094 32.8935 60.094 32.8935 60.2004 32.951C60.5487 33.1212 60.9077 33.2337 61.2835 33.3281C61.3646 33.3489 61.4457 33.3697 61.5293 33.3911C61.6943 33.4324 61.8596 33.4726 62.0252 33.5117C62.1393 33.5394 62.1393 33.5394 62.2557 33.5676C62.3594 33.5918 62.3594 33.5918 62.4651 33.6165C62.6266 33.6744 62.6266 33.6744 62.7207 33.8605C62.1478 33.886 61.7008 33.8138 61.161 33.6279C61.0874 33.6029 61.0139 33.5778 60.9381 33.552C59.6469 33.0956 58.575 32.4185 57.5411 31.5349C57.4637 31.4692 57.3864 31.4035 57.3067 31.3358C55.5213 29.6943 54.351 27.0464 54.231 24.6524C54.2216 24.3437 54.2171 24.0355 54.2155 23.7268C54.2149 23.6287 54.2144 23.5306 54.2139 23.4295C54.2194 22.8481 54.2842 22.3301 54.4333 21.7675Z" fill="#909498"/>
<path d="M29.9481 27.5349C30.0103 27.5349 30.0724 27.5349 30.1364 27.5349C30.187 27.6415 30.2375 27.7481 30.2895 27.8579C30.5103 28.2935 30.7845 28.6741 31.0782 29.064C31.188 29.2119 31.2978 29.36 31.4075 29.508C31.4627 29.5823 31.5179 29.6567 31.5748 29.7332C31.8231 30.0695 32.066 30.4095 32.3084 30.75C32.354 30.814 32.3995 30.8779 32.4465 30.9438C32.5391 31.0736 32.6316 31.2035 32.7241 31.3334C32.9776 31.6895 33.2316 32.0454 33.4856 32.4012C33.5328 32.4674 33.5799 32.5336 33.6285 32.6018C33.6728 32.6638 33.717 32.7258 33.7626 32.7896C33.8035 32.8471 33.8444 32.9047 33.8866 32.9639C33.9775 33.0887 34.0736 33.2097 34.1709 33.3296C34.2802 33.4884 34.2802 33.4884 34.2802 33.7675C32.4199 34.0303 32.4199 34.0303 31.811 33.6301C31.4363 33.2498 31.1813 32.7944 30.928 32.3297C30.7178 31.9537 30.4699 31.6044 30.2247 31.25C30.1324 31.1121 30.0401 30.974 29.9481 30.8358C29.6113 30.3346 29.2592 29.8443 28.9046 29.3552C28.4021 28.6601 28.4021 28.6601 28.2529 28.3721C28.284 28.3107 28.3151 28.2493 28.3471 28.1861C28.3782 28.2782 28.4093 28.3703 28.4413 28.4651C28.5345 28.4958 28.6277 28.5265 28.7238 28.5582C28.8727 28.7651 29.0088 28.9695 29.1417 29.1861C29.3447 29.512 29.5427 29.8254 29.7866 30.1236C29.9481 30.3256 29.9481 30.3256 29.9481 30.5117C30.0103 30.5117 30.0724 30.5117 30.1364 30.5117C30.419 30.9195 30.419 30.9195 30.419 31.1628C30.4811 31.1628 30.5433 31.1628 30.6073 31.1628C30.6559 31.2511 30.7044 31.3393 30.7545 31.4303C31.0468 31.9356 31.369 32.4807 31.793 32.8881C31.9258 33.0233 31.9258 33.0233 32.1141 33.3954C32.6735 33.4261 33.233 33.4568 33.8093 33.4884C33.6405 33.0715 33.445 32.7568 33.1795 32.4012C33.095 32.286 33.0105 32.1708 32.926 32.0556C32.8844 31.9992 32.8427 31.9427 32.7998 31.8845C32.6288 31.6526 32.4592 31.4198 32.2907 31.1861C32.238 31.1136 32.1853 31.0412 32.1311 30.9666C32.02 30.7907 32.02 30.7907 32.02 30.6047C31.9267 30.574 31.8335 30.5433 31.7374 30.5117C31.63 30.3692 31.63 30.3692 31.5255 30.1861C31.3459 29.8864 31.1515 29.6149 30.9311 29.3431C30.6568 29.0022 30.4424 28.6602 30.2306 28.2791C30.1762 28.2119 30.1219 28.1448 30.0658 28.0756C29.9481 27.907 29.9481 27.907 29.9481 27.5349Z" fill="#909498"/>
<path d="M63.0981 15.1628C66.0401 15.1166 68.3115 15.5315 70.5027 17.6105C71.3597 18.4809 72.186 19.617 72.4215 20.8372C72.381 21.0473 72.381 21.0473 72.3273 21.2093C72.2999 21.1406 72.2725 21.0719 72.2442 21.0011C71.2794 18.6425 69.81 16.9357 67.407 15.9095C66.3299 15.5127 65.281 15.4267 64.1448 15.4453C63.7529 15.45 63.3882 15.4254 63.0039 15.3489C63.035 15.2875 63.0661 15.2261 63.0981 15.1628Z" fill="#909498"/>
<path d="M61.0264 14.2326C60.7365 14.4235 60.4514 14.5521 60.1259 14.6686C59.6039 14.8663 59.1711 15.1609 58.7162 15.4782C58.4837 15.6279 58.4837 15.6279 58.2953 15.6279C58.2953 15.6893 58.2953 15.7507 58.2953 15.814C57.7796 16.2791 57.7796 16.2791 57.5419 16.2791C57.5214 16.3281 57.5009 16.3772 57.4798 16.4277C57.3063 16.7349 57.0751 16.9868 56.8415 17.25C56.5363 17.5943 56.261 17.9234 56.0351 18.3256C55.9701 18.4346 55.9701 18.4346 55.9038 18.5458C55.4228 19.3861 54.9835 20.2932 54.7873 21.2442C54.764 21.3555 54.7407 21.4668 54.7167 21.5814C54.6234 21.6275 54.6234 21.6275 54.5283 21.6744C54.4561 19.865 55.7399 17.9851 56.9236 16.6893C57.4828 16.0929 58.0689 15.5801 58.7493 15.1185C58.9614 14.9808 58.9614 14.9808 59.1429 14.7907C59.3888 14.6704 59.6338 14.5571 59.8846 14.4477C59.9524 14.4167 60.0203 14.3857 60.0902 14.3538C60.1561 14.3249 60.222 14.2961 60.29 14.2664C60.3799 14.2265 60.3799 14.2265 60.4716 14.1858C60.6875 14.1298 60.8172 14.1639 61.0264 14.2326Z" fill="#909498"/>
<path d="M30.7012 14.5117C31.7106 14.5641 32.5932 15.3987 33.2439 16.0931C34.3285 17.4288 34.7891 19.0258 34.7802 20.721C34.78 20.8185 34.7798 20.916 34.7796 21.0165C34.7685 21.8659 34.6468 22.6336 34.374 23.4419C34.3119 23.4419 34.2497 23.4419 34.1857 23.4419C34.1966 23.2829 34.2086 23.124 34.221 22.9651C34.2276 22.8767 34.2341 22.7882 34.2409 22.697C34.2799 22.4186 34.2799 22.4186 34.3759 22.1697C34.5091 21.7235 34.5003 21.2943 34.4976 20.8314C34.4972 20.7356 34.4967 20.6398 34.4962 20.5411C34.4852 19.8309 34.4082 19.1898 34.1857 18.5117C34.1558 18.4063 34.126 18.3009 34.0952 18.1923C33.8186 17.3078 33.3769 16.6884 32.773 16C32.6949 15.904 32.6949 15.904 32.6152 15.806C32.1095 15.2355 31.3779 14.9359 30.7012 14.6047C30.7012 14.574 30.7012 14.5433 30.7012 14.5117Z" fill="#909498"/>
<path d="M72.3268 26.2325C72.4201 26.2786 72.4201 26.2786 72.5152 26.3256C72.3928 26.9055 72.1922 27.3725 71.903 27.8895C71.865 27.9592 71.827 28.029 71.7879 28.1008C71.6314 28.3862 71.4734 28.6598 71.2909 28.9302C71.2287 28.9302 71.1666 28.9302 71.1025 28.9302C71.0753 29.0012 71.0481 29.0722 71.0201 29.1453C70.9142 29.3953 70.9142 29.3953 70.7258 29.6744C70.6637 29.6744 70.6015 29.6744 70.5375 29.6744C70.518 29.7262 70.4986 29.778 70.4786 29.8314C70.2948 30.1367 70.072 30.2983 69.7841 30.5116C69.7219 30.5116 69.6598 30.5116 69.5957 30.5116C69.5957 30.573 69.5957 30.6344 69.5957 30.6977C69.0832 31.1579 68.4568 31.4602 67.8358 31.75C67.7687 31.7814 67.7017 31.8127 67.6326 31.8451C67.0801 32.0957 66.5424 32.3161 65.9229 32.2791C65.9229 32.2177 65.9229 32.1563 65.9229 32.093C66.031 32.0603 66.1392 32.0275 66.2506 31.9938C67.5973 31.5756 68.6999 31.0539 69.7841 30.1395C69.8612 30.082 69.9382 30.0244 70.0177 29.9651C71.1261 29.0417 71.8478 27.5555 72.3268 26.2325Z" fill="#909498"/>
<path d="M21.6602 13.8605C23.8045 13.8605 25.9489 13.8605 28.1583 13.8605C28.1583 13.8912 28.1583 13.9219 28.1583 13.9535C26.1071 13.9842 24.056 14.0149 21.9427 14.0465C21.9427 15.3665 21.9427 16.6865 21.9427 18.0465C21.8805 18.0465 21.8184 18.0465 21.7543 18.0465C21.7233 18.1079 21.6922 18.1693 21.6602 18.2326C21.6602 16.7898 21.6602 15.347 21.6602 13.8605Z" fill="#909498"/>
<path d="M34.0917 23.5349C34.1993 23.7941 34.1893 23.8977 34.0906 24.1654C33.3491 25.5464 32.1055 26.936 30.6072 27.5349C30.4829 27.5349 30.3585 27.5349 30.2305 27.5349C30.2305 27.4735 30.2305 27.4121 30.2305 27.3489C30.4442 27.242 30.6581 27.1355 30.872 27.0291C30.9326 26.9988 30.9931 26.9685 31.0554 26.9373C31.3119 26.81 31.5588 26.6945 31.8315 26.6047C31.8315 26.5433 31.8315 26.4819 31.8315 26.4186C32.2525 26.0465 32.2525 26.0465 32.4907 26.0465C32.5218 25.9544 32.5528 25.8624 32.5849 25.7675C32.647 25.7675 32.7092 25.7675 32.7732 25.7675C32.7988 25.7129 32.8245 25.6583 32.8508 25.6021C32.9594 25.3994 33.0797 25.241 33.2264 25.064C33.5245 24.6815 33.7147 24.2774 33.9052 23.8347C33.9975 23.6279 33.9975 23.6279 34.0917 23.5349Z" fill="#909498"/>
<path d="M72.4209 21.3023C72.4831 21.3023 72.5452 21.3023 72.6093 21.3023C72.8068 22.0411 72.8268 22.7688 72.8222 23.5285C72.8211 23.7267 72.8222 23.9248 72.8234 24.123C72.8241 24.7863 72.8099 25.4095 72.6093 26.0465C72.516 26.0925 72.516 26.0925 72.4209 26.1395C72.4309 26.0404 72.4309 26.0404 72.4411 25.9393C72.5088 25.2156 72.5294 24.4997 72.5268 23.7732C72.5272 23.6686 72.5276 23.564 72.528 23.4562C72.5271 22.7344 72.4868 22.0211 72.4209 21.3023Z" fill="#909498"/>
<path d="M25.0503 27.8953C25.1712 27.8956 25.1712 27.8956 25.2945 27.8959C26.2501 27.902 27.2041 27.9492 28.1581 28C28.1581 28.0307 28.1581 28.0614 28.1581 28.093C27.6033 28.1725 27.0673 28.1985 26.5071 28.1951C26.3833 28.1949 26.3833 28.1949 26.257 28.1947C25.996 28.1942 25.7351 28.193 25.4741 28.1918C25.2961 28.1914 25.118 28.191 24.94 28.1906C24.5059 28.1895 24.0718 28.1879 23.6377 28.186C23.6377 28.1246 23.6377 28.0632 23.6377 28C24.1134 27.9051 24.5675 27.8927 25.0503 27.8953Z" fill="#909498"/>
<path d="M65.8291 31.907C66.0175 32 66.0175 32 66.0175 32L65.8291 31.907Z" fill="#909498"/>
</svg>
