<svg width="83" height="48" viewBox="0 0 83 48" fill="none" xmlns="http://www.w3.org/2000/svg">
<g clip-path="url(#clip0_1429_2658)">
<path d="M9.95406 17.9468H22.0752V20.4955H9.95406V17.9468Z" fill="#909498"/>
<path d="M17.2911 20.4955H14.7393V32.6017L17.2911 35.1504V20.4955Z" fill="#909498"/>
<path d="M27.1794 32.6017L24.6275 35.1504H17.2911L14.7393 32.6017H27.1794Z" fill="#6D7073"/>
<path d="M24.627 12.8494L27.1788 15.3981V32.6016L24.627 35.1503V12.8494Z" fill="#909498"/>
<path d="M27.179 15.3981L24.6272 12.8494H7.4024L4.85059 15.3981H27.179Z" fill="#6D7073"/>
<path d="M7.4024 12.8494L4.85059 15.3981V32.6016L7.4024 35.1503V12.8494Z" fill="#909498"/>
<path d="M40.5993 29.3097H41.8395V35.0443H40.5993V34.2185C40.1324 34.8684 39.4625 35.1934 38.5898 35.1934C37.8013 35.1934 37.1276 34.9028 36.5687 34.3217C36.0099 33.733 35.7305 33.0181 35.7305 32.177C35.7305 31.3283 36.0099 30.6134 36.5687 30.0323C37.1276 29.4512 37.8013 29.1606 38.5898 29.1606C39.4625 29.1606 40.1324 29.4818 40.5993 30.124V29.3097ZM37.4874 33.4959C37.8319 33.84 38.2644 34.012 38.785 34.012C39.3056 34.012 39.7381 33.84 40.0826 33.4959C40.4271 33.1442 40.5993 32.7046 40.5993 32.177C40.5993 31.6494 40.4271 31.2136 40.0826 30.8695C39.7381 30.5178 39.3056 30.342 38.785 30.342C38.2644 30.342 37.8319 30.5178 37.4874 30.8695C37.1429 31.2136 36.9707 31.6494 36.9707 32.177C36.9707 32.7046 37.1429 33.1442 37.4874 33.4959Z" fill="#909498"/>
<path d="M49.555 29.1606C50.2057 29.1606 50.7301 29.3709 51.1282 29.7914C51.5263 30.212 51.7253 30.7778 51.7253 31.4889V35.0443H50.4851V31.5691C50.4851 31.1715 50.3856 30.8657 50.1865 30.6516C49.9875 30.4299 49.7157 30.319 49.3712 30.319C48.9885 30.319 48.6823 30.4452 48.4526 30.6975C48.2306 30.9498 48.1196 31.3283 48.1196 31.8329V35.0443H46.8794V31.5691C46.8794 31.1715 46.7837 30.8657 46.5923 30.6516C46.4086 30.4299 46.1445 30.319 45.8 30.319C45.4249 30.319 45.1186 30.449 44.8813 30.709C44.644 30.9613 44.5253 31.3359 44.5253 31.8329V35.0443H43.2852V29.3097H44.5253V29.9979C44.8928 29.4397 45.4402 29.1606 46.1674 29.1606C46.9024 29.1606 47.4459 29.4627 47.798 30.0667C48.1808 29.4627 48.7665 29.1606 49.555 29.1606Z" fill="#909498"/>
<path d="M57.5993 29.3097H58.8395V35.0443H57.5993V34.2185C57.1324 34.8684 56.4625 35.1934 55.5898 35.1934C54.8013 35.1934 54.1276 34.9028 53.5687 34.3217C53.0099 33.733 52.7305 33.0181 52.7305 32.177C52.7305 31.3283 53.0099 30.6134 53.5687 30.0323C54.1276 29.4512 54.8013 29.1606 55.5898 29.1606C56.4625 29.1606 57.1324 29.4818 57.5993 30.124V29.3097ZM54.4874 33.4959C54.8319 33.84 55.2644 34.012 55.785 34.012C56.3056 34.012 56.7381 33.84 57.0826 33.4959C57.4271 33.1442 57.5993 32.7046 57.5993 32.177C57.5993 31.6494 57.4271 31.2136 57.0826 30.8695C56.7381 30.5178 56.3056 30.342 55.785 30.342C55.2644 30.342 54.8319 30.5178 54.4874 30.8695C54.1429 31.2136 53.9707 31.6494 53.9707 32.177C53.9707 32.7046 54.1429 33.1442 54.4874 33.4959Z" fill="#909498"/>
<path d="M66.8996 29.3098H68.2087L66.4058 35.0443H65.1886L63.9944 31.1792L62.7886 35.0443H61.5714L59.7686 29.3098H61.0776L62.1915 33.2666L63.3972 29.3098H64.58L65.7743 33.2666L66.8996 29.3098Z" fill="#909498"/>
<path d="M73.445 29.3097H74.6852V35.0443H73.445V34.2185C72.9781 34.8684 72.3082 35.1934 71.4355 35.1934C70.647 35.1934 69.9733 34.9028 69.4144 34.3217C68.8556 33.733 68.5762 33.0181 68.5762 32.177C68.5762 31.3283 68.8556 30.6134 69.4144 30.0323C69.9733 29.4512 70.647 29.1606 71.4355 29.1606C72.3082 29.1606 72.9781 29.4818 73.445 30.124V29.3097ZM70.3331 33.4959C70.6776 33.84 71.1101 34.012 71.6307 34.012C72.1513 34.012 72.5838 33.84 72.9283 33.4959C73.2728 33.1442 73.445 32.7046 73.445 32.177C73.445 31.6494 73.2728 31.2136 72.9283 30.8695C72.5838 30.5178 72.1513 30.342 71.6307 30.342C71.1101 30.342 70.6776 30.5178 70.3331 30.8695C69.9886 31.2136 69.8164 31.6494 69.8164 32.177C69.8164 32.7046 69.9886 33.1442 70.3331 33.4959Z" fill="#909498"/>
<path d="M76.1045 35.0442V27.0265L77.3804 26.6548V35.0382L76.1045 35.0442Z" fill="#909498"/>
<path d="M36.3165 27.0797V28.3248H34.101V35.0033H32.8077V28.3248H30.5811V27.0797H36.3165Z" fill="#909498"/>
<path d="M76.1045 15.3983H77.3804V16.4602L76.1045 16.8319V15.3983Z" fill="#909498"/>
<path d="M73.7656 15.3983H75.0415V16.4602L73.7656 16.8319V15.3983Z" fill="#909498"/>
<path fill-rule="evenodd" clip-rule="evenodd" d="M76.105 21.4513V18.1062L77.3809 17.7345V21.4513C77.3809 22.2724 76.7144 22.938 75.8923 22.938H73.8524C73.4576 22.938 73.0789 22.7814 72.7997 22.5025L72.1982 21.9019L73.1005 21.0007L73.7019 21.6015C73.7418 21.6413 73.7959 21.6637 73.8524 21.6637H75.8923C76.0097 21.6637 76.105 21.5687 76.105 21.4513Z" fill="#909498"/>
<path fill-rule="evenodd" clip-rule="evenodd" d="M41.2296 23.1505V22.3009H42.5055V23.1505C42.5055 24.4407 41.4583 25.4867 40.1663 25.4867H38.1993L37.8271 24.2124H40.1663C40.7536 24.2124 41.2296 23.737 41.2296 23.1505Z" fill="#909498"/>
<path fill-rule="evenodd" clip-rule="evenodd" d="M35.0624 22.6812V12.8495H36.3383V22.6812C36.3383 24.2306 35.0807 25.4867 33.5293 25.4867C32.5785 25.4867 31.6923 25.0064 31.174 24.2102L31.0841 24.0719C30.5673 23.278 30.441 22.2922 30.7409 21.3939L31.3941 19.646H32.7232L31.9513 21.7969C31.7744 22.327 31.8489 22.9088 32.1538 23.3774L32.2439 23.5156C32.5266 23.9502 33.0104 24.2124 33.5293 24.2124C34.3759 24.2124 35.0624 23.5268 35.0624 22.6812Z" fill="#909498"/>
<path fill-rule="evenodd" clip-rule="evenodd" d="M68.6298 21.0073L68.0539 21.5994C68.014 21.6405 67.9589 21.6637 67.9015 21.6637H41.7617V22.938H67.9015C68.3037 22.938 68.6888 22.7755 68.9691 22.4874L69.5449 21.8953L68.6298 21.0073Z" fill="#909498"/>
<path d="M77.3807 12.8495H73.7656V14.1239H77.3807V12.8495Z" fill="#909498"/>
<path fill-rule="evenodd" clip-rule="evenodd" d="M38.8798 12.8495V13.9646C38.8798 14.1893 39.0712 14.3353 39.2625 14.3353C39.4539 14.3353 39.6453 14.1893 39.6453 13.9646V13.1416L40.6979 12.8495V13.9646C40.6979 14.7607 40.0289 15.4061 39.2625 15.4061C38.4963 15.4061 37.8271 14.7607 37.8271 13.9646V12.8495H38.8798Z" fill="#909498"/>
<path fill-rule="evenodd" clip-rule="evenodd" d="M40.6875 12.8495L40.6874 13.9655C40.6874 14.1903 40.8724 14.3363 41.0702 14.3363C41.268 14.3363 41.4529 14.1903 41.4529 13.9655L41.453 13.1416L42.5057 12.8495L42.5056 13.9655C42.5056 14.7617 41.8366 15.407 41.0702 15.407C40.3039 15.407 39.6348 14.7617 39.6348 13.9655L39.6349 13.1416L40.6875 12.8495Z" fill="#909498"/>
<path fill-rule="evenodd" clip-rule="evenodd" d="M68.5557 19.8584C68.5557 18.5681 69.603 17.5221 70.8948 17.5221C72.1868 17.5221 73.234 18.5681 73.234 19.8584V20.6017C73.234 21.892 72.1868 22.938 70.8948 22.938C69.603 22.938 68.5557 21.892 68.5557 20.6017V19.8584ZM70.8948 18.7964C70.3077 18.7964 69.8316 19.2719 69.8316 19.8584V20.6017C69.8316 21.1883 70.3077 21.6637 70.8948 21.6637C71.4821 21.6637 71.9581 21.1883 71.9581 20.6017V19.8584C71.9581 19.2719 71.4821 18.7964 70.8948 18.7964Z" fill="#909498"/>
<path fill-rule="evenodd" clip-rule="evenodd" d="M37.8271 19.8584C37.8271 18.5681 38.8745 17.5221 40.1663 17.5221C41.4583 17.5221 42.5055 18.5681 42.5055 19.8584V22.938H40.1663C38.8745 22.938 37.8271 21.892 37.8271 20.6017V19.8584ZM40.1663 18.7964C39.5792 18.7964 39.1031 19.2719 39.1031 19.8584V20.6017C39.1031 21.1883 39.5792 21.6637 40.1663 21.6637H41.2296V19.8584C41.2296 19.2719 40.7536 18.7964 40.1663 18.7964Z" fill="#909498"/>
<path fill-rule="evenodd" clip-rule="evenodd" d="M33.9416 14.8142C33.9416 15.7584 33.1752 16.5239 32.2297 16.5239C31.2843 16.5239 30.5179 15.7584 30.5179 14.8142C30.5179 13.8699 31.2843 13.1044 32.2297 13.1044C33.1752 13.1044 33.9416 13.8699 33.9416 14.8142ZM34.1967 14.8142C34.1967 15.8991 33.3161 16.7788 32.2297 16.7788C31.1434 16.7788 30.2627 15.8991 30.2627 14.8142C30.2627 13.7292 31.1434 12.8495 32.2297 12.8495C33.3161 12.8495 34.1967 13.7292 34.1967 14.8142ZM32.2854 15.0457L32.6631 15.6956H32.9846L32.5789 15.0023C32.6844 14.9598 32.7694 14.8919 32.8341 14.7984C32.9004 14.7033 32.9336 14.5988 32.9336 14.4849C32.9336 14.3252 32.8775 14.1902 32.7652 14.0797C32.6546 13.9676 32.5194 13.9115 32.3594 13.9115H31.6449V15.6956H31.9384V15.0457H32.2854ZM31.9384 14.7831V14.1868H32.3594C32.4377 14.1868 32.504 14.2156 32.5585 14.2734C32.6129 14.3312 32.6401 14.4017 32.6401 14.4849C32.6401 14.5682 32.6129 14.6387 32.5585 14.6965C32.504 14.7543 32.4377 14.7831 32.3594 14.7831H31.9384Z" fill="#909498"/>
<path fill-rule="evenodd" clip-rule="evenodd" d="M81.8947 27.7699C81.8947 28.7142 81.1283 29.4796 80.1828 29.4796C79.2374 29.4796 78.471 28.7142 78.471 27.7699C78.471 26.8256 79.2374 26.0602 80.1828 26.0602C81.1283 26.0602 81.8947 26.8256 81.8947 27.7699ZM82.1499 27.7699C82.1499 28.8549 81.2692 29.7345 80.1828 29.7345C79.0965 29.7345 78.2158 28.8549 78.2158 27.7699C78.2158 26.6849 79.0965 25.8053 80.1828 25.8053C81.2692 25.8053 82.1499 26.6849 82.1499 27.7699ZM80.2386 28.0014L80.6162 28.6513H80.9378L80.532 27.9581C80.6375 27.9156 80.7226 27.8476 80.7872 27.7542C80.8536 27.659 80.8867 27.5545 80.8867 27.4407C80.8867 27.281 80.8306 27.1459 80.7183 27.0355C80.6077 26.9233 80.4725 26.8672 80.3126 26.8672H79.5981V28.6513H79.8915V28.0014H80.2386ZM79.8915 27.7389V27.1425H80.3126C80.3908 27.1425 80.4572 27.1714 80.5116 27.2292C80.566 27.2869 80.5933 27.3574 80.5933 27.4407C80.5933 27.524 80.566 27.5945 80.5116 27.6522C80.4572 27.71 80.3908 27.7389 80.3126 27.7389H79.8915Z" fill="#909498"/>
</g>
<defs>
<clipPath id="clip0_1429_2658">
<rect width="79" height="24" fill="white" transform="translate(4 12)"/>
</clipPath>
</defs>
</svg>
