<svg width="103" height="48" viewBox="0 0 103 48" fill="none" xmlns="http://www.w3.org/2000/svg">
<g clip-path="url(#clip0_1429_2388)">
<path d="M83.4012 14.6781C85.0802 14.6478 86.929 14.6513 88.513 15.255C89.2066 15.4922 89.7468 15.4588 90.4414 15.2649C93.4675 14.4983 97.5582 14.0699 100.406 15.6097C101.18 16.127 101.64 16.9167 101.838 17.8194C102.022 19.3047 101.635 20.787 101.345 22.2354C101.301 22.4604 101.257 22.6854 101.213 22.9105C101.097 23.4985 100.981 24.0863 100.864 24.6741C100.676 25.6186 100.49 26.5634 100.304 27.5081C100.239 27.8376 100.173 28.167 100.108 28.4963C100.068 28.6972 100.029 28.898 99.9888 29.0988C99.9705 29.1904 99.9521 29.282 99.9332 29.3763C99.8665 29.7156 99.8087 30.0312 99.8087 30.3779C98.1212 30.7769 96.1303 30.4461 94.4167 30.3779C94.4996 29.4453 94.6784 28.5342 94.8568 27.6163C94.9036 27.3753 94.9504 27.1343 94.9971 26.8933C95.0352 26.6969 95.0352 26.6969 95.0741 26.4965C95.1828 25.9352 95.2909 25.3738 95.3989 24.8124C95.4548 24.5219 95.5113 24.2315 95.5683 23.9413C95.6515 23.5169 95.7328 23.0921 95.8141 22.6674C95.8395 22.5391 95.865 22.4107 95.8912 22.2785C96.1657 20.9534 96.1657 20.9534 95.916 19.6628C94.5998 18.6561 92.6337 19.1398 91.1154 19.3314C91.0925 19.4687 91.0697 19.606 91.0462 19.7474C90.7489 21.5095 90.4107 23.2626 90.0668 25.016C89.9514 25.6061 89.8387 26.1966 89.7275 26.7875C89.6483 27.2077 89.5684 27.6278 89.4885 28.0478C89.4498 28.2522 89.4114 28.4567 89.3734 28.6612C89.3203 28.9464 89.2661 29.2313 89.2115 29.5162C89.1959 29.6021 89.1802 29.688 89.164 29.7764C89.1248 29.9785 89.0756 30.1786 89.0246 30.3779C88.7608 30.5103 88.6087 30.4981 88.3148 30.4908C88.2135 30.4886 88.1122 30.4864 88.0078 30.4841C87.8982 30.4811 87.7886 30.4781 87.6757 30.475C87.5636 30.4724 87.4516 30.4698 87.3361 30.4671C86.9773 30.4586 86.6185 30.4494 86.2597 30.4401C86.0169 30.4342 85.774 30.4284 85.5311 30.4226C84.9349 30.4083 84.3387 30.3934 83.7425 30.3779C83.756 30.3057 83.7696 30.2334 83.7835 30.1589C83.9251 29.4027 84.0661 28.6464 84.2066 27.89C84.2591 27.6082 84.3117 27.3265 84.3645 27.0447C84.4406 26.6384 84.5161 26.232 84.5915 25.8256C84.6267 25.6384 84.6267 25.6384 84.6627 25.4474C84.794 24.7357 84.8957 24.0299 84.953 23.3082C85.0256 23.3082 85.0982 23.3082 85.1731 23.3082C85.1811 23.2097 85.1811 23.2097 85.1894 23.1092C85.2355 22.5961 85.3008 22.1002 85.4069 21.596C85.5413 20.8742 85.5735 20.2056 85.2074 19.5524C84.4781 18.9191 83.3066 18.9593 82.3867 19.0157C81.4404 19.0665 81.4404 19.0665 80.5513 19.3314C80.4727 19.5827 80.4727 19.5827 80.4187 19.8925C80.3951 20.0125 80.3716 20.1324 80.3474 20.2559C80.3104 20.4523 80.3104 20.4523 80.2727 20.6527C80.2467 20.787 80.2207 20.9212 80.1938 21.0596C80.1245 21.4182 80.056 21.7769 79.9879 22.1358C79.9192 22.4964 79.8494 22.8567 79.7797 23.2171C79.6541 23.8684 79.5287 24.5198 79.4059 25.1716C79.3627 25.401 79.3189 25.6303 79.2746 25.8595C79.2443 26.0192 79.2443 26.0192 79.2133 26.1823C79.1954 26.2754 79.1775 26.3685 79.1591 26.4644C79.1194 26.7416 79.114 27.0053 79.1207 27.2849C79.0481 27.2849 78.9755 27.2849 78.9006 27.2849C78.8964 27.3819 78.8964 27.3819 78.892 27.4808C78.8457 28.1851 78.7224 28.8538 78.5653 29.54C78.5447 29.6315 78.5241 29.723 78.5028 29.8173C78.4524 30.0411 78.4014 30.2648 78.3504 30.4884C77.7043 30.4911 77.0582 30.4931 76.412 30.4945C76.1924 30.495 75.9727 30.4958 75.7531 30.4967C75.4367 30.4981 75.1204 30.4987 74.8041 30.4992C74.6576 30.5 74.6576 30.5 74.5081 30.5009C74.0152 30.501 73.5536 30.4786 73.0684 30.3779C73.0684 30.0499 73.0684 29.7218 73.0684 29.3837C73.141 29.3837 73.2136 29.3837 73.2884 29.3837C73.2963 29.2861 73.2963 29.2861 73.3043 29.1865C73.3697 28.4521 73.4891 27.7382 73.6315 27.0152C73.6549 26.894 73.6784 26.7727 73.7026 26.6478C73.7796 26.2502 73.8573 25.8528 73.9349 25.4553C73.9888 25.178 74.0426 24.9007 74.0963 24.6234C74.1802 24.1905 74.2641 23.7577 74.3483 23.3248C74.553 22.2724 74.7562 21.2197 74.9584 20.1668C74.9725 20.0936 74.9865 20.0204 75.001 19.945C75.0703 19.5843 75.1396 19.2236 75.2088 18.8629C75.3381 18.1893 75.4677 17.5157 75.5972 16.8421C75.6406 16.6161 75.6841 16.3901 75.7275 16.1642C75.7582 16.0048 75.7888 15.8454 75.8194 15.6861C78.0803 15.0631 78.0803 15.0631 79.1482 14.9404C79.2523 14.9276 79.3565 14.9149 79.4637 14.9017C80.7736 14.7504 82.0848 14.7204 83.4012 14.6781Z" fill="#123357"/>
<path d="M7.043 7.18024C8.51911 7.16996 9.9952 7.16213 11.4713 7.15735C12.1569 7.15505 12.8425 7.15194 13.5281 7.14691C14.1909 7.14207 14.8537 7.13946 15.5166 7.13832C15.7682 7.13751 16.0199 7.13593 16.2715 7.13353C18.6168 7.11203 20.7504 7.32317 22.5411 9.01659C23.9319 10.4039 24.4992 12.21 24.5398 14.1395C24.5122 16.317 23.5395 18.3878 22.0608 19.9562C20.1264 21.7969 17.975 22.309 15.4063 22.5349C15.261 23.2275 15.1157 23.9201 14.9661 24.6337C14.8935 24.6337 14.8208 24.6337 14.746 24.6337C14.746 24.5608 14.746 24.4879 14.746 24.4128C14.6847 24.3855 14.6234 24.3581 14.5603 24.33C14.0282 24.0412 13.688 23.6663 13.3154 23.1977C13.14 23.0057 12.9634 22.8147 12.7859 22.6246C11.4142 21.1155 11.4142 21.1155 11.2246 20.2151C11.7298 18.8728 13.0509 17.6407 14.3058 17.0116C14.8069 16.7932 15.3175 16.598 15.8464 16.4593C15.9191 16.4958 15.9917 16.5322 16.0665 16.5698C15.9939 17.1166 15.9213 17.6634 15.8464 18.2268C16.9485 18.0424 17.6579 17.4447 18.4604 16.6906C18.6547 16.5087 18.8497 16.3407 19.0583 16.1762C19.3946 15.8837 19.6742 15.5687 19.9601 15.2274C20.1381 15.0233 20.1381 15.0233 20.4132 14.7885C20.6084 14.5841 20.6084 14.5841 20.5989 14.2638C20.4424 13.8504 20.2517 13.6915 19.9055 13.4314C19.6979 13.2558 19.6979 13.2558 19.4961 13.0008C19.2639 12.7112 19.02 12.4523 18.7574 12.1904C18.618 12.0511 18.618 12.0511 18.4758 11.9089C18.3798 11.8134 18.2838 11.7179 18.1848 11.6196C18.0871 11.5219 17.9894 11.4243 17.8887 11.3238C17.6483 11.0838 17.4078 10.8441 17.1669 10.6047C17.0217 10.714 16.8764 10.8234 16.7268 10.9361C16.6904 10.7902 16.6541 10.6444 16.6167 10.4942C16.6101 10.5596 16.6034 10.6249 16.5965 10.6923C16.4888 11.7116 16.4888 11.7116 16.3966 12.0407C16.1201 12.1795 15.8579 12.1882 15.5535 12.2168C14.1116 12.3555 12.903 12.6735 11.9124 13.8077C10.9635 15.1055 10.8017 16.9288 10.4995 18.4693C10.4521 18.7077 10.4047 18.9462 10.3573 19.1847C10.2581 19.6835 10.1595 20.1825 10.0613 20.6815C9.9371 21.3121 9.81215 21.9425 9.68688 22.5728C9.02112 25.8978 9.02112 25.8978 8.41204 29.2335C8.39368 29.3374 8.37531 29.4414 8.3564 29.5485C8.33412 29.6788 8.33412 29.6788 8.31139 29.8118C8.25347 30.0465 8.25347 30.0465 8.03339 30.4884C5.30983 30.4337 5.30983 30.4337 2.53125 30.3779C3.15709 27.0939 3.7912 23.812 4.43732 20.532C4.98277 17.763 5.52153 14.9928 6.05321 12.2211C6.07876 12.0881 6.10431 11.9551 6.13063 11.818C6.17666 11.5783 6.22261 11.3385 6.26845 11.0987C6.51949 9.79116 6.78208 8.48586 7.043 7.18024Z" fill="#FD3F36"/>
<path d="M72.6764 14.9611C72.7644 14.9746 72.8525 14.9881 72.9432 15.002C73.3538 15.0706 73.6935 15.1566 74.0588 15.3546C73.7477 17.0739 73.4232 18.7902 73.089 20.5051C73.0705 20.6003 73.0519 20.6955 73.0328 20.7936C72.8787 21.5843 72.7243 22.3748 72.5698 23.1654C72.4355 23.8527 72.3014 24.5401 72.1674 25.2275C72.1399 25.3688 72.1399 25.3688 72.1118 25.5131C71.7964 27.1328 71.4934 28.7544 71.1977 30.3779C69.5272 30.3779 67.8568 30.3779 66.1357 30.3779C66.0994 30.1592 66.0631 29.9405 66.0257 29.7151C65.9257 29.7658 65.8257 29.8165 65.7226 29.8687C63.6977 30.8728 61.3778 31.4098 59.148 30.7136C58.354 30.3823 57.7286 29.9498 57.1535 29.3086C57.0107 29.1373 57.0107 29.1373 56.7821 29.1628C56.7821 28.9805 56.7821 28.7982 56.7821 28.6105C56.6731 28.574 56.5642 28.5375 56.452 28.5C56.3534 28.238 56.2812 27.9978 56.2181 27.7267C56.1995 27.6473 56.1808 27.5679 56.1616 27.486C55.535 24.6424 56.1034 21.6171 57.5524 19.1105C57.8253 18.6891 58.0999 18.2717 58.4327 17.8953C58.5054 17.8953 58.578 17.8953 58.6528 17.8953C58.6788 17.832 58.7047 17.7686 58.7315 17.7033C59.4771 16.3861 61.5328 15.5408 62.917 15.1406C65.989 14.3337 69.5557 14.4825 72.6764 14.9611ZM62.9445 19.9942C62.8527 20.0627 62.7609 20.1312 62.6664 20.2017C61.7215 21.0154 61.2534 22.2985 61.146 23.5157C61.1128 24.7579 61.1128 24.7579 61.6841 25.8199C62.3555 26.4447 63.0395 26.5548 63.928 26.553C64.0191 26.5529 64.1102 26.5528 64.2041 26.5527C65.0635 26.5364 65.8881 26.4028 66.6859 26.0698C66.9132 25.7276 66.966 25.5276 67.0421 25.1298C67.0784 24.9428 67.0784 24.9428 67.1155 24.7521C67.1409 24.6175 67.1662 24.4829 67.1923 24.3442C67.2189 24.2059 67.2454 24.0677 67.2728 23.9253C67.3288 23.6327 67.3845 23.3402 67.4398 23.0475C67.5105 22.6728 67.5823 22.2983 67.6544 21.9239C67.7232 21.5662 67.7913 21.2085 67.8594 20.8507C67.8981 20.6491 67.8981 20.6491 67.9376 20.4434C67.9611 20.3185 67.9846 20.1935 68.0089 20.0648C68.0297 19.9549 68.0505 19.845 68.072 19.7318C68.1277 19.418 68.1277 19.418 68.1165 19C66.6081 18.2429 64.1687 19.0341 62.9445 19.9942Z" fill="#123357"/>
<path d="M38.4045 14.4709C39.2125 14.4567 40.0204 14.4472 40.8285 14.4406C41.1024 14.4379 41.3764 14.4341 41.6503 14.4293C43.7672 14.3929 46.0225 14.3891 47.7306 15.831C48.4774 16.7264 48.81 17.5916 48.7343 18.7826C48.7066 19.0322 48.6723 19.2798 48.6351 19.5282C48.6136 19.6749 48.6136 19.6749 48.5916 19.8245C48.3498 21.3987 48.0175 22.9584 47.7008 24.5187C47.5955 25.0381 47.491 25.5577 47.3865 26.0773C47.2919 26.5477 47.1971 27.018 47.1015 27.4881C46.9078 28.4502 46.728 29.4128 46.5477 30.3779C44.8046 30.3779 43.0615 30.3779 41.2656 30.3779C41.5131 28.6387 41.5131 28.6387 41.6403 27.9838C41.6541 27.9121 41.6679 27.8404 41.6821 27.7665C41.7114 27.6145 41.7409 27.4625 41.7706 27.3105C41.8177 27.0689 41.8643 26.8271 41.9108 26.5854C42.0261 25.986 42.1421 25.3868 42.2584 24.7876C42.3573 24.278 42.4557 23.7684 42.5536 23.2587C42.5992 23.0225 42.6452 22.7865 42.6913 22.5505C43.0659 20.9801 43.0659 20.9801 42.8062 19.4419C42.0482 18.7005 40.8566 18.8815 39.8695 18.8757C39.7819 18.8752 39.6944 18.8747 39.6042 18.8741C39.5188 18.8744 39.4334 18.8746 39.3455 18.8749C39.2326 18.8751 39.2326 18.8751 39.1174 18.8753C38.7298 18.8956 38.3491 18.9489 37.9644 19C37.9515 19.0736 37.9387 19.1472 37.9255 19.223C37.5628 21.2996 37.1749 23.3706 36.7735 25.4399C36.6929 25.8555 36.6128 26.2712 36.5327 26.6869C36.4699 27.0127 36.4069 27.3386 36.3438 27.6644C36.3141 27.8178 36.2845 27.9712 36.255 28.1246C36.2139 28.3377 36.1725 28.5506 36.1312 28.7636C36.1079 28.8837 36.0846 29.0039 36.0607 29.1278C35.9725 29.5469 35.867 29.9623 35.7635 30.3779C34.0204 30.3779 32.2773 30.3779 30.4814 30.3779C30.5609 29.9291 30.6403 29.4803 30.7222 29.0178C30.7619 28.7931 30.7619 28.7931 30.8025 28.5639C30.9288 27.8536 31.0573 27.1438 31.1907 26.4348C31.2285 26.2333 31.2285 26.2333 31.2671 26.0276C31.3157 25.7699 31.3647 25.5123 31.4141 25.2547C31.4361 25.1377 31.4582 25.0206 31.4809 24.9C31.5102 24.7464 31.5102 24.7464 31.5401 24.5897C31.5814 24.3053 31.5895 24.037 31.5819 23.75C31.6545 23.75 31.7271 23.75 31.802 23.75C31.8065 23.6894 31.811 23.6287 31.8156 23.5663C31.8902 22.6998 32.0465 21.8525 32.2077 20.9987C32.237 20.8423 32.2661 20.6859 32.2953 20.5295C32.3561 20.2042 32.4171 19.8789 32.4784 19.5536C32.5571 19.1365 32.635 18.7192 32.7127 18.3019C32.7726 17.98 32.8329 17.6582 32.8933 17.3364C32.9222 17.1825 32.951 17.0285 32.9797 16.8745C33.0196 16.6603 33.0601 16.4462 33.1005 16.2321C33.1234 16.1104 33.1463 15.9886 33.1699 15.8631C33.2325 15.5756 33.2325 15.5756 33.3426 15.3547C33.6002 15.2806 33.6002 15.2806 33.9405 15.2162C34.0642 15.1924 34.188 15.1687 34.3155 15.1443C34.4461 15.1203 34.5767 15.0963 34.7112 15.0716C34.838 15.0472 34.9647 15.0228 35.0953 14.9976C36.0333 14.8208 36.9662 14.6712 37.9231 14.685C38.0614 14.6865 38.0614 14.6865 38.2025 14.688C38.2692 14.6893 38.3358 14.6906 38.4045 14.6919C38.4045 14.619 38.4045 14.5461 38.4045 14.4709Z" fill="#123357"/>
<path d="M51.1697 15.1337C52.9491 15.1337 54.7285 15.1337 56.5618 15.1337C55.9288 18.4555 55.2735 21.7728 54.6185 25.0903C54.4127 26.1327 54.2072 27.1751 54.0024 28.2177C53.8207 29.1429 53.6385 30.068 53.4556 30.9929C53.359 31.4812 53.2628 31.9695 53.1671 32.4579C53.0775 32.9157 52.9871 33.3733 52.8962 33.8308C52.8631 33.9982 52.8302 34.1656 52.7976 34.333C52.3856 36.4481 52.3856 36.4481 52.05 36.7849C51.8946 36.7951 51.7387 36.7979 51.583 36.7974C51.4839 36.7974 51.3847 36.7974 51.2826 36.7974C51.1748 36.7968 51.0671 36.7963 50.9561 36.7957C50.8463 36.7955 50.7366 36.7954 50.6235 36.7952C50.2714 36.7946 49.9193 36.7932 49.5672 36.7918C49.3291 36.7912 49.0911 36.7907 48.853 36.7903C48.268 36.7891 47.6831 36.7872 47.0981 36.7849C46.9582 36.3634 47.0397 36.1909 47.1587 35.7635C47.5307 34.357 47.7856 32.9232 48.0624 31.4955C48.1256 31.1699 48.1891 30.8443 48.2527 30.5188C48.4557 29.4779 48.6576 28.4367 48.8588 27.3954C48.8842 27.2637 48.9097 27.1321 48.9359 26.9966C49.4603 24.2804 49.9719 21.5619 50.4726 18.8413C50.7008 17.6046 50.9352 16.3694 51.1697 15.1337Z" fill="#123257"/>
<path d="M26.4106 15.0233C28.138 15.0074 29.8574 15.0472 31.5826 15.1337C31.3951 16.3114 31.1761 17.4828 30.9567 18.6548C30.9264 18.8173 30.9264 18.8173 30.8954 18.9831C30.1849 22.7841 29.451 26.5806 28.7215 30.3779C26.9784 30.3779 25.2354 30.3779 23.4395 30.3779C23.5892 29.5577 23.739 28.7375 23.8934 27.8925C23.9422 27.6249 23.991 27.3574 24.0413 27.0817C24.2384 26.0024 24.4363 24.9234 24.6426 23.8458C24.6583 23.7637 24.6739 23.6816 24.69 23.597C24.761 23.2247 24.8327 22.8526 24.9055 22.4807C25.0545 21.7318 25.0545 21.7318 25.0931 20.972C25.0901 20.657 25.0901 20.657 25.3102 20.3256C25.3605 20.0231 25.3605 20.0231 25.379 19.6973C25.3872 19.5875 25.3954 19.4777 25.4039 19.3646C25.4093 19.2808 25.4147 19.1969 25.4202 19.1105C25.4929 19.1105 25.5655 19.1105 25.6403 19.1105C25.6403 18.7459 25.6403 18.3814 25.6403 18.0058C25.7129 18.0058 25.7856 18.0058 25.8604 18.0058C25.8645 17.9453 25.8686 17.8848 25.8729 17.8224C26.0432 15.761 26.0432 15.761 26.4106 15.0233Z" fill="#123356"/>
<path d="M32.2428 8.17444C32.6876 8.58236 33.0187 9.00471 33.1231 9.61049C33.153 10.7942 32.7166 11.7483 31.9239 12.6125C30.9967 13.4204 30.0186 13.6488 28.8285 13.6256C28.1018 13.5618 27.7548 13.2797 27.2565 12.7795C26.7583 11.9829 26.6397 11.3124 26.8507 10.3837C27.2633 9.27655 27.9247 8.53551 28.9415 7.95351C30.0321 7.49372 31.2538 7.48053 32.2428 8.17444Z" fill="#133356"/>
<path d="M56.5717 7.85814C56.8047 7.98692 57.0148 8.11858 57.2225 8.2849C57.2225 8.35781 57.2225 8.43071 57.2225 8.50583C57.2951 8.50583 57.3677 8.50583 57.4425 8.50583C57.8801 9.48043 57.9993 10.1719 57.6686 11.204C57.4779 11.6714 57.2241 12.1018 56.8923 12.4826C56.7834 12.519 56.6744 12.5555 56.5622 12.593C56.5622 12.6659 56.5622 12.7389 56.5622 12.814C56.37 12.9228 56.1773 13.0308 55.9845 13.1385C55.8772 13.1987 55.77 13.2589 55.6595 13.321C54.8821 13.7144 53.901 13.7249 53.0653 13.5078C52.5536 13.2958 52.2573 13.058 51.9404 12.593C51.8315 12.5201 51.7225 12.4472 51.6103 12.3721C51.6103 12.2263 51.6103 12.0805 51.6103 11.9302C51.6052 11.8424 51.6001 11.7545 51.5948 11.664C51.5504 10.5834 51.8006 9.75288 52.4906 8.91317C53.5718 7.80842 55.0773 7.30559 56.5717 7.85814Z" fill="#113256"/>
<path d="M18.8174 7.40116C20.1869 7.34534 21.3159 7.97151 22.3388 8.83721C22.4097 8.89474 22.4806 8.95227 22.5537 9.01154C23.9328 10.2463 24.4187 12.1062 24.5308 13.8845C24.6047 16.0366 23.6808 18.0744 22.3112 19.6904C21.6076 20.4408 20.7606 21.1398 19.8078 21.5407C19.6988 21.5042 19.5899 21.4678 19.4776 21.4302C19.5456 21.3914 19.6135 21.3525 19.6835 21.3124C21.8933 20.0193 23.2268 18.3566 23.9894 15.907C24.1281 15.3134 24.1196 14.7186 24.1201 14.1119C24.1221 13.9643 24.1221 13.9643 24.1242 13.8137C24.1282 11.9611 23.5035 10.5241 22.2506 9.17637C21.3249 8.28095 20.0568 7.77824 18.8174 7.51163C18.8174 7.47518 18.8174 7.43872 18.8174 7.40116Z" fill="#EF241F"/>
<path d="M32.2428 8.17441C32.6876 8.58233 33.0187 9.00467 33.1231 9.61046C33.153 10.7941 32.7166 11.7482 31.9238 12.6124C31.2635 13.1878 30.46 13.6056 29.5811 13.5941C29.482 13.5931 29.3828 13.5921 29.2806 13.5911C29.205 13.5898 29.1294 13.5885 29.0515 13.5872C29.353 13.4216 29.6073 13.3361 29.9456 13.2834C30.9602 13.0657 31.7706 12.4495 32.3528 11.5988C32.7967 10.8668 32.7702 9.99811 32.6829 9.1686C32.47 8.65211 32.1581 8.36676 31.6569 8.14032C31.2636 8.03831 30.8791 8.01999 30.4752 8.01562C30.3642 8.01393 30.3642 8.01393 30.2509 8.01222C29.331 8.02825 28.6168 8.45584 27.9511 9.05813C27.3716 9.72363 27.1491 10.3205 27.1464 11.2122C27.1446 11.3546 27.1427 11.497 27.1408 11.6437C27.1993 12.2239 27.405 12.489 27.8135 12.8899C28.2069 13.1708 28.4768 13.2636 28.9415 13.3663C28.9415 13.4027 28.9415 13.4392 28.9415 13.4767C28.3107 13.5274 28.0003 13.4388 27.5109 13.0349C27.0344 12.5429 26.7615 11.9978 26.7256 11.3106C26.7773 10.2611 27.2115 9.35874 27.9511 8.61627C29.2045 7.64516 30.854 7.20001 32.2428 8.17441Z" fill="#0D182D"/>
<path d="M51.1699 15.1337C52.9493 15.1337 54.7287 15.1337 56.562 15.1337C56.1358 17.3703 55.6995 19.6048 55.2599 21.8388C55.1705 22.2929 55.0812 22.747 54.992 23.2011C54.8185 24.0837 54.6449 24.9663 54.4712 25.8488C54.3986 25.8488 54.3259 25.8488 54.2511 25.8488C54.3111 25.0228 54.4234 24.2226 54.5855 23.4108C54.6078 23.2972 54.63 23.1836 54.6529 23.0666C54.7246 22.7005 54.7973 22.3346 54.8701 21.9688C54.9198 21.7165 54.9695 21.4642 55.0192 21.212C55.4057 19.2555 55.8125 17.3043 56.2319 15.3547C54.6341 15.3547 53.0362 15.3547 51.39 15.3547C51.3537 15.6098 51.3174 15.865 51.28 16.1279C51.2437 16.1279 51.2073 16.1279 51.1699 16.1279C51.1699 15.7998 51.1699 15.4718 51.1699 15.1337Z" fill="#08142A"/>
<path d="M52.8201 32.6977C52.8564 32.6977 52.8927 32.6977 52.9302 32.6977C52.9645 33.4708 52.836 34.173 52.6757 34.9277C52.6522 35.0455 52.6287 35.1634 52.6045 35.2848C52.5808 35.3986 52.557 35.5125 52.5325 35.6298C52.5112 35.7323 52.4899 35.8349 52.4679 35.9405C52.2918 36.525 52.2918 36.525 52.0498 36.7849C51.6783 36.8639 51.3125 36.849 50.9343 36.8388C50.8249 36.8381 50.7154 36.8373 50.6027 36.8365C50.2528 36.8334 49.9031 36.8264 49.5532 36.8194C49.3162 36.8167 49.0791 36.8141 48.842 36.8119C48.2606 36.8058 47.6792 36.7965 47.0979 36.7849C46.9539 36.3512 47.0712 36.0436 47.1873 35.6181C47.2292 35.4591 47.2709 35.3 47.3124 35.1409C47.3326 35.0634 47.3528 34.9859 47.3736 34.906C47.4663 34.5314 47.5319 34.1524 47.5939 33.7717C47.6118 33.7089 47.6297 33.6461 47.6481 33.5814C47.7207 33.545 47.7934 33.5085 47.8682 33.4709C47.8613 33.6782 47.8515 33.8853 47.8407 34.0923C47.833 34.2653 47.833 34.2653 47.8252 34.4418C47.7265 35.1264 47.5073 35.7884 47.318 36.4535C48.8795 36.4535 50.441 36.4535 52.0498 36.4535C52.2213 35.5482 52.2213 35.5482 52.3921 34.6427C52.5167 33.9886 52.6502 33.3415 52.8201 32.6977Z" fill="#132A47"/>
<path d="M68.0067 18.6686C68.0067 18.705 68.0067 18.7415 68.0067 18.779C67.9097 18.7797 67.9097 18.7797 67.8107 18.7804C65.8196 18.8048 64.2088 19.0128 62.649 20.3601C61.6262 21.5533 61.2066 22.7867 61.2602 24.3696C61.3137 24.9599 61.3816 25.3931 61.8267 25.8238C62.443 26.3146 62.876 26.4155 63.6618 26.4119C63.8682 26.4114 63.8682 26.4114 64.0787 26.4108C64.222 26.4099 64.3653 26.409 64.5129 26.408C64.6579 26.4075 64.8028 26.407 64.9522 26.4065C65.3101 26.4052 65.668 26.4034 66.026 26.4011C65.514 26.9151 64.4277 26.7663 63.7311 26.7675C62.95 26.7552 62.2876 26.6584 61.6685 26.1448C60.9584 25.3841 60.9032 24.5068 60.9257 23.5161C61.053 22.0889 61.6732 20.8333 62.7118 19.8556C63.0948 19.5386 63.4813 19.3111 63.9352 19.1104C64.0302 19.067 64.1252 19.0236 64.2232 18.9788C65.4376 18.5148 66.7282 18.6278 68.0067 18.6686Z" fill="#071327"/>
<path d="M7.04288 7.18024C10.8559 7.18024 14.6688 7.18024 18.5974 7.18024C18.6518 7.2896 18.6518 7.2896 18.7074 7.40117C14.9307 7.40117 11.1541 7.40117 7.26297 7.40117C7.19034 7.94797 7.11771 8.49477 7.04288 9.05814C6.97025 9.0946 6.89762 9.13105 6.8228 9.16861C6.79593 8.44051 6.8938 7.92852 7.04288 7.18024Z" fill="#F81F1C"/>
<path d="M6.49278 10.3837C6.52909 10.3837 6.56541 10.3837 6.60282 10.3837C6.58 11.5668 6.35238 12.6751 6.10333 13.8267C5.94026 14.5822 5.79276 15.3405 5.64787 16.0997C5.60581 16.3199 5.5635 16.5401 5.52112 16.7603C5.39636 17.409 5.27245 18.0578 5.15034 18.707C5.11183 18.9082 5.07329 19.1095 5.03471 19.3107C5.01811 19.401 5.0015 19.4913 4.98439 19.5844C4.86712 20.19 4.86712 20.19 4.62205 20.4361C4.60565 19.8063 4.65848 19.2387 4.78193 18.6223C4.80743 18.4898 4.80743 18.4898 4.83343 18.3547C4.88926 18.0658 4.94627 17.7771 5.00333 17.4884C5.0426 17.2869 5.08181 17.0853 5.12097 16.8838C5.20288 16.463 5.28535 16.0423 5.36825 15.6217C5.4747 15.0815 5.58004 14.5411 5.685 14.0006C5.76575 13.5852 5.84694 13.1699 5.92828 12.7546C5.9673 12.5552 6.00622 12.3558 6.04503 12.1564C6.09913 11.8789 6.15379 11.6016 6.20862 11.3242C6.22469 11.2413 6.24075 11.1584 6.25731 11.073C6.37014 10.5068 6.37014 10.5068 6.49278 10.3837Z" fill="#FB251E"/>
<path d="M56.2321 7.73256C56.2321 7.80547 56.2321 7.87837 56.2321 7.95349C56.1098 7.95506 55.9875 7.95662 55.8615 7.95824C54.6014 7.99139 53.7252 8.15543 52.7726 9.04433C52.0671 9.8025 51.9032 10.6462 51.9168 11.6614C51.9627 12.1839 52.1563 12.4901 52.5388 12.8347C52.6318 12.9007 52.7249 12.9668 52.8207 13.0349C52.9047 13.0987 52.9887 13.1625 53.0752 13.2282C53.1671 13.2965 53.1671 13.2965 53.2609 13.3663C52.9735 13.4087 52.7799 13.4106 52.531 13.2511C52.289 13.051 52.082 12.8773 51.9404 12.593C51.8315 12.5201 51.7225 12.4472 51.6103 12.3721C51.6103 12.2263 51.6103 12.0805 51.6103 11.9302C51.6052 11.8424 51.6001 11.7545 51.5948 11.664C51.5504 10.5834 51.8006 9.75287 52.4906 8.91316C53.6163 7.763 54.7092 7.63475 56.2321 7.73256Z" fill="#0B1930"/>
<path d="M43.7969 14.6919C45.2247 14.6074 46.6237 14.8634 47.7584 15.7965C48.5176 16.679 48.8101 17.7085 48.7266 18.8655C48.6873 19.1739 48.6411 19.4802 48.5906 19.7871C48.5744 19.8927 48.5581 19.9984 48.5414 20.1073C48.5017 20.3644 48.4608 20.6212 48.4187 20.8779C48.346 20.8779 48.2734 20.8779 48.1986 20.8779C48.1847 20.1663 48.1847 20.1663 48.2523 19.8665C48.3326 19.4185 48.3333 18.9779 48.3361 18.5236C48.3384 18.4334 48.3407 18.3432 48.343 18.2503C48.3491 17.2877 48.1048 16.595 47.4283 15.907C46.3191 15.13 45.1134 14.9503 43.7969 14.8023C43.7969 14.7659 43.7969 14.7294 43.7969 14.6919Z" fill="#09182F"/>
<path d="M8.25347 28.3895C8.28979 28.3895 8.3261 28.3895 8.36351 28.3895C8.38546 29.0836 8.34674 29.7105 8.14343 30.3779C8.03339 30.4884 8.03339 30.4884 7.81127 30.4975C7.71377 30.4952 7.61627 30.493 7.51581 30.4908C7.40567 30.4885 7.29552 30.4863 7.18203 30.484C7.06225 30.4811 6.94246 30.4781 6.81905 30.475C6.69708 30.4724 6.57511 30.4698 6.44944 30.4671C6.05809 30.4586 5.66677 30.4493 5.27544 30.44C5.01087 30.4342 4.74629 30.4283 4.48171 30.4226C3.83155 30.4083 3.1814 30.3933 2.53125 30.3779C2.64019 29.7582 2.74913 29.1385 2.86138 28.5C2.93401 28.5 3.00663 28.5 3.08146 28.5C3.08751 28.6518 3.09172 28.8037 3.09522 28.9557C3.09777 29.0402 3.10033 29.1248 3.10296 29.212C3.07708 29.5518 2.97253 29.8361 2.86138 30.157C3.06793 30.1561 3.06793 30.1561 3.27866 30.1552C3.78972 30.1532 4.30078 30.1519 4.81184 30.1509C5.033 30.1503 5.25416 30.1496 5.47532 30.1486C5.79327 30.1473 6.11122 30.1467 6.42917 30.1462C6.52799 30.1456 6.62682 30.145 6.72864 30.1445C6.82114 30.1444 6.91363 30.1444 7.00894 30.1444C7.13063 30.1441 7.13063 30.1441 7.25478 30.1437C7.48317 30.157 7.48317 30.157 7.92334 30.2674C8.03229 29.6477 8.14123 29.028 8.25347 28.3895Z" fill="#F51311"/>
<path d="M73.5086 17.0116C73.5449 17.0116 73.5812 17.0116 73.6186 17.0116C73.6326 17.559 73.5851 18.0538 73.4807 18.5908C73.4587 18.7055 73.4587 18.7055 73.4362 18.8225C73.388 19.0725 73.3387 19.3223 73.2893 19.5721C73.2553 19.7466 73.2213 19.9211 73.1873 20.0956C73.1162 20.4598 73.0445 20.824 72.9725 21.188C72.88 21.6555 72.7892 22.1232 72.6987 22.5911C72.6289 22.9507 72.5583 23.3102 72.4874 23.6696C72.4535 23.8421 72.4199 24.0147 72.3866 24.1873C72.3401 24.4276 72.2924 24.6677 72.2444 24.9076C72.2175 25.0444 72.1906 25.1811 72.163 25.322C72.1349 25.423 72.1069 25.5239 72.078 25.6279C71.9691 25.6826 71.9691 25.6826 71.8579 25.7383C71.8438 25.194 71.8907 24.7044 71.9976 24.171C72.0124 24.0958 72.0273 24.0206 72.0426 23.9432C72.0914 23.6972 72.1412 23.4515 72.1911 23.2058C72.2254 23.0341 72.2597 22.8624 72.2939 22.6906C72.3655 22.3321 72.4376 21.9736 72.5101 21.6152C72.6031 21.1553 72.6951 20.6953 72.7869 20.2352C72.8575 19.8812 72.9285 19.5273 72.9996 19.1734C73.0336 19.0037 73.0676 18.834 73.1016 18.6643C73.1489 18.4278 73.1967 18.1915 73.2446 17.9552C73.2717 17.8206 73.2988 17.6861 73.3268 17.5474C73.3985 17.2325 73.3985 17.2325 73.5086 17.0116Z" fill="#09182F"/>
<path d="M40.1175 18.5167C40.2538 18.514 40.39 18.5113 40.5304 18.5085C41.4956 18.5054 42.3563 18.5909 43.0955 19.2623C43.5998 20.5969 43.0944 22.1876 42.8067 23.529C42.7704 23.529 42.734 23.529 42.6966 23.529C42.6555 22.6889 42.7652 21.9151 42.9287 21.0937C43.041 20.4732 43.0139 20.0408 42.8067 19.4418C42.1663 18.7991 41.2887 18.8885 40.4403 18.8878C40.1789 18.8881 39.9176 18.8894 39.6562 18.8935C39.1884 18.899 38.756 18.8732 38.2949 18.779C38.8437 18.4118 39.4727 18.5174 40.1175 18.5167Z" fill="#0A1B34"/>
<path d="M83.4098 14.6776C84.299 14.6622 85.1803 14.7222 86.0667 14.7885C86.1869 14.7972 86.3071 14.8058 86.431 14.8147C86.5448 14.824 86.6587 14.8333 86.776 14.8429C86.8779 14.851 86.9797 14.8591 87.0847 14.8674C87.3902 14.9154 87.6419 15.0079 87.9237 15.1337C87.9237 15.1702 87.9237 15.2066 87.9237 15.2442C87.8408 15.2369 87.758 15.2297 87.6726 15.2222C86.1652 15.1053 84.6549 15.0954 83.1437 15.0716C82.8597 15.0668 82.5756 15.062 82.2915 15.0571C81.6013 15.0454 80.911 15.0341 80.2207 15.0232C80.4922 14.7507 80.5831 14.7704 80.9579 14.7566C81.0629 14.7523 81.1678 14.748 81.2759 14.7436C81.3884 14.7402 81.501 14.7368 81.6169 14.7333C81.7325 14.7292 81.8481 14.7252 81.9673 14.7211C82.4481 14.7052 82.929 14.6932 83.4098 14.6776Z" fill="#0B1C36"/>
<path d="M30.5921 7.62207C30.5921 7.69498 30.5921 7.76788 30.5921 7.843C30.4845 7.86593 30.3768 7.88885 30.2659 7.91247C29.1526 8.16768 28.3387 8.5147 27.6279 9.45855C27.2576 10.0667 27.1486 10.4944 27.1464 11.2122C27.1446 11.3546 27.1427 11.497 27.1408 11.6437C27.1993 12.2239 27.405 12.489 27.8135 12.8899C28.2069 13.1708 28.4768 13.2636 28.9415 13.3663C28.9415 13.4027 28.9415 13.4392 28.9415 13.4767C28.3107 13.5274 28.0003 13.4388 27.5109 13.0349C27.0344 12.5428 26.7615 11.9978 26.7256 11.3106C26.7773 10.2611 27.2115 9.35873 27.9511 8.61626C28.7565 7.99225 29.5531 7.62207 30.5921 7.62207Z" fill="#192038"/>
<path d="M26.4105 15.0233C28.1379 15.0074 29.8573 15.0472 31.5825 15.1337C31.5462 15.4254 31.5099 15.717 31.4725 16.0174C31.3999 16.0174 31.3272 16.0174 31.2524 16.0174C31.2524 15.8352 31.2524 15.6529 31.2524 15.4651C29.6909 15.4287 28.1294 15.3922 26.5206 15.3547C26.3753 16.1566 26.23 16.9586 26.0804 17.7849C26.0441 17.7849 26.0078 17.7849 25.9703 17.7849C25.9334 17.1795 26.0091 16.6245 26.1285 16.0313C26.1433 15.9576 26.1581 15.884 26.1734 15.8081C26.2848 15.2757 26.2848 15.2757 26.4105 15.0233Z" fill="#081125"/>
<path d="M93.7974 18.7584C93.8747 18.7569 93.952 18.7555 94.0317 18.754C94.4418 18.7533 94.6164 18.7657 94.9666 19C94.8851 19.0061 94.8036 19.0123 94.7197 19.0186C94.3458 19.0467 93.9719 19.0752 93.598 19.1036C93.4698 19.1132 93.3416 19.1228 93.2096 19.1327C92.5095 19.1862 91.8124 19.2483 91.1151 19.3314C91.1029 19.4026 91.0907 19.4738 91.0782 19.5471C91.0219 19.8757 90.9653 20.2042 90.9088 20.5327C90.8896 20.6447 90.8705 20.7566 90.8508 20.8719C90.7932 21.2055 90.7343 21.5388 90.6749 21.8721C90.6565 21.9798 90.638 22.0875 90.619 22.1984C90.6008 22.2984 90.5827 22.3983 90.564 22.5013C90.5483 22.5904 90.5325 22.6796 90.5163 22.7714C90.4859 22.8731 90.4859 22.8731 90.4549 22.9768C90.3459 23.0315 90.3459 23.0315 90.2348 23.0872C90.2185 22.2779 90.3496 21.5318 90.503 20.7399C90.5262 20.5986 90.5494 20.4573 90.5733 20.3118C90.7705 19.3108 90.7705 19.3108 91.1248 19.0551C91.3833 18.9663 91.6142 18.9187 91.8854 18.8896C92.004 18.8691 92.004 18.8691 92.125 18.8482C92.6753 18.7565 93.2408 18.7651 93.7974 18.7584Z" fill="#09172D"/>
<path d="M99.699 29.0523C99.7354 29.0523 99.7717 29.0523 99.8091 29.0523C99.8091 29.4897 99.8091 29.9272 99.8091 30.3779C98.084 30.7242 96.163 30.4473 94.417 30.3779C94.4533 30.0498 94.4896 29.7217 94.527 29.3837C94.5997 29.3837 94.6723 29.3837 94.7471 29.3837C94.7471 29.6389 94.7471 29.8941 94.7471 30.157C94.9387 30.1561 94.9387 30.1561 95.1341 30.1552C95.6082 30.1532 96.0824 30.1519 96.5565 30.1509C96.7617 30.1503 96.9668 30.1496 97.172 30.1486C97.467 30.1473 97.762 30.1467 98.057 30.1462C98.1486 30.1456 98.2402 30.145 98.3346 30.1444C98.4205 30.1444 98.5064 30.1444 98.5949 30.1444C98.6701 30.1442 98.7454 30.1439 98.8229 30.1437C99.0529 30.1578 99.2576 30.2048 99.479 30.2674C99.4948 30.1284 99.5107 29.9895 99.5271 29.8463C99.5601 29.5575 99.6064 29.3313 99.699 29.0523Z" fill="#010513"/>
<path d="M41.7058 28.0582C41.7421 28.0582 41.7784 28.0582 41.8158 28.0582C41.8002 28.286 41.7841 28.5139 41.7677 28.7417C41.7588 28.8685 41.7498 28.9954 41.7406 29.1261C41.7058 29.4942 41.7058 29.4942 41.5958 30.0465C43.1936 30.0465 44.7914 30.0465 46.4376 30.0465C46.4376 30.1559 46.4376 30.2653 46.4376 30.3779C44.7309 30.3779 43.0241 30.3779 41.2656 30.3779C41.5132 28.6381 41.5132 28.6381 41.7058 28.0582Z" fill="#061228"/>
<path d="M30.8116 28.3895C30.8842 28.3895 30.9568 28.3895 31.0317 28.3895C31.016 28.5806 30.9999 28.7716 30.9835 28.9626C30.9746 29.0689 30.9656 29.1753 30.9564 29.2849C30.9245 29.5779 30.8691 29.868 30.8116 30.157C32.4094 30.157 34.0072 30.157 35.6535 30.157C35.6898 30.0112 35.7261 29.8653 35.7635 29.7151C35.7635 29.9338 35.7635 30.1525 35.7635 30.3779C34.0204 30.3779 32.2773 30.3779 30.4814 30.3779C30.5904 29.7217 30.6993 29.0656 30.8116 28.3895Z" fill="#061227"/>
<path d="M16.1763 11.7093C16.2307 11.8733 16.2307 11.8733 16.2863 12.0407C16.0915 12.2362 15.8243 12.1923 15.5629 12.2168C14.1172 12.3543 12.9054 12.6704 11.9121 13.8077C11.4231 14.4766 11.2124 15.2224 11.0043 16.0174C10.9316 16.0174 10.859 16.0174 10.7842 16.0174C10.8427 14.8034 11.3431 13.8718 12.2147 13.0349C13.342 12.0906 14.7665 11.8878 16.1763 11.9302C16.1763 11.8573 16.1763 11.7844 16.1763 11.7093Z" fill="#FB251F"/>
<path d="M56.5616 21.2093C56.6342 21.2093 56.7069 21.2093 56.7817 21.2093C56.7336 21.583 56.6808 21.9463 56.5887 22.3118C56.3458 23.279 56.3055 24.2123 56.3003 25.2067C56.2988 25.3366 56.2973 25.4664 56.2957 25.6001C56.3001 26.4633 56.4242 27.2318 56.6717 28.0581C56.5627 28.0217 56.4538 27.9852 56.3415 27.9477C55.4202 26.0189 55.9125 23.1412 56.5616 21.2093Z" fill="#091830"/>
<path d="M100.799 16.2384C101.208 16.3705 101.386 16.6171 101.582 16.9931C102.159 18.4111 101.8 19.9652 101.507 21.4096C101.481 21.5401 101.456 21.6706 101.429 21.805C101.367 22.1221 101.303 22.439 101.239 22.7558C101.166 22.7558 101.094 22.7558 101.019 22.7558C101.062 22.1204 101.157 21.5191 101.301 20.8987C101.445 20.1931 101.499 19.5129 101.507 18.7929C101.511 18.6492 101.511 18.6492 101.515 18.5026C101.512 17.8038 101.341 17.2948 101.019 16.6803C100.945 16.533 100.872 16.3858 100.799 16.2384Z" fill="#0A182E"/>
<path d="M38.4045 14.4709C39.088 14.4628 39.7715 14.4567 40.455 14.4527C40.6876 14.4511 40.9202 14.4488 41.1528 14.4459C41.4869 14.4419 41.8209 14.44 42.155 14.4386C42.3113 14.436 42.3113 14.436 42.4708 14.4334C42.6161 14.4334 42.6161 14.4334 42.7644 14.4333C42.8497 14.4326 42.935 14.4318 43.0229 14.4311C43.3016 14.4808 43.3988 14.5873 43.5765 14.8023C43.4781 14.8017 43.3798 14.8011 43.2784 14.8004C41.9649 14.7958 40.6529 14.8247 39.3399 14.8576C39.1199 14.8629 38.9 14.8682 38.68 14.8735C38.148 14.8864 37.616 14.8995 37.084 14.9128C37.3041 14.6919 37.3041 14.6919 37.5663 14.6703C37.6659 14.6729 37.7654 14.6754 37.868 14.6781C38.0183 14.6811 38.0183 14.6811 38.1715 14.6841C38.2484 14.6867 38.3253 14.6892 38.4045 14.6919C38.4045 14.619 38.4045 14.5461 38.4045 14.4709Z" fill="#0D203C"/>
<path d="M84.0723 28.9418C84.1086 28.9418 84.1449 28.9418 84.1824 28.9418C84.1907 29.3797 84.1789 29.7292 84.0723 30.1569C85.6338 30.1569 87.1953 30.1569 88.8042 30.1569C88.8405 29.9382 88.8768 29.7195 88.9142 29.4942C88.9505 29.4942 88.9868 29.4942 89.0242 29.4942C89.0242 29.7858 89.0242 30.0774 89.0242 30.3779C88.7605 30.5103 88.6084 30.498 88.3145 30.4907C88.2132 30.4885 88.1118 30.4863 88.0074 30.484C87.8979 30.481 87.7883 30.478 87.6754 30.475C87.5633 30.4724 87.4513 30.4698 87.3358 30.4671C86.977 30.4586 86.6182 30.4493 86.2594 30.44C86.0165 30.4341 85.7737 30.4283 85.5308 30.4225C84.9346 30.4083 84.3384 30.3933 83.7422 30.3779C83.776 30.1592 83.8105 29.9406 83.8454 29.722C83.8645 29.6002 83.8837 29.4785 83.9034 29.3531C83.9623 29.0523 83.9623 29.0523 84.0723 28.9418Z" fill="#030C1F"/>
<path d="M97.6764 14.8023C97.7659 14.8129 97.8554 14.8234 97.9476 14.8343C98.1645 14.8599 98.3812 14.8863 98.598 14.9128C98.598 14.9857 98.598 15.0586 98.598 15.1337C96.4555 15.1337 94.3129 15.1337 92.1055 15.1337C92.1418 15.0608 92.1781 14.9879 92.2155 14.9128C92.5136 14.8674 92.5136 14.8674 92.9097 14.8429C93.1252 14.829 93.1252 14.829 93.345 14.8149C93.4205 14.8105 93.496 14.8062 93.5738 14.8018C93.7999 14.7888 94.0259 14.7744 94.2519 14.7596C95.4107 14.6879 96.5237 14.6599 97.6764 14.8023Z" fill="#0A1A33"/>
<path d="M67.9169 14.6712C68.1306 14.6691 68.1306 14.6691 68.3487 14.6671C68.5526 14.6667 68.5526 14.6667 68.7607 14.6664C68.8829 14.666 69.005 14.6655 69.1309 14.665C69.4369 14.6919 69.4369 14.6919 69.767 14.9128C69.6717 14.9156 69.5764 14.9183 69.4783 14.9212C69.1169 14.9318 68.7555 14.9428 68.3941 14.9539C68.2392 14.9586 68.0843 14.9633 67.9294 14.9677C66.5387 15.0081 65.1532 15.0489 63.783 15.3102C63.4984 15.3541 63.2317 15.3625 62.9443 15.3547C62.9807 15.2818 63.017 15.2088 63.0544 15.1337C63.372 15.0435 63.372 15.0435 63.7903 14.9611C63.9246 14.9336 64.059 14.9062 64.1974 14.8779C65.4241 14.6736 66.6767 14.6718 67.9169 14.6712Z" fill="#0D1F39"/>
<path d="M31.1421 16.1279C31.1784 16.1279 31.2147 16.1279 31.2522 16.1279C31.2808 16.9387 31.1738 17.6772 31.0192 18.4719C30.9833 18.6606 30.9833 18.6606 30.9467 18.8532C30.8963 19.1173 30.8454 19.3813 30.7941 19.6452C30.7154 20.051 30.6387 20.4571 30.5622 20.8633C30.5129 21.1202 30.4635 21.3771 30.4139 21.6339C30.391 21.7559 30.3681 21.8778 30.3444 22.0035C30.3114 22.1712 30.3114 22.1712 30.2777 22.3422C30.2587 22.441 30.2396 22.5398 30.22 22.6416C30.1974 22.7158 30.1749 22.7899 30.1517 22.8663C30.0428 22.921 30.0428 22.921 29.9316 22.9768C29.9932 22.1373 30.1074 21.3211 30.2652 20.4948C30.2868 20.3796 30.3083 20.2644 30.3306 20.1457C30.3758 19.9047 30.4213 19.6637 30.4671 19.4228C30.5372 19.0533 30.6066 18.6836 30.6757 18.3139C30.7199 18.0789 30.7642 17.8439 30.8085 17.6089C30.8293 17.4984 30.85 17.3879 30.8714 17.2741C30.8909 17.1719 30.9104 17.0697 30.9304 16.9644C30.9474 16.8746 30.9644 16.7848 30.982 16.6923C31.0321 16.4593 31.0321 16.4593 31.1421 16.1279Z" fill="#0A172D"/>
<path d="M17.8271 10.936C17.8998 10.936 17.9724 10.936 18.0472 10.936C18.2046 11.0968 18.2046 11.0968 18.3881 11.3201C18.8877 11.9102 19.4369 12.4436 19.99 12.9827C20.0659 13.0577 20.1419 13.1327 20.2201 13.2101C20.289 13.2773 20.3579 13.3446 20.4288 13.4139C20.5782 13.5872 20.5782 13.5872 20.5782 13.8081C20.6508 13.8081 20.7235 13.8081 20.7983 13.8081C21.0184 14.1395 21.0184 14.1395 21.0008 14.3523C20.8866 14.6353 20.7336 14.8176 20.5301 15.044C20.4621 15.1207 20.3942 15.1975 20.3242 15.2765C20.138 15.4651 20.138 15.4651 19.918 15.5756C19.9582 15.2117 20.0369 15.1256 20.3169 14.8714C20.609 14.6061 20.609 14.6061 20.6057 14.2569C20.4419 13.854 20.2469 13.6879 19.9055 13.4314C19.6979 13.2558 19.6979 13.2558 19.4989 13.0051C19.1418 12.5585 18.7271 12.1742 18.3142 11.7801C18.2516 11.7188 18.1891 11.6576 18.1246 11.5945C18.0675 11.5396 18.0103 11.4847 17.9515 11.4281C17.8271 11.2674 17.8271 11.2674 17.8271 10.936Z" fill="#FB2721"/>
<path d="M23.6595 29.0523C23.7322 29.0523 23.8048 29.0523 23.8796 29.0523C23.8433 29.4168 23.807 29.7814 23.7696 30.157C25.3674 30.157 26.9652 30.157 28.6115 30.157C28.6115 30.2299 28.6115 30.3028 28.6115 30.3779C26.9047 30.3779 25.1979 30.3779 23.4395 30.3779C23.5121 29.9404 23.5847 29.503 23.6595 29.0523Z" fill="#081227"/>
<path d="M25.9699 17.8953C25.9165 18.9996 25.6953 20.0771 25.4875 21.1601C25.4263 21.4803 25.3663 21.8008 25.3064 22.1213C25.2676 22.3257 25.2287 22.5302 25.1897 22.7346C25.172 22.83 25.1542 22.9254 25.1359 23.0237C25.1186 23.1126 25.1014 23.2016 25.0836 23.2932C25.0688 23.371 25.054 23.4488 25.0387 23.5289C24.9742 23.77 24.8774 23.9726 24.7595 24.1918C24.7204 23.4607 24.8204 22.7894 24.9722 22.0764C25.0476 21.7112 25.0892 21.384 25.0861 21.0099C25.0896 20.657 25.0896 20.657 25.3097 20.3256C25.36 20.023 25.36 20.023 25.3784 19.6973C25.3867 19.5875 25.3949 19.4777 25.4034 19.3646C25.4088 19.2807 25.4142 19.1969 25.4197 19.1104C25.4923 19.1104 25.565 19.1104 25.6398 19.1104C25.6398 18.7459 25.6398 18.3814 25.6398 18.0058C25.8599 17.8953 25.8599 17.8953 25.9699 17.8953Z" fill="#1B1F36"/>
<path d="M36.8641 23.4186C36.9004 23.4186 36.9367 23.4186 36.9741 23.4186C36.9977 24.1812 36.9135 24.8706 36.7652 25.6175C36.733 25.7842 36.733 25.7842 36.7002 25.9542C36.655 26.1872 36.6092 26.42 36.5631 26.6527C36.4924 27.0104 36.4237 27.3685 36.3552 27.7267C36.3109 27.9534 36.2664 28.1801 36.2219 28.4068C36.2014 28.5142 36.1808 28.6217 36.1597 28.7324C36.1399 28.8309 36.1201 28.9294 36.0997 29.0309C36.074 29.1615 36.074 29.1615 36.0478 29.2947C36.0267 29.3605 36.0055 29.4263 35.9838 29.4942C35.8748 29.5488 35.8748 29.5488 35.7637 29.6046C35.8135 28.4607 36.0131 27.3782 36.252 26.2631C36.2868 26.0971 36.3216 25.9311 36.3562 25.7651C36.5203 24.9818 36.689 24.1995 36.8641 23.4186Z" fill="#0A1930"/>
<path d="M61.0733 23.3082C61.1096 23.3082 61.146 23.3082 61.1834 23.3082C61.1875 23.4016 61.1916 23.495 61.1958 23.5912C61.2297 24.8137 61.2297 24.8137 61.8256 25.8247C62.4434 26.3135 62.8747 26.4156 63.661 26.412C63.8674 26.4114 63.8674 26.4114 64.078 26.4109C64.2213 26.41 64.3645 26.409 64.5122 26.4081C64.6571 26.4076 64.8021 26.4071 64.9515 26.4066C65.3094 26.4053 65.6673 26.4035 66.0252 26.4012C65.5133 26.9151 64.427 26.7664 63.7304 26.7676C62.9493 26.7553 62.2869 26.6585 61.6678 26.1449C61.1913 25.6344 60.9593 25.0594 60.968 24.3684C60.9945 24.0133 61.0288 23.6613 61.0733 23.3082Z" fill="#0B1C35"/>
<path d="M52.8204 32.6977C52.8567 32.6977 52.893 32.6977 52.9304 32.6977C52.9659 33.4742 52.8325 34.1772 52.6691 34.9346C52.6325 35.1127 52.6325 35.1127 52.5952 35.2945C52.4885 35.7998 52.3921 36.2088 52.1601 36.6744C50.7802 36.6744 49.4003 36.6744 47.9785 36.6744C47.9785 36.638 47.9785 36.6015 47.9785 36.564C49.3221 36.564 50.6658 36.564 52.0501 36.564C52.1227 36.0901 52.1954 35.6162 52.2702 35.1279C52.3432 34.7335 52.4177 34.3404 52.4971 33.9473C52.5258 33.8018 52.5258 33.8018 52.555 33.6533C52.5735 33.5608 52.592 33.4683 52.6111 33.373C52.6275 33.2907 52.644 33.2085 52.6609 33.1237C52.7104 32.9186 52.7104 32.9186 52.8204 32.6977Z" fill="#071123"/>
<path d="M78.2404 29.7151C78.2767 29.7151 78.313 29.7151 78.3504 29.7151C78.3504 29.9703 78.3504 30.2254 78.3504 30.4883C77.7043 30.4911 77.0582 30.4931 76.412 30.4944C76.1924 30.495 75.9727 30.4957 75.7531 30.4967C75.4367 30.498 75.1204 30.4986 74.8041 30.4991C74.6576 30.5 74.6576 30.5 74.5081 30.5009C74.0152 30.5009 73.5536 30.4786 73.0684 30.3779C73.1047 30.2321 73.141 30.0863 73.1784 29.936C73.2147 30.0089 73.251 30.0818 73.2884 30.1569C74.9226 30.1569 76.5567 30.1569 78.2404 30.1569C78.2404 30.0111 78.2404 29.8653 78.2404 29.7151Z" fill="#051024"/>
<path d="M56.3418 7.95349C56.7132 8.01394 56.9011 8.07002 57.2221 8.28489C57.2221 8.35779 57.2221 8.4307 57.2221 8.50582C57.2948 8.50582 57.3674 8.50582 57.4422 8.50582C57.8796 9.47996 58.0005 10.173 57.6675 11.2044C57.4371 11.7723 57.1663 12.3549 56.5954 12.6206C56.5117 12.648 56.428 12.6753 56.3418 12.7035C56.4056 12.6232 56.4056 12.6232 56.4708 12.5412C56.6538 12.3047 56.829 12.0638 57.0021 11.8198C57.0723 11.7241 57.0723 11.7241 57.1439 11.6265C57.4548 11.1236 57.4874 10.62 57.4972 10.0385C57.5003 9.92564 57.5003 9.92564 57.5034 9.81047C57.4965 9.25232 57.3512 8.93378 57.0021 8.50582C56.7865 8.35188 56.5672 8.20283 56.3418 8.06396C56.3418 8.0275 56.3418 7.99105 56.3418 7.95349Z" fill="#0A182D"/>
<path d="M66.3561 29.3837C66.3925 29.3837 66.4288 29.3837 66.4662 29.3837C66.4662 29.6389 66.4662 29.8941 66.4662 30.157C67.9914 30.157 69.5166 30.157 71.088 30.157C71.088 30.2299 71.088 30.3028 71.088 30.3779C69.4902 30.3779 67.8923 30.3779 66.2461 30.3779C66.2461 29.4942 66.2461 29.4942 66.3561 29.3837Z" fill="#041125"/>
<path d="M59.8634 16.6802C59.9724 16.7167 60.0813 16.7531 60.1936 16.7907C60.1036 16.8552 60.1036 16.8552 60.0117 16.921C58.5113 18.0384 57.6863 19.4384 56.8923 21.0988C56.7538 20.7755 56.7832 20.6544 56.909 20.3182C57.3448 19.4616 57.7921 18.6199 58.4329 17.8954C58.5055 17.8954 58.5781 17.8954 58.653 17.8954C58.6923 17.799 58.6923 17.799 58.7325 17.7007C58.9021 17.4024 59.0922 17.2431 59.3614 17.0323C59.4475 16.9633 59.5336 16.8942 59.6223 16.8231C59.7417 16.7524 59.7417 16.7524 59.8634 16.6802Z" fill="#0A1930"/>
<path d="M65.8057 29.3837C65.9147 29.4202 66.0236 29.4566 66.1359 29.4942C65.3597 30.3934 63.6231 30.8641 62.4799 30.9483C61.9735 30.9659 61.4698 30.9543 60.9639 30.9302C61.0002 30.8573 61.0365 30.7844 61.0739 30.7093C61.4097 30.6703 61.7411 30.6422 62.078 30.6196C63.232 30.5241 64.2467 30.2799 65.2873 29.7527C65.5857 29.6047 65.5857 29.6047 65.8057 29.6047C65.8057 29.5318 65.8057 29.4588 65.8057 29.3837Z" fill="#0A1931"/>
<path d="M29.8217 23.0872C29.8581 23.0872 29.8944 23.0872 29.9318 23.0872C29.9485 23.7758 29.8981 24.3984 29.7633 25.0726C29.7462 25.1619 29.7291 25.2512 29.7115 25.3432C29.6574 25.6247 29.602 25.9059 29.5466 26.1871C29.5094 26.3795 29.4723 26.5719 29.4353 26.7643C29.345 27.2326 29.2536 27.7007 29.1615 28.1686C29.0889 28.1686 29.0162 28.1686 28.9414 28.1686C29.0031 27.1594 29.1848 26.1821 29.3816 25.193C29.412 25.0373 29.4424 24.8816 29.4727 24.7259C29.7096 23.5157 29.7096 23.5157 29.8217 23.0872Z" fill="#0B1930"/>
<path d="M80.2212 19.4418C80.2575 19.4418 80.2938 19.4418 80.3312 19.4418C80.3491 20.0887 80.2885 20.6725 80.1627 21.3059C80.1456 21.3954 80.1285 21.4849 80.1109 21.5771C80.0567 21.8597 80.0014 22.142 79.9461 22.4244C79.9089 22.6173 79.8718 22.8101 79.8347 23.003C79.7443 23.4731 79.6529 23.943 79.5609 24.4128C79.4883 24.4128 79.4156 24.4128 79.3408 24.4128C79.3995 23.4639 79.5571 22.5398 79.7352 21.6079C79.7815 21.3652 79.8269 21.1223 79.8721 20.8794C80.0954 19.6944 80.0954 19.6944 80.2212 19.4418Z" fill="#08152A"/>
<path d="M15.2955 16.7907C15.2955 16.8636 15.2955 16.9365 15.2955 17.0116C15.2237 17.0384 15.1519 17.0652 15.078 17.0928C13.7724 17.5953 12.7348 18.3686 12.0153 19.5869C11.972 19.6484 11.9287 19.7099 11.8841 19.7733C11.8115 19.7733 11.7389 19.7733 11.6641 19.7733C11.8023 18.9229 12.6482 18.1638 13.2838 17.6308C13.8895 17.2029 14.5452 16.7907 15.2955 16.7907Z" fill="#FA2821"/>
<path d="M24.6498 24.3023C24.6861 24.3023 24.7224 24.3023 24.7598 24.3023C24.7815 24.9641 24.7075 25.5433 24.5603 26.1871C24.52 26.3709 24.4797 26.5547 24.4396 26.7386C24.4194 26.8297 24.3992 26.9208 24.3785 27.0146C24.2894 27.4236 24.2078 27.8339 24.1271 28.2445C24.1004 28.3794 24.0737 28.5142 24.0462 28.6532C24.0275 28.7484 24.0088 28.8437 23.9895 28.9418C23.9532 28.9418 23.9169 28.9418 23.8795 28.9418C23.8329 28.0594 23.9883 27.23 24.1555 26.3685C24.2032 26.1227 24.2493 25.8766 24.2953 25.6305C24.5233 24.4292 24.5233 24.4292 24.6498 24.3023Z" fill="#131D35"/>
<path d="M50.2892 20.3256C50.3255 20.3256 50.3618 20.3256 50.3992 20.3256C50.3628 21.4635 50.1716 22.5142 49.9067 23.6169C49.8093 24.0284 49.7192 24.4415 49.6289 24.8546C49.5926 24.8546 49.5563 24.8546 49.5189 24.8546C49.4735 23.986 49.625 23.1752 49.7949 22.3284C49.8426 22.0906 49.8888 21.8526 49.9348 21.6145C50.1626 20.4526 50.1626 20.4526 50.2892 20.3256Z" fill="#091931"/>
<path d="M2.86138 28.5C2.93401 28.5 3.00663 28.5 3.08146 28.5C3.08751 28.6518 3.09172 28.8037 3.09522 28.9557C3.09777 29.0403 3.10033 29.1248 3.10296 29.212C3.08146 29.4942 3.08146 29.4942 2.86138 30.157C4.38657 30.157 5.91176 30.157 7.48317 30.157C7.48317 30.1934 7.48317 30.2299 7.48317 30.2674C5.84904 30.3039 4.2149 30.3403 2.53125 30.3779C2.64019 29.7582 2.74913 29.1385 2.86138 28.5Z" fill="#FD2A1D"/>
<path d="M53.701 28.1686C53.7373 28.1686 53.7736 28.1686 53.811 28.1686C53.8644 29.0478 53.7244 29.8609 53.541 30.7192C53.494 30.9399 53.4493 31.161 53.4048 31.3822C53.237 32.1856 53.237 32.1856 53.1507 32.4767C53.0418 32.5314 53.0418 32.5314 52.9307 32.5872C52.9776 31.5379 53.2047 30.5339 53.429 29.512C53.526 29.0654 53.6131 28.617 53.701 28.1686Z" fill="#0A182F"/>
<path d="M11.5547 19.8837C11.5911 19.9566 11.6274 20.0295 11.6648 20.1047C11.6285 20.214 11.5922 20.3234 11.5547 20.4361C11.9808 21.2796 12.6086 21.9893 13.2596 22.6637C13.6455 23.0662 13.6455 23.0662 13.6455 23.3081C12.6912 22.9102 11.9638 21.7395 11.4447 20.8779C11.2865 20.4775 11.2865 20.4775 11.2246 20.2151C11.3336 20.1058 11.4425 19.9964 11.5547 19.8837Z" fill="#FB2720"/>
<path d="M74.9392 20.657C74.9755 20.657 75.0118 20.657 75.0492 20.657C75.0015 21.4075 74.9033 22.1457 74.781 22.887C74.7675 22.9696 74.7541 23.0521 74.7402 23.1372C74.6484 23.6808 74.528 24.2107 74.389 24.7442C74.3526 24.7442 74.3163 24.7442 74.2789 24.7442C74.2355 23.865 74.3652 23.0617 74.5471 22.2035C74.5725 22.0786 74.5978 21.9537 74.6239 21.8251C74.8115 20.9133 74.8115 20.9133 74.9392 20.657Z" fill="#09182E"/>
<path d="M37.7445 18.8895C37.8172 18.8895 37.8898 18.8895 37.9646 18.8895C37.809 19.9633 37.6188 21.0277 37.4144 22.093C37.3418 22.093 37.2692 22.093 37.1943 22.093C37.2366 21.3209 37.3281 20.5672 37.4694 19.8078C37.4838 19.7297 37.4982 19.6516 37.513 19.5711C37.6202 19.0143 37.6202 19.0143 37.7445 18.8895Z" fill="#0B1C35"/>
<path d="M36.9742 14.9128C36.9742 14.9492 36.9742 14.9857 36.9742 15.0233C36.8837 15.0388 36.7933 15.0544 36.7001 15.0705C36.3626 15.1288 36.0253 15.1878 35.688 15.2471C35.4709 15.2851 35.2538 15.3225 35.0366 15.3598C34.8308 15.3961 34.8308 15.3961 34.6207 15.4332C34.4314 15.4662 34.4314 15.4662 34.2383 15.4998C33.9194 15.5698 33.6408 15.6647 33.3428 15.7965C33.3428 15.6507 33.3428 15.5049 33.3428 15.3546C34.5626 15.0788 35.7174 14.8299 36.9742 14.9128Z" fill="#0A172E"/>
<path d="M26.4105 15.0233C27.1731 15.0233 27.9357 15.0233 28.7214 15.0233C28.7214 15.0962 28.7214 15.1691 28.7214 15.2442C27.9951 15.2806 27.2689 15.3171 26.5206 15.3546C26.3753 16.1566 26.23 16.9586 26.0804 17.7849C26.0441 17.7849 26.0078 17.7849 25.9703 17.7849C25.9334 17.1795 26.0091 16.6245 26.1285 16.0312C26.1433 15.9576 26.1581 15.884 26.1734 15.8081C26.2848 15.2757 26.2848 15.2757 26.4105 15.0233Z" fill="#1A2038"/>
<path d="M18.4874 16.6802C18.5963 16.7167 18.7053 16.7531 18.8175 16.7907C18.3553 17.321 17.8794 17.6959 17.2769 18.0472C17.213 18.0854 17.1491 18.1236 17.0832 18.1629C16.6248 18.4212 16.2505 18.5121 15.7363 18.5581C15.8816 18.5217 16.0268 18.4852 16.1765 18.4477C16.1765 18.3748 16.1765 18.3019 16.1765 18.2267C16.3023 18.1704 16.3023 18.1704 16.4305 18.1128C17.2333 17.7345 17.859 17.3079 18.4874 16.6802Z" fill="#FB2B23"/>
<path d="M100.689 23.9709C100.725 23.9709 100.762 23.9709 100.799 23.9709C100.822 24.7191 100.744 25.3933 100.593 26.125C100.573 26.225 100.554 26.3249 100.535 26.4279C100.515 26.5228 100.496 26.6176 100.477 26.7153C100.459 26.801 100.442 26.8866 100.424 26.9749C100.403 27.0407 100.381 27.1066 100.359 27.1744C100.286 27.2109 100.214 27.2473 100.139 27.2849C100.178 26.1358 100.404 25.0801 100.689 23.9709Z" fill="#08152B"/>
<path d="M85.2833 23.1977C85.2302 24.3599 84.9721 25.4874 84.7331 26.6221C84.6967 26.6221 84.6604 26.6221 84.623 26.6221C84.5817 25.8347 84.7101 25.1276 84.8809 24.3632C84.9477 24.0002 84.9667 23.676 84.9531 23.3082C85.1732 23.1977 85.1732 23.1977 85.2833 23.1977Z" fill="#09182F"/>
<path d="M94.527 29.3837C94.5997 29.3837 94.6723 29.3837 94.7471 29.3837C94.7471 29.6389 94.7471 29.8941 94.7471 30.157C96.1634 30.157 97.5796 30.157 99.0388 30.157C99.0388 30.1934 99.0388 30.2299 99.0388 30.2674C98.9066 30.2669 98.7744 30.2663 98.6382 30.2657C98.1489 30.2637 97.6596 30.2624 97.1703 30.2614C96.9583 30.2608 96.7463 30.2601 96.5343 30.2591C96.23 30.2578 95.9257 30.2571 95.6214 30.2567C95.5263 30.2561 95.4312 30.2555 95.3331 30.2549C94.8602 30.2405 94.8602 30.2405 94.417 30.3779C94.4533 30.0498 94.4896 29.7218 94.527 29.3837Z" fill="#0A1E3A"/>
<path d="M67.2362 23.4186C67.3088 23.4186 67.3814 23.4186 67.4563 23.4186C67.4131 24.0672 67.3257 24.7055 67.2087 25.3448C67.1854 25.4745 67.1621 25.6043 67.1382 25.7379C67.0161 26.0697 67.0161 26.0697 66.7496 26.2877C66.4659 26.4011 66.4659 26.4011 66.1357 26.2907C66.2227 26.2498 66.3097 26.2089 66.3992 26.1668C66.7684 25.8996 66.7891 25.7326 66.8717 25.2896C66.8966 25.1626 66.9216 25.0355 66.9473 24.9047C66.97 24.7788 66.9927 24.6529 67.0161 24.5232C67.0594 24.3092 67.1029 24.0951 67.1468 23.8812C67.1768 23.727 67.2067 23.5728 67.2362 23.4186Z" fill="#0B1B33"/>
<path d="M80.0009 15.0232C80.0009 15.0597 80.0009 15.0961 80.0009 15.1337C79.8826 15.1529 79.8826 15.1529 79.7619 15.1725C79.4059 15.2305 79.05 15.2891 78.6941 15.3477C78.57 15.3679 78.4459 15.388 78.318 15.4088C78.1995 15.4284 78.0811 15.4479 77.9591 15.4681C77.8496 15.4861 77.7401 15.504 77.6273 15.5225C77.3602 15.5632 77.3602 15.5632 77.1397 15.686C76.9197 15.6904 76.6995 15.6908 76.4795 15.686C76.5158 15.6131 76.5521 15.5402 76.5895 15.4651C76.8725 15.3736 77.1467 15.2978 77.4355 15.2304C77.5606 15.2007 77.5606 15.2007 77.6882 15.1705C78.4672 14.9989 79.2036 14.9776 80.0009 15.0232Z" fill="#091931"/>
<path d="M90.1254 23.1977C90.1617 23.1977 90.198 23.1977 90.2355 23.1977C90.2582 23.9459 90.1807 24.6201 90.0291 25.3518C90.01 25.4517 89.9908 25.5517 89.9711 25.6547C89.9519 25.7495 89.9328 25.8444 89.9131 25.9421C89.8958 26.0277 89.8785 26.1134 89.8607 26.2016C89.8391 26.2675 89.8175 26.3333 89.7953 26.4012C89.7227 26.4376 89.65 26.4741 89.5752 26.5116C89.6196 25.3737 89.863 24.3005 90.1254 23.1977Z" fill="#09172D"/>
<path d="M84.293 18.8895C84.8331 18.916 85.1752 19.0816 85.5671 19.4401C85.8661 19.8657 85.8771 20.3709 85.8336 20.8779C85.7231 21.1359 85.7231 21.1359 85.6135 21.3198C85.6027 21.2225 85.5919 21.1252 85.5808 21.025C85.5644 20.8967 85.5479 20.7684 85.5309 20.6363C85.508 20.4459 85.508 20.4459 85.4845 20.2518C85.3821 19.8381 85.2495 19.6332 84.9532 19.3314C84.6097 19.1825 84.6097 19.1825 84.293 19.1105C84.293 19.0375 84.293 18.9646 84.293 18.8895Z" fill="#08152A"/>
<path d="M10.2336 18.4477C10.2699 18.4477 10.3062 18.4477 10.3436 18.4477C10.3675 19.1382 10.2835 19.7554 10.1373 20.4292C10.1086 20.5719 10.1086 20.5719 10.0793 20.7176C10.0601 20.808 10.041 20.8983 10.0213 20.9914C10.004 21.0731 9.98668 21.1549 9.96886 21.2391C9.90347 21.4303 9.90347 21.4303 9.68339 21.5407C9.64955 20.8139 9.77095 20.1973 9.95849 19.4971C9.98474 19.3957 10.011 19.2943 10.038 19.1899C10.1023 18.9422 10.1675 18.6949 10.2336 18.4477Z" fill="#FB231D"/>
<path d="M56.6719 28.2791C56.9344 28.5268 57.1322 28.7914 57.339 29.0868C57.7655 29.6474 58.2609 29.94 58.8727 30.2674C58.9817 30.3403 59.0906 30.4132 59.2029 30.4884C58.4751 30.4579 58.1001 30.1771 57.5522 29.7151C57.4867 29.664 57.4211 29.6129 57.3536 29.5602C56.8685 29.1769 56.7835 28.8713 56.6719 28.2791Z" fill="#09162A"/>
<path d="M42.5869 23.75C42.6233 23.75 42.6596 23.75 42.697 23.75C42.6367 24.4158 42.5395 25.0726 42.4288 25.7315C42.4153 25.8152 42.4019 25.8989 42.388 25.9852C42.2825 26.5963 42.2825 26.5963 42.0367 26.843C42.0014 26.1812 42.0688 25.5726 42.188 24.9237C42.2019 24.8462 42.2158 24.7686 42.2301 24.6887C42.3025 24.313 42.3726 24.0727 42.5869 23.75Z" fill="#091830"/>
<path d="M95.0771 19C95.634 19.0493 95.8951 19.2867 96.2876 19.6628C96.3995 19.9998 96.4159 20.2418 96.4183 20.5948C96.4199 20.6995 96.4214 20.8042 96.423 20.912C96.3972 21.2143 96.3313 21.3931 96.1776 21.6512C96.1733 21.4814 96.1733 21.4814 96.169 21.3081C96.1628 21.1578 96.1565 21.0075 96.1501 20.8572C96.1485 20.7828 96.1469 20.7084 96.1453 20.6317C96.1194 20.0982 96.0058 19.8161 95.6274 19.4419C95.3392 19.2946 95.3392 19.2946 95.0771 19.2209C95.0771 19.148 95.0771 19.0751 95.0771 19Z" fill="#0A182E"/>
<path d="M83.9624 18.8895C82.9679 18.9936 81.9898 19.0123 80.9912 19C81.6821 18.5376 83.2624 18.4211 83.9624 18.8895Z" fill="#091830"/>
<path d="M75.8193 15.686C76.0009 15.686 76.1825 15.686 76.3696 15.686C76.2932 15.793 76.2932 15.793 76.2152 15.9022C75.9921 16.3289 75.935 16.725 75.8675 17.198C75.7379 18.0875 75.7379 18.0875 75.4892 18.3372C75.4412 17.4215 75.6235 16.5742 75.8193 15.686Z" fill="#08152A"/>
<path d="M89.4646 26.6221C89.5009 26.6221 89.5372 26.6221 89.5746 26.6221C89.6254 27.5729 89.4347 28.4574 89.2445 29.3837C89.1719 29.3837 89.0992 29.3837 89.0244 29.3837C89.0739 28.4334 89.2292 27.5434 89.4646 26.6221Z" fill="#0A192F"/>
<path d="M8.80345 25.5175C8.83977 25.5175 8.87608 25.5175 8.91349 25.5175C8.94739 26.164 8.88542 26.7605 8.76219 27.3954C8.74831 27.4695 8.73444 27.5436 8.72014 27.62C8.68233 27.8046 8.63368 27.987 8.58337 28.1686C8.51074 28.2051 8.43811 28.2415 8.36328 28.2791C8.41891 27.3356 8.59078 26.4372 8.80345 25.5175Z" fill="#FA221C"/>
<path d="M62.8347 15.3547C62.7247 15.5756 62.7247 15.5756 62.4839 15.6744C62.3818 15.7079 62.2797 15.7413 62.1744 15.7758C61.6522 15.9569 61.1924 16.1794 60.7194 16.4645C60.5238 16.5698 60.5238 16.5698 60.3037 16.5698C60.3037 16.4969 60.3037 16.424 60.3037 16.3488C60.5718 16.2035 60.84 16.0586 61.1084 15.9139C61.1844 15.8727 61.2603 15.8314 61.3386 15.789C61.412 15.7494 61.4854 15.7099 61.561 15.6692C61.6622 15.6146 61.6622 15.6146 61.7654 15.5588C62.1351 15.3756 62.4289 15.3436 62.8347 15.3547Z" fill="#091930"/>
<path d="M79.6709 21.9825C79.891 22.2035 79.891 22.2035 79.8962 22.4279C79.816 23.0973 79.7047 23.7541 79.5609 24.4128C79.4883 24.4128 79.4156 24.4128 79.3408 24.4128C79.401 23.5907 79.5105 22.791 79.6709 21.9825Z" fill="#0A1B33"/>
<path d="M84.0723 28.9418C84.1086 28.9418 84.1449 28.9418 84.1824 28.9418C84.1907 29.3797 84.1789 29.7292 84.0723 30.1569C84.6533 30.1569 85.2344 30.1569 85.833 30.1569C85.833 30.1934 85.833 30.2299 85.833 30.2674C84.798 30.3221 84.798 30.3221 83.7422 30.3779C83.9485 29.0661 83.9485 29.0661 84.0723 28.9418Z" fill="#081930"/>
<path d="M26.9609 11.8198C27.181 12.0407 27.181 12.0407 27.3186 12.2961C27.7356 12.939 28.2213 13.2072 28.9417 13.3663C28.9417 13.4027 28.9417 13.4392 28.9417 13.4767C28.3109 13.5274 28.0005 13.4388 27.5112 13.0349C27.1329 12.6449 27.0111 12.361 26.9609 11.8198Z" fill="#101932"/>
<path d="M19.2575 21.5407C19.2212 21.6501 19.1849 21.7594 19.1475 21.8721C18.4758 22.1972 17.7888 22.2391 17.0566 22.2035C17.4009 21.9731 17.6476 21.9038 18.047 21.81C19.1811 21.5407 19.1811 21.5407 19.2575 21.5407Z" fill="#FA221C"/>
<path d="M16.0665 16.5698C15.9939 17.1166 15.9212 17.6634 15.8464 18.2267C15.7738 18.2267 15.7012 18.2267 15.6263 18.2267C15.6179 17.7279 15.6151 17.2778 15.7364 16.7907C15.6274 16.7907 15.5185 16.7907 15.4062 16.7907C15.4062 16.7178 15.4062 16.6449 15.4062 16.5698C15.8189 16.4455 15.8189 16.4455 16.0665 16.5698Z" fill="#F82D25"/>
<path d="M10.674 16.1279C10.7103 16.1279 10.7466 16.1279 10.784 16.1279C10.807 16.8434 10.7841 17.5391 10.564 18.2268C10.4913 18.2632 10.4187 18.2997 10.3439 18.3372C10.3116 17.6237 10.4138 16.9358 10.564 16.2384C10.6003 16.2019 10.6366 16.1655 10.674 16.1279Z" fill="#FB251E"/>
<path d="M2.86138 28.5C2.93401 28.5 3.00663 28.5 3.08146 28.5C3.1054 29.1008 3.09294 29.5904 2.86138 30.157C2.93401 30.1934 3.00663 30.2299 3.08146 30.2674C2.89989 30.3039 2.71832 30.3403 2.53125 30.3779C2.64019 29.7582 2.74913 29.1385 2.86138 28.5Z" fill="#F22822"/>
<path d="M18.8174 7.40117C19.5546 7.33389 20.2407 7.527 20.9082 7.84303C20.9445 7.95239 20.9808 8.06175 21.0182 8.17442C20.9608 8.15434 20.9033 8.13427 20.8441 8.11358C20.1756 7.88439 19.5004 7.69234 18.8174 7.51163C18.8174 7.47518 18.8174 7.43872 18.8174 7.40117Z" fill="#F8201C"/>
<path d="M31.5818 23.75C31.6907 23.75 31.7997 23.75 31.9119 23.75C31.8515 24.4996 31.7421 25.2247 31.5818 25.9593C31.5455 25.9593 31.5092 25.9593 31.4717 25.9593C31.4575 25.2145 31.494 24.4897 31.5818 23.75Z" fill="#0A1930"/>
<path d="M9.57329 21.6512C9.60961 21.6512 9.64592 21.6512 9.68334 21.6512C9.70485 22.3314 9.69664 22.9917 9.46325 23.6396C9.39062 23.676 9.31799 23.7125 9.24316 23.75C9.25583 23.5244 9.26986 23.2989 9.28443 23.0734C9.29209 22.9478 9.29975 22.8222 9.30764 22.6928C9.35259 22.3191 9.44231 22.0029 9.57329 21.6512Z" fill="#FC231D"/>
<path d="M32.2425 21.4302C32.2788 21.4302 32.3152 21.4302 32.3526 21.4302C32.299 22.1867 32.2029 22.9028 32.0224 23.6395C31.9861 23.6395 31.9498 23.6395 31.9124 23.6395C31.889 22.9127 31.9418 22.245 32.1325 21.5407C32.1688 21.5042 32.2051 21.4678 32.2425 21.4302Z" fill="#09172E"/>
<path d="M16.6169 10.0523C16.8012 10.0839 16.9848 10.1206 17.1671 10.1628C17.1671 10.2357 17.1671 10.3086 17.1671 10.3837C17.2375 10.4156 17.3078 10.4475 17.3803 10.4804C17.6073 10.6046 17.6073 10.6046 17.7173 10.8256C17.6515 10.8073 17.5857 10.7891 17.5179 10.7703C17.2647 10.7028 17.2647 10.7028 16.947 10.7151C16.8744 10.788 16.8018 10.8609 16.7269 10.936C16.641 10.6774 16.56 10.4297 16.5068 10.1628C16.5432 10.1263 16.5795 10.0899 16.6169 10.0523Z" fill="#FA2F29"/>
<path d="M78.6808 27.3953C78.7171 27.3953 78.7534 27.3953 78.7908 27.3953C78.8175 28.1068 78.8196 28.8172 78.5707 29.4942C78.4981 29.5306 78.4255 29.5671 78.3507 29.6046C78.2973 28.8375 78.4945 28.1355 78.6808 27.3953Z" fill="#08162D"/>
<path d="M46.9878 26.6221C47.0241 26.6221 47.0604 26.6221 47.0979 26.6221C47.1194 27.3023 47.1112 27.9626 46.8778 28.6104C46.8051 28.6469 46.7325 28.6833 46.6577 28.7209C46.6076 27.9836 46.7933 27.3297 46.9878 26.6221Z" fill="#08172E"/>
<path d="M31.3626 26.0698C31.399 26.0698 31.4353 26.0698 31.4727 26.0698C31.526 26.8369 31.3288 27.5388 31.1426 28.2791C31.1062 28.2791 31.0699 28.2791 31.0325 28.2791C31.0092 27.5522 31.0619 26.8845 31.2526 26.1802C31.2889 26.1438 31.3252 26.1073 31.3626 26.0698Z" fill="#09172D"/>
<path d="M95.4069 24.7442C95.4795 24.7442 95.5521 24.7442 95.6269 24.7442C95.5766 25.4678 95.4938 26.1444 95.2968 26.843C95.2605 26.843 95.2242 26.843 95.1868 26.843C95.1632 26.1091 95.2404 25.4587 95.4069 24.7442Z" fill="#0A1A31"/>
<path d="M98.708 15.1337C99.371 15.0461 99.9301 15.3165 100.469 15.686C100.611 15.9259 100.611 15.9259 100.689 16.1279C100.601 16.0826 100.513 16.0373 100.423 15.9907C100.307 15.9311 100.19 15.8716 100.07 15.8103C99.9549 15.7513 99.84 15.6924 99.7216 15.6317C99.3883 15.4745 99.0594 15.3533 98.708 15.2442C98.708 15.2077 98.708 15.1713 98.708 15.1337Z" fill="#08152A"/>
<path d="M54.1407 25.9593C54.177 25.9593 54.2133 25.9593 54.2507 25.9593C54.2743 26.6932 54.1971 27.3436 54.0306 28.0581C53.958 28.0581 53.8854 28.0581 53.8105 28.0581C53.8673 27.3403 53.9719 26.6594 54.1407 25.9593Z" fill="#09182E"/>
<path d="M15.2956 22.2035C15.8403 22.2035 16.385 22.2035 16.9462 22.2035C16.9099 22.2764 16.8736 22.3493 16.8362 22.4244C16.5202 22.4624 16.5202 22.4624 16.1278 22.4797C15.5967 22.4741 15.5967 22.4741 15.1855 22.7558C15.2219 22.5735 15.2582 22.3913 15.2956 22.2035Z" fill="#FA2923"/>
<path d="M68.2269 18.8895C68.2632 18.8895 68.2995 18.8895 68.3369 18.8895C68.2802 19.6074 68.1755 20.2883 68.0068 20.9884C67.9705 20.9884 67.9342 20.9884 67.8968 20.9884C67.8708 20.273 67.9019 19.5419 68.2269 18.8895Z" fill="#06142A"/>
<path d="M15.0759 22.8663C15.1122 22.8663 15.1485 22.8663 15.186 22.8663C15.2123 23.4885 15.1183 24.0312 14.9659 24.6337C14.8932 24.6337 14.8206 24.6337 14.7458 24.6337C14.7095 24.4879 14.6732 24.3421 14.6357 24.1919C14.7084 24.1919 14.781 24.1919 14.8558 24.1919C14.8625 24.1054 14.8692 24.019 14.876 23.9299C14.8853 23.8181 14.8945 23.7064 14.904 23.5912C14.9129 23.4797 14.9218 23.3682 14.9311 23.2533C14.9659 22.9767 14.9659 22.9767 15.0759 22.8663Z" fill="#F7201B"/>
<path d="M99.6983 29.0523C99.7347 29.0523 99.771 29.0523 99.8084 29.0523C99.8084 29.4897 99.8084 29.9272 99.8084 30.3779C99.6268 30.4143 99.4452 30.4508 99.2582 30.4884C99.1855 30.4154 99.1129 30.3425 99.0381 30.2674C99.1833 30.2674 99.3286 30.2674 99.4783 30.2674C99.5021 30.059 99.5021 30.059 99.5264 29.8463C99.5594 29.5575 99.6057 29.3313 99.6983 29.0523Z" fill="#0A172C"/>
<path d="M26.8502 10.3837C27.0887 10.7428 27.1003 10.8579 27.0978 11.2744C27.0984 11.3713 27.0989 11.4683 27.0995 11.5682C27.0703 11.8198 27.0703 11.8198 26.8502 12.0407C26.7036 10.8744 26.7036 10.8744 26.8502 10.3837Z" fill="#2A2A42"/>
<path d="M74.169 24.9651C74.2053 24.9651 74.2416 24.9651 74.279 24.9651C74.2293 25.6185 74.1516 26.2191 73.9489 26.843C73.9126 26.843 73.8763 26.843 73.8389 26.843C73.8515 26.6128 73.8655 26.3827 73.8801 26.1526C73.8878 26.0244 73.8955 25.8963 73.9033 25.7642C73.9448 25.4393 74.0014 25.2413 74.169 24.9651Z" fill="#081529"/>
<path d="M48.4191 17.0116C48.6164 17.3561 48.6769 17.6387 48.708 18.0334C48.7162 18.1319 48.7244 18.2305 48.7329 18.332C48.741 18.4439 48.741 18.4439 48.7492 18.5581C48.6403 18.5946 48.5314 18.631 48.4191 18.6686C48.3976 18.4546 48.3772 18.2406 48.3572 18.0265C48.3457 17.9073 48.3342 17.7881 48.3224 17.6653C48.3091 17.343 48.3091 17.343 48.4191 17.0116Z" fill="#0C1E39"/>
<path d="M27.7312 8.94769C27.8039 8.98415 27.8765 9.0206 27.9513 9.05816C27.8254 9.2222 27.8254 9.2222 27.6968 9.38955C27.3951 9.81039 27.2339 10.2246 27.071 10.7151C27.0347 10.7151 26.9984 10.7151 26.9609 10.7151C26.9887 9.93542 27.2254 9.53155 27.7312 8.94769Z" fill="#131A33"/>
<path d="M48.5285 29.4942C48.5648 29.4942 48.6011 29.4942 48.6385 29.4942C48.6625 30.095 48.65 30.5846 48.4184 31.1512C48.3821 31.1512 48.3458 31.1512 48.3084 31.1512C48.2844 30.5504 48.2969 30.0608 48.5285 29.4942Z" fill="#08162D"/>
<path d="M79.2306 24.5233C79.2669 24.5233 79.3032 24.5233 79.3406 24.5233C79.3646 25.1241 79.3521 25.6136 79.1205 26.1802C79.0842 26.1802 79.0479 26.1802 79.0105 26.1802C78.9891 25.5697 79.0382 25.1025 79.2306 24.5233Z" fill="#09162B"/>
<path d="M33.3429 15.907C33.4827 16.3278 33.4002 16.5495 33.2948 16.9771C33.2473 17.1726 33.2473 17.1726 33.1989 17.3719C33.1613 17.5217 33.1613 17.5217 33.1229 17.6744C33.0865 17.6744 33.0502 17.6744 33.0128 17.6744C32.9915 17.0649 33.0335 16.5943 33.2329 16.0174C33.2692 15.981 33.3055 15.9445 33.3429 15.907Z" fill="#09162E"/>
<path d="M32.9027 9.16858C33.139 9.54877 33.1337 9.80619 33.0815 10.2456C33.0694 10.3544 33.0572 10.4632 33.0446 10.5753C33.0341 10.6579 33.0236 10.7405 33.0128 10.8256C32.8215 10.4931 32.765 10.2556 32.7721 9.87279C32.7731 9.74421 32.7731 9.74421 32.7742 9.61303C32.7927 9.38951 32.7927 9.38951 32.9027 9.16858Z" fill="#13243D"/>
<path d="M47.2087 35.7907C47.3256 35.9909 47.3256 35.9909 47.4287 36.2326C47.3924 36.3419 47.3561 36.4513 47.3187 36.564C47.5366 36.564 47.7545 36.564 47.979 36.564C47.6238 36.8017 47.5075 36.8071 47.0986 36.7849C46.9605 36.3689 47.0578 36.1915 47.2087 35.7907Z" fill="#0F1F37"/>
<path d="M96.0675 21.7616C96.1038 21.7616 96.1402 21.7616 96.1776 21.7616C96.2024 22.3602 96.1189 22.8414 95.9575 23.4186C95.9212 23.4186 95.8849 23.4186 95.8474 23.4186C95.8235 22.8178 95.836 22.3282 96.0675 21.7616Z" fill="#08152A"/>
<path d="M20.688 20.657C20.7606 20.657 20.8333 20.657 20.9081 20.657C20.7563 21.032 20.6169 21.179 20.2547 21.3543C20.1788 21.3926 20.1029 21.4309 20.0247 21.4704C19.8077 21.5407 19.8077 21.5407 19.4775 21.4302C19.5557 21.3837 19.6339 21.3371 19.7144 21.2891C19.8155 21.2286 19.9167 21.1681 20.0209 21.1057C20.1217 21.0455 20.2226 20.9853 20.3265 20.9232C20.5652 20.7887 20.5652 20.7887 20.688 20.657Z" fill="#F81D18"/>
<path d="M7.04312 7.62207C7.07944 7.62207 7.11575 7.62207 7.15317 7.62207C7.14068 7.85918 7.12664 8.09621 7.1119 8.33319C7.10041 8.53119 7.10041 8.53119 7.08869 8.73319C7.07365 8.84042 7.05862 8.94764 7.04312 9.05812C6.93418 9.1128 6.93418 9.1128 6.82304 9.16858C6.80323 8.59198 6.82624 8.16637 7.04312 7.62207Z" fill="#F91F1A"/>
<path d="M100.029 27.3953C100.066 27.3953 100.102 27.3953 100.139 27.3953C100.159 27.9719 100.136 28.3975 99.9192 28.9418C99.8828 28.9418 99.8465 28.9418 99.8091 28.9418C99.7858 28.3683 99.8541 27.9337 100.029 27.3953Z" fill="#081428"/>
<path d="M71.5277 26.9535C71.564 26.9535 71.6003 26.9535 71.6377 26.9535C71.6784 28.1198 71.6784 28.1198 71.4177 28.6105C71.3813 28.6105 71.345 28.6105 71.3076 28.6105C71.3232 28.4171 71.3394 28.2238 71.3558 28.0305C71.3647 27.9229 71.3736 27.8152 71.3828 27.7043C71.4122 27.4434 71.4566 27.2055 71.5277 26.9535Z" fill="#091529"/>
<path d="M9.13317 23.8605C9.16949 23.8605 9.2058 23.8605 9.24321 23.8605C9.26352 24.9 9.26352 24.9 9.13317 25.407C9.06054 25.407 8.98792 25.407 8.91309 25.407C8.92864 25.2113 8.9448 25.0157 8.96123 24.8201C8.97017 24.7112 8.9791 24.6023 8.98831 24.49C9.02313 24.1919 9.02313 24.1919 9.13317 23.8605Z" fill="#FB211C"/>
<path d="M47.7582 22.6453C47.7945 22.6453 47.8308 22.6453 47.8682 22.6453C47.8885 23.6848 47.8885 23.6848 47.7582 24.1918C47.6855 24.1918 47.6129 24.1918 47.5381 24.1918C47.5536 23.9962 47.5698 23.8006 47.5862 23.605C47.5952 23.4961 47.6041 23.3871 47.6133 23.2749C47.6481 22.9767 47.6481 22.9767 47.7582 22.6453Z" fill="#07162D"/>
<path d="M81.3211 19C81.3211 19.0365 81.3211 19.0729 81.3211 19.1105C81.1986 19.1378 81.076 19.1651 80.9497 19.1933C80.5458 19.2883 80.5458 19.2883 80.3926 19.5661C80.3722 19.6345 80.3518 19.7028 80.3307 19.7733C80.2944 19.5545 80.2581 19.3358 80.2207 19.1105C80.6444 18.8269 80.8354 18.908 81.3211 19Z" fill="#0F2645"/>
<path d="M32.9024 17.7849C32.9388 17.7849 32.9751 17.7849 33.0125 17.7849C33.0338 18.3954 32.9847 18.8626 32.7924 19.4419C32.7561 19.4419 32.7198 19.4419 32.6824 19.4419C32.661 18.8314 32.7101 18.3642 32.9024 17.7849Z" fill="#09162C"/>
<path d="M48.0888 20.9884C48.1251 20.9884 48.1614 20.9884 48.1988 20.9884C48.2186 21.565 48.1956 21.9906 47.9787 22.5349C47.9424 22.5349 47.9061 22.5349 47.8687 22.5349C47.8454 21.9614 47.9137 21.5267 48.0888 20.9884Z" fill="#08172D"/>
<path d="M17.2769 18.0058C17.1242 18.0993 16.9704 18.191 16.8161 18.2819C16.7306 18.3332 16.645 18.3845 16.5569 18.4373C16.26 18.57 16.0576 18.581 15.7363 18.5581C15.8816 18.5217 16.0268 18.4852 16.1765 18.4476C16.1765 18.3747 16.1765 18.3018 16.1765 18.2267C16.825 17.8569 16.825 17.8569 17.2769 18.0058Z" fill="#F9221C"/>
<path d="M57.662 9.5C57.7347 9.53645 57.8073 9.57291 57.8821 9.61047C57.8821 9.86564 57.8821 10.1208 57.8821 10.3837C57.7732 10.4202 57.6642 10.4566 57.552 10.4942C57.5413 9.81457 57.5413 9.81457 57.552 9.61047C57.5883 9.57401 57.6246 9.53756 57.662 9.5Z" fill="#0E1F36"/>
<path d="M75.819 15.686C76.0006 15.686 76.1822 15.686 76.3692 15.686C76.2909 15.8056 76.2909 15.8056 76.2111 15.9277C76.0455 16.2267 75.9768 16.4551 75.9291 16.7907C75.8564 16.7542 75.7838 16.7178 75.709 16.6802C75.7453 16.3521 75.7816 16.0241 75.819 15.686Z" fill="#0C1C35"/>
<path d="M88.9148 29.4942C88.9511 29.4942 88.9875 29.4942 89.0249 29.4942C89.0249 29.7858 89.0249 30.0775 89.0249 30.3779C88.7539 30.5139 88.5539 30.4963 88.2546 30.4884C88.2183 30.4155 88.1819 30.3426 88.1445 30.2675C88.3624 30.2675 88.5803 30.2675 88.8048 30.2675C88.8411 30.0123 88.8774 29.7571 88.9148 29.4942Z" fill="#061022"/>
<path d="M34.3332 15.3546C34.0099 15.5229 33.6821 15.6641 33.3428 15.7965C33.3428 15.6507 33.3428 15.5049 33.3428 15.3546C33.7087 15.2322 33.9614 15.2614 34.3332 15.3546Z" fill="#0D1E38"/>
<path d="M55.352 19.4418C55.4246 19.5147 55.4972 19.5876 55.572 19.6628C55.5695 19.926 55.5695 19.926 55.5308 20.2289C55.5186 20.3294 55.5064 20.43 55.4938 20.5335C55.4833 20.6107 55.4728 20.6879 55.462 20.7674C55.216 20.397 55.2229 20.3358 55.2832 19.9182C55.2954 19.8289 55.3076 19.7396 55.3202 19.6477C55.3307 19.5797 55.3411 19.5118 55.352 19.4418Z" fill="#0A1A34"/>
<path d="M54.9112 21.7616C54.9838 21.8345 55.0564 21.9074 55.1312 21.9825C55.1287 22.2216 55.1287 22.2216 55.09 22.4934C55.0778 22.5837 55.0656 22.674 55.053 22.767C55.0425 22.8362 55.032 22.9054 55.0212 22.9767C54.7146 22.515 54.8236 22.2977 54.9112 21.7616Z" fill="#0D203B"/>
<path d="M57.4424 19.3314C57.5151 19.4043 57.5877 19.4772 57.6625 19.5524C57.5536 19.7711 57.4446 19.9898 57.3324 20.2151C57.2598 20.1787 57.1871 20.1422 57.1123 20.1047C57.3186 19.4557 57.3186 19.4557 57.4424 19.3314Z" fill="#0C1E37"/>
<path d="M85.1729 19.4418C85.3181 19.4783 85.4634 19.5147 85.613 19.5523C85.6818 19.7525 85.6818 19.7525 85.7231 19.9942C85.6141 20.1582 85.6141 20.1582 85.503 20.3256C85.394 20.0339 85.2851 19.7423 85.1729 19.4418Z" fill="#0E2440"/>
<path d="M15.5156 17.8953C15.6246 18.0594 15.6246 18.0594 15.7357 18.2267C15.9613 18.3584 15.9613 18.3584 16.1759 18.4477C16.1033 18.5206 16.0306 18.5935 15.9558 18.6686C15.8105 18.6686 15.6653 18.6686 15.5156 18.6686C15.5156 18.4134 15.5156 18.1582 15.5156 17.8953Z" fill="#FC362C"/>
<path d="M23.3291 27.8372C23.3654 27.9101 23.4017 27.983 23.4391 28.0581C23.5118 28.0946 23.5844 28.1311 23.6592 28.1686C23.5503 28.1686 23.4413 28.1686 23.3291 28.1686C23.3291 28.0593 23.3291 27.9499 23.3291 27.8372Z" fill="#404158"/>
<path d="M49.7393 21.5407C49.7756 21.5407 49.8119 21.5407 49.8493 21.5407C49.8493 21.7594 49.8493 21.9782 49.8493 22.2035C49.813 22.2035 49.7767 22.2035 49.7393 22.2035C49.7393 21.9848 49.7393 21.7661 49.7393 21.5407Z" fill="#1A385D"/>
<path d="M12.7646 22.7558C12.8736 22.8105 12.8736 22.8105 12.9847 22.8663C12.9847 22.9392 12.9847 23.0121 12.9847 23.0872C12.9121 23.0872 12.8395 23.0872 12.7646 23.0872C12.7646 22.9778 12.7646 22.8685 12.7646 22.7558Z" fill="#F94F48"/>
<path d="M13.0947 6.95929C13.2763 6.95929 13.4579 6.95929 13.6449 6.95929C13.6449 6.99574 13.6449 7.0322 13.6449 7.06975C13.4634 7.06975 13.2818 7.06975 13.0947 7.06975C13.0947 7.0333 13.0947 6.99685 13.0947 6.95929Z" fill="#E64D46"/>
<path d="M84.1826 26.843C84.2927 27.2849 84.2927 27.2849 84.2927 27.2849L84.1826 26.843Z" fill="#19375D"/>
<path d="M54.9111 23.6395C55.0212 24.0814 55.0212 24.0814 55.0212 24.0814L54.9111 23.6395Z" fill="#18375B"/>
<path d="M83.8525 19.1105C84.2927 19.2209 84.2927 19.2209 84.2927 19.2209L83.8525 19.1105Z" fill="#1A3A60"/>
<path d="M15.626 12.2617C16.0661 12.3721 16.0661 12.3721 16.0661 12.3721L15.626 12.2617Z" fill="#F85049"/>
<path d="M6.60254 8.28491C6.71258 8.72677 6.71258 8.72677 6.71258 8.72677L6.60254 8.28491Z" fill="#EC4C47"/>
<path d="M12.1045 22.2035C12.1771 22.2764 12.2497 22.3493 12.3246 22.4244C12.2519 22.4244 12.1793 22.4244 12.1045 22.4244C12.1045 22.3515 12.1045 22.2786 12.1045 22.2035Z" fill="#F64D48"/>
<path d="M11.3347 20.8779C11.371 20.9508 11.4073 21.0237 11.4447 21.0989C11.3721 21.0624 11.2994 21.026 11.2246 20.9884C11.2609 20.9519 11.2972 20.9155 11.3347 20.8779Z" fill="#F94F4A"/>
<path d="M92.4355 19.2209C92.7657 19.3314 92.7657 19.3314 92.7657 19.3314L92.4355 19.2209Z" fill="#1C3B5E"/>
<path d="M15.4062 16.3488C15.7364 16.4593 15.7364 16.4593 15.7364 16.4593L15.4062 16.3488Z" fill="#F65048"/>
<path d="M12.2148 6.95929C12.545 7.06975 12.545 7.06975 12.545 7.06975L12.2148 6.95929Z" fill="#E94C44"/>
<path d="M11.334 6.95929C11.6641 7.06975 11.6641 7.06975 11.6641 7.06975L11.334 6.95929Z" fill="#E74C46"/>
<path d="M86.9336 31.593C87.1537 31.7035 87.1537 31.7035 87.1537 31.7035L86.9336 31.593Z" fill="#1F3854"/>
<path d="M60.6338 31.0407C60.8539 31.1512 60.8539 31.1512 60.8539 31.1512L60.6338 31.0407Z" fill="#1C385B"/>
<path d="M86.9336 30.7093C87.1537 30.8198 87.1537 30.8198 87.1537 30.8198L86.9336 30.7093Z" fill="#1F3857"/>
<path d="M71.3076 30.0465C71.5277 30.157 71.5277 30.157 71.5277 30.157L71.3076 30.0465Z" fill="#1B385A"/>
<path d="M48.0889 28.6105C48.309 28.7209 48.309 28.7209 48.309 28.7209L48.0889 28.6105Z" fill="#19395D"/>
<path d="M21.1279 20.7675C21.348 20.8779 21.348 20.8779 21.348 20.8779L21.1279 20.7675Z" fill="#D65350"/>
<path d="M94.7471 19.2209C94.9672 19.3314 94.9672 19.3314 94.9672 19.3314L94.7471 19.2209Z" fill="#1B3A5D"/>
<path d="M16.2861 18.0058C16.5062 18.1163 16.5062 18.1163 16.5062 18.1163L16.2861 18.0058Z" fill="#F4524C"/>
<path d="M89.3545 15.3547C89.5746 15.4651 89.5746 15.4651 89.5746 15.4651L89.3545 15.3547Z" fill="#1E3A5E"/>
<path d="M29.8213 14.9128C30.0414 15.0232 30.0414 15.0232 30.0414 15.0232L29.8213 14.9128Z" fill="#2A3C5A"/>
<path d="M26.7402 14.8023C26.9603 14.9128 26.9603 14.9128 26.9603 14.9128L26.7402 14.8023Z" fill="#504259"/>
<path d="M37.5244 14.4709C37.7445 14.5814 37.7445 14.5814 37.7445 14.5814L37.5244 14.4709Z" fill="#1F3B61"/>
<path d="M14.6357 12.3721C14.8558 12.4825 14.8558 12.4825 14.8558 12.4825L14.6357 12.3721Z" fill="#FB4D47"/>
<path d="M17.6064 6.95929C17.8265 7.06975 17.8265 7.06975 17.8265 7.06975L17.6064 6.95929Z" fill="#E2514A"/>
<path d="M16.7266 6.95929C16.9466 7.06975 16.9466 7.06975 16.9466 7.06975L16.7266 6.95929Z" fill="#E4514A"/>
<path d="M15.7363 6.95929C15.9564 7.06975 15.9564 7.06975 15.9564 7.06975L15.7363 6.95929Z" fill="#E44E47"/>
<path d="M12.7646 6.95929C12.9847 7.06975 12.9847 7.06975 12.9847 7.06975L12.7646 6.95929Z" fill="#E84E46"/>
<path d="M10.5645 6.95929C10.7845 7.06975 10.7845 7.06975 10.7845 7.06975L10.5645 6.95929Z" fill="#E34E46"/>
<path d="M9.68359 6.95929C9.90368 7.06975 9.90368 7.06975 9.90368 7.06975L9.68359 6.95929Z" fill="#E64A44"/>
<path d="M9.35352 6.95929C9.5736 7.06975 9.5736 7.06975 9.5736 7.06975L9.35352 6.95929Z" fill="#E54B43"/>
<path d="M8.80371 6.95929C9.0238 7.06975 9.0238 7.06975 9.0238 7.06975L8.80371 6.95929Z" fill="#E44B45"/>
</g>
<defs>
<clipPath id="clip0_1429_2388">
<rect width="103" height="38" fill="white"/>
</clipPath>
</defs>
</svg>
