<svg width="73" height="48" viewBox="0 0 73 48" fill="none" xmlns="http://www.w3.org/2000/svg">
<g clip-path="url(#clip0_1429_2588)">
<path d="M48.335 11.9895C48.3891 11.9894 48.4432 11.9892 48.4989 11.9891C48.6779 11.9887 48.8569 11.989 49.036 11.9892C49.1601 11.9892 49.2841 11.9891 49.4082 11.989C49.6684 11.9889 49.9285 11.9891 50.1887 11.9894C50.5229 11.9899 50.857 11.9896 51.1912 11.9891C51.4474 11.9889 51.7037 11.9889 51.9599 11.9892C52.0831 11.9892 52.2064 11.9891 52.3297 11.989C52.5016 11.9888 52.6735 11.9891 52.8454 11.9895C52.9433 11.9896 53.0413 11.9896 53.1423 11.9897C53.3617 12 53.3617 12 53.4422 12.0812C53.45 12.1907 53.4523 12.3007 53.4523 12.4105C53.4526 12.4818 53.4528 12.5532 53.453 12.6267C53.4528 12.7061 53.4526 12.7854 53.4524 12.8671C53.4526 12.9506 53.4527 13.0342 53.4528 13.1203C53.4531 13.4025 53.4529 13.6848 53.4526 13.9671C53.4527 14.1685 53.4529 14.3699 53.4531 14.5714C53.4534 15.0631 53.4533 15.5548 53.4531 16.0465C53.4529 16.4459 53.4529 16.8453 53.453 17.2448C53.453 17.3015 53.453 17.3583 53.453 17.4167C53.453 17.532 53.4531 17.6472 53.4531 17.7625C53.4533 18.8445 53.4531 19.9265 53.4526 21.0085C53.4523 21.9379 53.4523 22.8673 53.4527 23.7967C53.4531 24.8747 53.4533 25.9527 53.4531 27.0307C53.453 27.1455 53.453 27.2604 53.453 27.3752C53.453 27.4317 53.453 27.4882 53.4529 27.5464C53.4529 27.9456 53.453 28.3448 53.4532 28.744C53.4534 29.2808 53.4533 29.8176 53.4528 30.3544C53.4527 30.552 53.4527 30.7496 53.4529 30.9473C53.4531 31.2158 53.4528 31.4844 53.4524 31.7529C53.4526 31.8322 53.4528 31.9115 53.453 31.9932C53.4528 32.0646 53.4526 32.136 53.4523 32.2095C53.4523 32.2716 53.4523 32.3337 53.4523 32.3976C53.4422 32.5388 53.4422 32.5388 53.3617 32.6199C53.184 32.6276 53.006 32.6295 52.828 32.6292C52.7723 32.6292 52.7165 32.6292 52.6591 32.6292C52.474 32.6291 52.2889 32.6285 52.1038 32.6279C51.9758 32.6277 51.8478 32.6276 51.7198 32.6275C51.3823 32.6272 51.0447 32.6264 50.7072 32.6255C50.363 32.6247 50.0188 32.6243 49.6747 32.6239C48.9989 32.623 48.3231 32.6217 47.6473 32.6199C47.6473 32.2717 47.6473 31.9234 47.6473 31.5646C47.5635 31.6126 47.4796 31.6607 47.3933 31.7102C45.2359 32.9204 42.791 33.3387 40.3778 32.6954C38.5643 32.1282 37.2061 30.8701 36.2989 29.2104C36.2609 29.1416 36.2229 29.0728 36.1838 29.002C35.1793 26.9913 35.1904 24.5356 35.8311 22.4267C36.1927 21.3933 36.7039 20.5337 37.4257 19.7122C37.4756 19.6502 37.5255 19.5883 37.5769 19.5245C37.8236 19.2216 38.044 18.9982 38.3968 18.8183C38.5831 18.7222 38.7573 18.6113 38.9348 18.4996C40.9919 17.2608 43.5622 17.0654 45.8681 17.631C46.4938 17.7952 47.0669 17.9582 47.6473 18.2509C47.6473 16.2149 47.6473 14.1789 47.6473 12.0812C47.8784 11.9646 48.0767 11.9897 48.335 11.9895ZM43.3816 22.6347C43.3102 22.6799 43.2388 22.7251 43.1653 22.7717C42.5027 23.44 42.2695 24.2947 42.2472 25.2227C42.2813 26.0734 42.4431 26.8166 43.0596 27.4244C43.8423 28.0685 44.823 28.1369 45.7961 28.0738C46.7847 28.0061 46.7847 28.0061 47.6473 27.5867C47.6553 27.4203 47.6576 27.2536 47.6577 27.087C47.658 26.98 47.6582 26.873 47.6585 26.7627C47.6583 26.645 47.6582 26.5273 47.658 26.4096C47.658 26.2898 47.6581 26.17 47.6582 26.0502C47.6583 25.7988 47.6582 25.5473 47.6578 25.2959C47.6573 24.973 47.6576 24.65 47.6581 24.327C47.6584 24.0795 47.6583 23.832 47.6581 23.5845C47.658 23.4654 47.6581 23.3463 47.6583 23.2272C47.6585 23.061 47.6581 22.8948 47.6577 22.7286C47.6576 22.6338 47.6576 22.5391 47.6575 22.4414C47.6712 22.2348 47.6712 22.2348 47.5668 22.1476C47.0251 22.0372 46.4776 22.0515 45.9269 22.0512C45.7844 22.0497 45.7844 22.0497 45.6389 22.0482C44.7635 22.0467 44.123 22.1591 43.3816 22.6347Z" fill="#B5BABF"/>
<path d="M25.2591 17.3323C25.4872 17.3326 25.7152 17.3307 25.9434 17.3286C28.1428 17.3209 30.3551 17.6657 32.0333 19.2251C33.5326 20.7427 33.6638 22.5098 33.6634 24.5506C33.6628 24.7531 33.6622 24.9557 33.6616 25.1583C33.6615 25.369 33.6615 25.5797 33.6615 25.7904C33.6614 26.2291 33.6607 26.6678 33.6596 27.1065C33.6583 27.6136 33.6579 28.1207 33.658 28.6278C33.658 29.1177 33.6576 29.6076 33.657 30.0975C33.6567 30.3054 33.6565 30.5132 33.6565 30.7211C33.6563 31.01 33.6556 31.2989 33.6547 31.5879C33.6548 31.6741 33.6548 31.7602 33.6549 31.849C33.6545 31.9273 33.6542 32.0056 33.6538 32.0862C33.6537 32.1544 33.6535 32.2226 33.6534 32.2929C33.643 32.4576 33.643 32.4576 33.5626 32.6199C32.9754 32.6326 32.3882 32.6447 31.801 32.6559C31.5282 32.6611 31.2553 32.6667 30.9824 32.6726C29.8999 32.6959 28.8199 32.7142 27.7378 32.6678C27.6207 32.6629 27.6207 32.6629 27.5013 32.6578C26.9736 32.6308 26.9736 32.6308 26.8823 32.5388C26.8632 32.3067 26.8483 32.0761 26.837 31.8437C26.8336 31.7782 26.8301 31.7127 26.8265 31.6453C26.8179 31.4831 26.8098 31.3209 26.8018 31.1587C26.7531 31.2089 26.7531 31.2089 26.7034 31.2602C25.2959 32.6105 23.2794 32.9989 21.3999 32.9646C20.1153 32.8825 18.9742 32.5941 17.9283 31.8031C17.862 31.753 17.862 31.753 17.7943 31.7019C17.5304 31.4896 17.4066 31.3182 17.3046 30.9963C17.2055 30.8 17.1033 30.6055 17.0002 30.4113C16.7718 29.8832 16.7118 29.3836 16.716 28.8146C16.7165 28.7504 16.7169 28.6862 16.7174 28.62C16.7399 27.5258 17.2004 26.6849 17.9334 25.8895C18.9921 24.8674 20.4644 24.2898 21.8922 24.096C21.9454 24.0883 21.9986 24.0806 22.0534 24.0727C23.6502 23.8503 25.2745 23.9186 26.8823 23.9336C26.8599 23.7786 26.8365 23.6238 26.8128 23.469C26.7935 23.3397 26.7935 23.3397 26.7737 23.2077C26.6737 22.7339 26.4385 22.385 26.0674 22.0817C25.3817 21.6521 24.5993 21.6203 23.8138 21.6301C23.6701 21.6313 23.6701 21.6313 23.5236 21.6326C22.7677 21.6459 22.061 21.7177 21.3288 21.9041C21.2303 21.9283 21.2303 21.9283 21.1297 21.953C20.212 22.1826 19.3696 22.4847 18.526 22.9157C18.2704 23.0406 18.2704 23.0406 18.1094 23.0406C18.1094 21.6475 18.1094 20.2545 18.1094 18.8192C18.6145 18.5645 19.0398 18.3519 19.5682 18.2002C19.6741 18.1689 19.78 18.1374 19.8858 18.1057C19.9381 18.0901 19.9904 18.0746 20.0443 18.0585C20.2042 18.0067 20.3574 17.9453 20.513 17.8815C20.886 17.7378 21.2612 17.687 21.6558 17.637C21.7572 17.6233 21.7572 17.6233 21.8606 17.6093C22.0054 17.5897 22.1503 17.5709 22.2952 17.5525C22.4634 17.53 22.6313 17.5049 22.7988 17.4778C23.6209 17.3506 24.4286 17.3304 25.2591 17.3323ZM22.9052 27.3026C22.6847 27.6294 22.6577 27.9202 22.7241 28.3056C22.8151 28.6019 22.9524 28.7617 23.18 28.9668C23.6469 29.1797 24.0287 29.2503 24.5382 29.2408C24.6016 29.24 24.665 29.2393 24.7303 29.2385C25.4583 29.2195 26.0398 29.0988 26.5604 28.5609C26.8593 28.1346 26.8924 27.7984 26.8873 27.2823C26.8866 27.1873 26.8859 27.0923 26.8851 26.9944C26.8842 26.922 26.8833 26.8495 26.8823 26.7749C26.435 26.6729 26.001 26.6788 25.5442 26.6785C25.4199 26.677 25.4199 26.677 25.293 26.6755C24.5083 26.674 23.4851 26.6822 22.9052 27.3026Z" fill="#B5BABF"/>
<path d="M69.5225 19.2233C69.7216 19.4081 69.9124 19.5992 70.1025 19.7934C70.168 19.8595 70.2335 19.9257 70.3009 19.9938C71.1464 20.8918 71.5961 21.8771 71.9537 23.0406C71.9827 23.1287 72.0118 23.2168 72.0417 23.3076C72.1408 23.7169 72.1727 24.1231 72.2052 24.5425C72.2121 24.6242 72.2191 24.7059 72.2263 24.7901C72.3214 25.952 72.3214 25.952 72.1146 26.369C68.7681 26.369 65.4215 26.369 61.9735 26.369C62.3229 27.25 62.5436 27.656 63.3377 28.0862C63.5102 28.1705 63.5102 28.1705 63.7442 28.155C63.7442 28.2086 63.7442 28.2622 63.7442 28.3174C65.282 28.6281 67.175 28.6743 68.6959 28.2355C68.9453 28.1638 69.1785 28.1302 69.4354 28.1018C69.8256 28.0426 70.2049 27.9287 70.5854 27.8252C70.6708 27.8023 70.7562 27.7795 70.8442 27.7559C71.0531 27.6999 71.262 27.6435 71.4708 27.5867C71.4868 27.9925 71.4984 28.3981 71.5061 28.8042C71.5094 28.942 71.5137 29.0799 71.5193 29.2177C71.5643 30.3534 71.5643 30.3534 71.3465 30.7164C71.1812 30.8672 71.0231 30.9717 70.8269 31.0775C70.7747 31.1115 70.7225 31.1455 70.6687 31.1805C70.5165 31.2784 70.3619 31.3665 70.2031 31.453C70.1471 31.484 70.0911 31.515 70.0334 31.5469C69.5594 31.8051 69.0803 32.0291 68.5733 32.214C68.4357 32.2651 68.4357 32.2651 68.2954 32.3171C67.0346 32.7604 65.6404 32.9886 64.3076 33.0259C64.2526 33.0275 64.1977 33.0292 64.1411 33.0309C61.6654 33.0961 59.0009 32.7186 57.0919 30.9814C55.5144 29.4704 54.7246 27.4708 54.639 25.2934C54.6062 23.319 55.1888 21.4438 56.5005 19.9557C56.6331 19.8189 56.767 19.6833 56.903 19.5498C56.9976 19.4268 56.9976 19.4268 57.0941 19.3012C57.2877 19.0827 57.4527 18.9575 57.7088 18.8236C57.8897 18.7268 58.0585 18.616 58.231 18.5046C61.3919 16.5975 66.6925 16.7129 69.5225 19.2233ZM62.2555 21.905C61.9094 22.3665 61.8131 22.7934 61.7321 23.3653C63.2726 23.3653 64.813 23.3653 66.4002 23.3653C66.4002 22.8521 66.391 22.7027 66.1738 22.2795C66.1108 22.153 66.1108 22.153 66.0465 22.0239C65.9318 21.7996 65.9318 21.7996 65.6758 21.7417C65.6758 21.6881 65.6758 21.6346 65.6758 21.5794C65.5895 21.5275 65.5032 21.4755 65.4143 21.4221C65.3657 21.3929 65.3172 21.3637 65.2671 21.3336C64.2991 20.8395 62.9677 21.1267 62.2555 21.905Z" fill="#B5BABF"/>
<path d="M12.3951 12.0812C12.4217 12.1348 12.4482 12.1883 12.4756 12.2435C12.5554 12.2302 12.6352 12.217 12.7174 12.2033C13.0385 12.157 13.3534 12.1544 13.6778 12.1573C13.7604 12.1578 13.7604 12.1578 13.8446 12.1584C13.9785 12.1593 14.1124 12.1608 14.2463 12.1624C14.3035 12.5789 14.3369 12.9796 14.3375 13.4009C14.3377 13.4565 14.3379 13.512 14.3381 13.5692C14.3386 13.7534 14.3385 13.9376 14.3384 14.1218C14.3387 14.2546 14.339 14.3875 14.3393 14.5204C14.34 14.8803 14.3402 15.2401 14.3402 15.5999C14.3403 15.8254 14.3404 16.0509 14.3407 16.2763C14.3414 17.065 14.3417 17.8536 14.3417 18.6422C14.3416 19.3739 14.3425 20.1056 14.3437 20.8373C14.3448 21.468 14.3452 22.0986 14.3452 22.7293C14.3452 23.1048 14.3454 23.4804 14.3462 23.8559C14.347 24.21 14.347 24.5641 14.3464 24.9182C14.3464 25.0469 14.3465 25.1756 14.347 25.3044C14.3494 25.9761 14.3277 26.6392 14.2586 27.3076C14.2528 27.3661 14.247 27.4246 14.2411 27.4849C14.0598 29.0635 13.1157 30.4284 11.9282 31.4307C10.1438 32.7799 7.8988 33.0901 5.72774 32.8226C4.45174 32.6251 3.31741 32.096 2.41496 31.1587C2.36972 31.1187 2.32449 31.0787 2.27788 31.0375C1.58733 30.4149 1.07062 29.4718 0.885742 28.5609C1.34667 28.4629 1.80182 28.4645 2.27065 28.4597C2.44918 28.457 2.6277 28.4544 2.80622 28.4516C3.08596 28.4478 3.3657 28.4442 3.64544 28.441C3.91659 28.4378 4.18771 28.4336 4.45884 28.4293C4.54161 28.4286 4.62439 28.4279 4.70967 28.4272C5.48474 28.4139 6.20955 28.317 6.84164 27.8303C7.22878 27.3602 7.25398 26.8435 7.25626 26.2562C7.2566 26.1965 7.25694 26.1369 7.25729 26.0755C7.25834 25.8761 7.25882 25.6767 7.25931 25.4774C7.25995 25.3343 7.26063 25.1912 7.26134 25.0481C7.26279 24.7402 7.264 24.4324 7.26502 24.1245C7.26665 23.6382 7.26888 23.1518 7.27119 22.6655C7.27644 21.5458 7.28091 20.4261 7.28536 19.3064C7.28945 18.2794 7.2937 17.2523 7.2986 16.2253C7.30089 15.7413 7.30278 15.2573 7.30439 14.7734C7.30546 14.4731 7.30686 14.1729 7.30836 13.8726C7.30898 13.7329 7.30947 13.5931 7.30981 13.4533C7.3103 13.2633 7.31126 13.0734 7.31236 12.8834C7.31277 12.7769 7.31319 12.6703 7.31362 12.5605C7.32455 12.3247 7.32455 12.3247 7.40504 12.2435C7.56062 12.2359 7.71648 12.234 7.87225 12.2343C7.97215 12.2343 8.07205 12.2343 8.17497 12.2343C8.28481 12.2348 8.39464 12.2352 8.50448 12.2356C8.61624 12.2358 8.728 12.2359 8.83977 12.236C9.13444 12.2363 9.4291 12.2371 9.72377 12.238C10.0243 12.2388 10.3247 12.2392 10.6252 12.2396C11.2152 12.2404 11.8052 12.2418 12.3951 12.2435C12.3951 12.19 12.3951 12.1364 12.3951 12.0812Z" fill="#B5BABF"/>
</g>
<defs>
<clipPath id="clip0_1429_2588">
<rect width="73" height="22" fill="white" transform="translate(0 12)"/>
</clipPath>
</defs>
</svg>
