<svg width="103" height="48" viewBox="0 0 103 48" fill="none" xmlns="http://www.w3.org/2000/svg">
<path d="M56.5625 15.1338C56.2793 16.62 55.9903 18.105 55.7002 19.5898C55.6181 20.0101 55.5356 20.4304 55.4531 20.8506C55.3885 21.1799 55.3246 21.5095 55.2598 21.8389C55.1704 22.2929 55.0815 22.7471 54.9922 23.2012C54.8187 24.0837 54.6453 24.9662 54.4717 25.8486H54.4688C54.3597 26.4013 54.2513 26.9541 54.1426 27.5068C54.1363 27.5433 54.1279 27.5795 54.1211 27.6162C54.0817 27.8167 54.0423 28.0173 54.0029 28.2178C53.9256 28.6114 53.847 29.0049 53.7695 29.3984C53.7188 29.8367 53.6365 30.2717 53.541 30.7188C53.4941 30.9393 53.4498 31.1608 53.4053 31.3818C53.2773 31.9943 53.2427 32.1391 53.1973 32.3027C53.1871 32.3544 53.1771 32.4063 53.167 32.458C53.0773 32.9157 52.9874 33.3736 52.8965 33.8311C52.8634 33.9983 52.8304 34.1656 52.7979 34.333C52.4391 36.1746 52.3916 36.4119 52.1641 36.665C52.1626 36.6681 52.1617 36.6718 52.1602 36.6748H52.1562C52.1246 36.7094 52.0896 36.7452 52.0498 36.7852L51.9111 36.8105C51.587 36.8605 51.2655 36.8477 50.9346 36.8389C50.8251 36.8381 50.7153 36.8377 50.6025 36.8369C50.2527 36.8338 49.9025 36.8264 49.5527 36.8193C49.3158 36.8166 49.0787 36.8138 48.8418 36.8115L47.4121 36.7891C47.3255 36.7937 47.2268 36.7921 47.0996 36.7852H47.0977C47.0085 36.5167 47.0097 36.349 47.0527 36.1523C47.0812 35.9834 47.1343 35.8131 47.1875 35.6182C47.2294 35.4591 47.271 35.2998 47.3125 35.1406C47.3209 35.1085 47.3285 35.0762 47.3369 35.0439C47.3886 34.8263 47.4376 34.6081 47.4854 34.3896C47.5249 34.1844 47.5601 33.9782 47.5938 33.7715C47.6116 33.7087 47.63 33.6457 47.6484 33.5811C47.6518 33.5794 47.6548 33.5769 47.6582 33.5752C47.7982 32.883 47.9281 32.1882 48.0625 31.4951C48.1257 31.1696 48.1894 30.844 48.2529 30.5186C48.456 29.4778 48.6572 28.4366 48.8584 27.3955C48.8838 27.2639 48.9093 27.1317 48.9355 26.9961C49.1466 25.9029 49.3535 24.8088 49.5605 23.7148C49.6131 23.2532 49.701 22.796 49.7949 22.3281C49.8033 22.2865 49.8111 22.2448 49.8193 22.2031H49.7393V21.541H49.8496V22.0479C49.878 21.9034 49.9067 21.7588 49.9346 21.6143C50.0411 21.071 50.0994 20.7822 50.1426 20.6152C50.2525 20.0241 50.3638 19.4332 50.4727 18.8418C50.7009 17.605 50.9355 16.3695 51.1699 15.1338H56.5625ZM62.917 15.1406C65.9891 14.3337 69.556 14.4824 72.6768 14.9609C72.7647 14.9744 72.8528 14.9881 72.9434 15.002C73.3538 15.0705 73.6934 15.1566 74.0586 15.3545C73.8996 16.2331 73.7368 17.111 73.5713 17.9883C73.5483 18.1863 73.5204 18.3857 73.4805 18.5908C73.4585 18.7054 73.4589 18.7056 73.4365 18.8223C73.3883 19.0723 73.3384 19.3224 73.2891 19.5723C73.255 19.7467 73.2215 19.9213 73.1875 20.0957C73.1164 20.4599 73.0447 20.8244 72.9727 21.1885C72.8803 21.6557 72.7887 22.1232 72.6982 22.5908C72.6285 22.9505 72.5582 23.3105 72.4873 23.6699C72.4534 23.8423 72.42 24.015 72.3867 24.1875C72.3403 24.4276 72.2921 24.6674 72.2441 24.9072C72.2173 25.044 72.1908 25.1814 72.1631 25.3223C72.1468 25.3807 72.1297 25.439 72.1133 25.498C72.1124 25.5027 72.1123 25.5077 72.1113 25.5127C71.9538 26.3217 71.7994 27.1315 71.6475 27.9414C71.639 28.0561 71.6224 28.143 71.5947 28.2275C71.4608 28.944 71.3279 29.6607 71.1973 30.3779H66.1357C66.0994 30.1592 66.0628 29.9402 66.0254 29.7148C65.9274 29.7645 65.8294 29.8141 65.7285 29.8652C64.8538 30.5227 63.4525 30.8766 62.4795 30.9482C62.4329 30.9499 62.3864 30.9491 62.3398 30.9502C61.283 31.093 60.2058 31.0439 59.1484 30.7139C58.5501 30.4642 58.0473 30.1566 57.5898 29.7461C57.5775 29.7357 57.5643 29.7254 57.5518 29.7148C57.4864 29.6639 57.4209 29.6131 57.3535 29.5605C57.1756 29.42 57.0523 29.289 56.9609 29.1514C56.9201 29.1464 56.8668 29.1537 56.7822 29.1631V28.7568C56.7667 28.7055 56.7527 28.6521 56.7393 28.5957C56.6446 28.564 56.5496 28.5326 56.4521 28.5C56.3536 28.238 56.2809 27.9976 56.2178 27.7266C56.2041 27.6682 56.1897 27.6101 56.1758 27.5508C55.4861 25.6403 55.9555 23.0123 56.5615 21.209H56.5908C56.6608 21.0094 56.7343 20.811 56.8145 20.6152C56.8315 20.531 56.8642 20.4384 56.9092 20.3184C57.0278 20.0852 57.1466 19.8529 57.2705 19.624C57.3272 19.4646 57.3552 19.4222 57.4141 19.3613C57.4599 19.2776 57.5049 19.193 57.5527 19.1104C57.6232 19.0016 57.693 18.8927 57.7646 18.7852C57.9655 18.4751 58.1843 18.1763 58.4326 17.8955H58.6523C58.6783 17.8321 58.7047 17.7684 58.7314 17.7031C59.4771 16.386 61.5328 15.5408 62.917 15.1406ZM90.4414 15.2646C92.8604 14.6519 95.9596 14.2562 98.5605 14.9082C98.5729 14.9097 98.5853 14.9116 98.5977 14.9131V14.917C98.8964 14.9932 99.1881 15.0841 99.4717 15.1895C99.6862 15.2478 99.8917 15.3379 100.092 15.4502C100.198 15.5009 100.303 15.5536 100.406 15.6094C100.849 15.9053 101.188 16.2911 101.435 16.7354C101.485 16.8133 101.533 16.8992 101.582 16.9932C101.631 17.1143 101.671 17.2374 101.707 17.3604C101.758 17.5097 101.803 17.6623 101.838 17.8193C101.864 18.0277 101.877 18.2362 101.882 18.4443C101.903 18.9341 101.858 19.4292 101.784 19.9219C101.675 20.6993 101.498 21.4722 101.346 22.2354C101.301 22.4602 101.257 22.6852 101.213 22.9102C101.097 23.4981 100.98 24.0861 100.863 24.6738C100.814 24.9218 100.765 25.17 100.716 25.418C100.683 25.6505 100.643 25.8847 100.593 26.125C100.574 26.2249 100.554 26.3248 100.534 26.4277C100.515 26.5224 100.496 26.6173 100.477 26.7148C100.459 26.8004 100.442 26.8864 100.424 26.9746C100.411 27.0126 100.398 27.0505 100.386 27.0889C100.358 27.2285 100.331 27.3682 100.304 27.5078C100.239 27.8372 100.174 28.1668 100.108 28.4961C100.069 28.6968 100.029 28.8979 99.9893 29.0986C99.9709 29.1901 99.9525 29.2818 99.9336 29.376C99.8685 29.7066 99.8124 30.0151 99.8096 30.3516V30.3779C99.8085 30.3782 99.8068 30.3777 99.8057 30.3779C99.7965 30.3798 99.7875 30.382 99.7783 30.3838C99.665 30.4099 99.5504 30.4322 99.4346 30.4521C99.3762 30.4639 99.3172 30.4764 99.2578 30.4883C99.2554 30.4858 99.2534 30.4829 99.251 30.4805C97.6936 30.7059 95.9453 30.4388 94.417 30.3779C94.4358 30.1667 94.4588 29.9565 94.4863 29.7471C94.4996 29.6269 94.5138 29.5061 94.5273 29.3838H94.541C94.6304 28.7926 94.7419 28.2055 94.8564 27.6162C94.9032 27.3753 94.9503 27.1345 94.9971 26.8936C95.0352 26.6972 95.0353 26.6964 95.0742 26.4961C95.134 26.1873 95.1924 25.8782 95.252 25.5693C95.2891 25.2982 95.3415 25.0262 95.4072 24.7441H95.4121C95.4637 24.4765 95.5159 24.2089 95.5684 23.9414C95.6516 23.517 95.7332 23.0918 95.8145 22.667C95.8399 22.5388 95.8654 22.4104 95.8916 22.2783C96.1532 21.0154 96.163 20.9566 95.9473 19.8359C95.8833 19.7268 95.7987 19.6224 95.6914 19.5098C95.2296 19.2272 94.7025 19.1006 94.1504 19.0615C93.9662 19.0755 93.7818 19.0895 93.5977 19.1035C93.4697 19.1131 93.3418 19.1229 93.21 19.1328C92.5099 19.1863 91.8124 19.248 91.1152 19.3311C91.0924 19.4682 91.0694 19.6057 91.0459 19.7471L90.9092 20.5332C90.8901 20.645 90.8703 20.7569 90.8506 20.8721C90.8449 20.9053 90.8388 20.9385 90.833 20.9717C90.8275 21.0025 90.8229 21.0336 90.8174 21.0645C90.7705 21.3338 90.7227 21.6029 90.6748 21.8721C90.6563 21.9797 90.6382 22.0874 90.6191 22.1982C90.601 22.2981 90.5831 22.3981 90.5645 22.501C90.5487 22.5901 90.5328 22.6796 90.5166 22.7715C90.4917 22.8549 90.4867 22.8697 90.4688 22.9297C90.3746 23.4244 90.2791 23.9188 90.1826 24.4131C90.1469 24.7222 90.0956 25.0314 90.0293 25.3516C90.0102 25.4514 89.9904 25.5514 89.9707 25.6543C89.9516 25.7491 89.9328 25.8447 89.9131 25.9424C89.8958 26.0278 89.8781 26.1132 89.8604 26.2012C89.8439 26.2513 89.8272 26.3016 89.8105 26.3525C89.7831 26.4974 89.7548 26.6422 89.7275 26.7871C89.6554 27.1699 89.5816 27.5529 89.5088 27.9355C89.4437 28.4171 89.3446 28.8948 89.2441 29.3838H89.2373C89.2289 29.428 89.2204 29.4724 89.2119 29.5166C89.1963 29.6023 89.1802 29.688 89.1641 29.7764C89.1248 29.9784 89.0755 30.1786 89.0244 30.3779C88.9916 30.3944 88.9605 30.4086 88.9307 30.4209C88.9006 30.4333 88.8718 30.4434 88.8438 30.4521C88.7877 30.4696 88.7347 30.48 88.6807 30.4863C88.5729 30.4989 88.4614 30.4948 88.3145 30.4912C88.2133 30.489 88.1121 30.4867 88.0078 30.4844C87.8983 30.4814 87.7887 30.4777 87.6758 30.4746C87.5638 30.472 87.4513 30.4695 87.3359 30.4668C86.9772 30.4583 86.6184 30.4497 86.2598 30.4404C86.0169 30.4346 85.7741 30.4286 85.5312 30.4229C84.935 30.4086 84.3384 30.3934 83.7422 30.3779C83.776 30.1592 83.8109 29.9402 83.8457 29.7217C83.8648 29.6002 83.8836 29.4787 83.9033 29.3535C83.9418 29.1571 83.9569 29.0896 83.9922 29.0352C84.0634 28.6534 84.1361 28.2715 84.207 27.8896C84.2594 27.6081 84.3115 27.3264 84.3643 27.0449C84.4404 26.6386 84.5164 26.2316 84.5918 25.8252C84.627 25.6384 84.6271 25.6381 84.6631 25.4473C84.7616 24.9135 84.8434 24.383 84.9023 23.8467L84.9531 23.3086C85.0828 23.2435 85.1363 23.217 85.1807 23.2061C85.1826 23.1823 85.1855 23.1573 85.1895 23.1094C85.2356 22.5963 85.3012 22.1 85.4072 21.5957C85.5022 21.0857 85.5423 20.6031 85.4307 20.1328C85.3814 20.001 85.3321 19.8688 85.2822 19.7354C85.2176 19.6287 85.1371 19.5308 85.0361 19.4219C84.8565 19.3002 84.657 19.2106 84.4453 19.1455C84.4031 19.1354 84.3539 19.1242 84.293 19.1104V19.1035C83.6768 18.9504 82.9796 18.9793 82.3867 19.0156C81.4417 19.0664 81.44 19.0654 80.5547 19.3291C80.5529 19.3306 80.5515 19.3325 80.5498 19.334C80.4721 19.5825 80.4728 19.5839 80.4189 19.8926C80.3954 20.0125 80.3719 20.1323 80.3477 20.2559C80.3107 20.4522 80.3101 20.4523 80.2725 20.6523C80.2677 20.6767 80.2625 20.7012 80.2578 20.7256C80.2317 20.9163 80.2022 21.1088 80.1631 21.3057C80.146 21.3951 80.1289 21.485 80.1113 21.5771C80.0571 21.8597 80.0016 22.1424 79.9463 22.4248C79.9091 22.6175 79.872 22.8102 79.835 23.0029C79.804 23.1641 79.7715 23.3252 79.7402 23.4863C79.7154 23.6306 79.691 23.775 79.6631 23.9189L79.5605 24.4131H79.5508C79.5025 24.6659 79.4539 24.9189 79.4062 25.1719C79.3631 25.4012 79.3188 25.6303 79.2744 25.8594C79.2441 26.0192 79.2438 26.0196 79.2129 26.1826C79.195 26.2756 79.1776 26.369 79.1592 26.4648C79.1196 26.7419 79.1144 27.0057 79.1211 27.2852H78.9004C78.8962 27.3818 78.8959 27.3819 78.8916 27.4805C78.8711 27.7915 78.8339 28.0957 78.7871 28.3975C78.7634 28.7532 78.7052 29.1041 78.585 29.4473C78.578 29.478 78.5725 29.5092 78.5654 29.54C78.5448 29.6316 78.5242 29.7231 78.5029 29.8174C78.4525 30.0411 78.4016 30.2647 78.3506 30.4883C77.7045 30.491 77.0582 30.4928 76.4121 30.4941C76.1925 30.4947 75.9726 30.4961 75.7529 30.4971C75.4367 30.4984 75.12 30.4985 74.8037 30.499C74.6576 30.4999 74.6572 30.5001 74.5078 30.501C74.015 30.501 73.5535 30.4786 73.0684 30.3779V29.3838H73.2881C73.2959 29.2862 73.2967 29.2861 73.3047 29.1865C73.3701 28.4522 73.4895 27.7384 73.6318 27.0156C73.6553 26.8944 73.678 26.7724 73.7021 26.6475C73.7791 26.25 73.8569 25.8524 73.9346 25.4551C73.9884 25.1778 74.043 24.9003 74.0967 24.623C74.1791 24.1976 74.261 23.7721 74.3438 23.3467C74.3935 22.9688 74.4646 22.5914 74.5469 22.2031C74.5722 22.0784 74.598 21.9537 74.624 21.8252C74.6925 21.4926 74.7367 21.2814 74.7705 21.1348C74.8327 20.8121 74.896 20.4897 74.958 20.167C74.972 20.0939 74.9865 20.0206 75.001 19.9453C75.0702 19.5847 75.1398 19.2239 75.209 18.8633C75.3236 18.2661 75.4379 17.6685 75.5527 17.0713C75.5863 16.8292 75.6302 16.5885 75.6787 16.3467L75.8193 15.6865C76.1085 15.6069 76.3609 15.5374 76.583 15.4766C76.585 15.4726 76.5879 15.4688 76.5898 15.4648C76.8727 15.3734 77.1469 15.2979 77.4355 15.2305C77.5606 15.2008 77.5609 15.2011 77.6885 15.1709C77.8069 15.1448 77.9242 15.122 78.041 15.1025C78.398 15.0274 78.6628 14.9962 79.1484 14.9404C79.2525 14.9276 79.3567 14.9145 79.4639 14.9014C79.8163 14.8607 80.1688 14.8294 80.5215 14.8037C80.6328 14.7627 80.7526 14.7644 80.958 14.7568C81.0629 14.7525 81.1683 14.7476 81.2764 14.7432C81.3887 14.7398 81.5014 14.7369 81.6172 14.7334C81.7326 14.7294 81.8479 14.7248 81.9668 14.7207C82.4145 14.706 82.8628 14.6948 83.3105 14.6807C83.3408 14.6797 83.3711 14.6787 83.4014 14.6777C84.5868 14.6563 85.8568 14.6526 87.0586 14.8643C87.0673 14.8649 87.0762 14.8665 87.085 14.8672C87.1442 14.8765 87.2011 14.8888 87.2568 14.9014C87.6878 14.9866 88.1089 15.101 88.5127 15.2549C89.2062 15.4921 89.7468 15.4586 90.4414 15.2646ZM27.8408 15.0234H28.7217V15.0352C28.8135 15.0369 28.9053 15.038 28.9971 15.04C29.4281 15.0494 29.859 15.0625 30.29 15.0781C30.7206 15.0938 31.1519 15.1122 31.583 15.1338C31.5467 15.4254 31.5101 15.7171 31.4727 16.0176H31.4365C31.3611 16.4577 31.2806 16.8968 31.2002 17.3359C31.1577 17.711 31.0948 18.0848 31.0195 18.4717C30.9837 18.6604 30.9829 18.661 30.9463 18.8535C30.8959 19.1175 30.8452 19.3817 30.7939 19.6455C30.7153 20.0512 30.639 20.4572 30.5625 20.8633C30.5132 21.1201 30.4636 21.377 30.4141 21.6338C30.3911 21.7557 30.3684 21.8783 30.3447 22.0039C30.3118 22.1711 30.3109 22.1712 30.2773 22.3418C30.2583 22.4406 30.2394 22.5398 30.2197 22.6416C30.2043 22.6925 30.1885 22.7433 30.1729 22.7949C30.0708 23.331 29.9697 23.8673 29.8672 24.4033C29.8403 24.6233 29.8091 24.8451 29.7637 25.0723C29.7466 25.1614 29.7295 25.2509 29.7119 25.3428C29.6578 25.6243 29.6023 25.9063 29.5469 26.1875C29.5097 26.3798 29.4726 26.5724 29.4355 26.7646C29.3453 27.2328 29.2532 27.7011 29.1611 28.1689H29.1455C29.0039 28.9052 28.8631 29.6416 28.7217 30.3779H23.4395L23.6592 29.0527H23.6816C23.7516 28.6697 23.8221 28.2838 23.8936 27.8926C23.9079 27.814 23.9212 27.7351 23.9355 27.6562C23.9895 27.2279 24.0711 26.802 24.1553 26.3682C24.2029 26.1226 24.249 25.8768 24.2949 25.6309C24.3995 25.0796 24.4572 24.7811 24.5 24.6074C24.5477 24.3536 24.594 24.0994 24.6426 23.8457C24.6582 23.7636 24.6743 23.6812 24.6904 23.5967C24.7341 23.3678 24.778 23.1389 24.8223 22.9102C24.8607 22.6346 24.9116 22.3585 24.9717 22.0762C25.0075 21.9027 25.0353 21.7377 25.0547 21.5723C25.0647 21.4574 25.0735 21.326 25.083 21.1436C25.0839 21.0996 25.0863 21.055 25.0859 21.0098C25.0878 20.819 25.0888 20.7313 25.124 20.6387C25.1529 20.5627 25.2069 20.4798 25.3096 20.3252C25.3599 20.023 25.3605 20.0229 25.3789 19.6973C25.3871 19.5875 25.3948 19.4774 25.4033 19.3643C25.4087 19.2805 25.4144 19.1966 25.4199 19.1104H25.6396V18.0059C25.7691 17.9409 25.8228 17.9153 25.8672 17.9043C25.869 17.8773 25.8712 17.8499 25.873 17.8223C26.0433 15.7613 26.0429 15.7608 26.4102 15.0234C26.8874 15.019 27.3645 15.0195 27.8408 15.0234ZM41.6504 14.4297C43.2704 14.4019 44.9704 14.3953 46.4453 15.0391C46.9097 15.2151 47.3516 15.4621 47.7588 15.7969C48.1953 16.3044 48.476 16.8609 48.6211 17.4619C48.7049 17.7806 48.7452 18.1178 48.7432 18.4863C48.7445 18.5049 48.7468 18.5278 48.749 18.5586C48.7472 18.5592 48.745 18.5589 48.7432 18.5596C48.7417 18.6325 48.7392 18.7067 48.7344 18.7822C48.733 18.7945 48.7309 18.8071 48.7295 18.8193C48.7285 18.8346 48.7277 18.8499 48.7266 18.8652C48.7042 19.0402 48.6796 19.2146 48.6533 19.3887C48.6466 19.435 48.6417 19.4819 48.6348 19.5283C48.6133 19.6747 48.6137 19.6749 48.5918 19.8242C48.5578 20.0453 48.5177 20.2657 48.4805 20.4863C48.4597 20.6168 48.4403 20.7475 48.4189 20.8779H48.415C48.2452 21.8396 48.0501 22.7971 47.8545 23.7539C47.8447 23.8237 47.8305 23.8901 47.8125 23.9668C47.7749 24.1506 47.7385 24.3347 47.7012 24.5186C47.5959 25.0379 47.4912 25.5576 47.3867 26.0771C47.2921 26.5475 47.1971 27.0181 47.1016 27.4883C47.097 27.5111 47.0925 27.5339 47.0879 27.5566C47.0629 27.9004 47.0055 28.2393 46.8887 28.5752C46.7731 29.1755 46.6603 29.7761 46.5479 30.3779H41.2656C41.3321 29.9111 41.3816 29.5697 41.4209 29.3086C41.5247 28.592 41.5476 28.4627 41.6406 27.9834C41.6544 27.9119 41.6675 27.8403 41.6816 27.7666C41.711 27.6146 41.7409 27.4625 41.7705 27.3105C41.8176 27.0689 41.8646 26.8267 41.9111 26.585C41.9622 26.3193 42.0131 26.0537 42.0645 25.7881C42.0925 25.5025 42.1345 25.2173 42.1885 24.9238C42.2024 24.8463 42.2162 24.7684 42.2305 24.6885C42.2734 24.4659 42.3159 24.291 42.3877 24.1182C42.4431 23.8317 42.4987 23.5453 42.5537 23.2588C42.5992 23.0227 42.6453 22.7867 42.6914 22.5508C42.7042 22.4971 42.7156 22.4447 42.7275 22.3945C42.7693 21.9629 42.8409 21.5352 42.9287 21.0938C42.9544 20.9519 42.9718 20.8198 42.9824 20.6934C42.9646 20.3839 42.9046 20.022 42.8066 19.4414C42.534 19.1748 42.2047 19.0288 41.8496 18.9492C41.4021 18.8602 40.9166 18.8881 40.4404 18.8877C40.179 18.888 39.9176 18.8895 39.6562 18.8936C39.4541 18.896 39.2586 18.8902 39.0645 18.8779C38.6951 18.9001 38.3311 18.9512 37.9639 19C37.9511 19.0734 37.939 19.147 37.9258 19.2227C37.8961 19.3926 37.865 19.5626 37.835 19.7324C37.7078 20.5215 37.5648 21.3069 37.4141 22.0928H37.4082C37.2443 22.9783 37.0745 23.8626 36.9043 24.7471C36.8684 25.0333 36.8244 25.321 36.7656 25.6172C36.7334 25.7838 36.733 25.7842 36.7002 25.9541C36.655 26.1869 36.6096 26.4198 36.5635 26.6523C36.4928 27.01 36.424 27.3685 36.3555 27.7266C36.3112 27.9533 36.2662 28.1806 36.2217 28.4072C36.2012 28.5145 36.1813 28.6219 36.1602 28.7324C36.1403 28.8309 36.12 28.9297 36.0996 29.0312C36.074 29.1615 36.074 29.1618 36.0479 29.2949C36.0267 29.3607 36.0052 29.4264 35.9834 29.4941C35.9809 29.4954 35.978 29.4959 35.9756 29.4971C35.9558 29.5825 35.9386 29.6686 35.918 29.7539L35.7637 30.3779H30.4814L30.8115 28.3896H30.834C30.9178 27.9199 31.0041 27.4507 31.0908 26.9814C31.1166 26.792 31.1511 26.6026 31.1953 26.4111C31.2288 26.233 31.2306 26.2246 31.2676 26.0273C31.3161 25.7698 31.3647 25.5123 31.4141 25.2549C31.4361 25.138 31.4578 25.0208 31.4805 24.9004C31.4832 24.886 31.485 24.8723 31.4873 24.8604C31.5056 24.491 31.5378 24.1224 31.582 23.75H31.8018C31.8063 23.6894 31.8108 23.6288 31.8154 23.5664C31.855 23.1062 31.919 22.6515 31.9932 22.1982C32.0035 22.1336 32.0139 22.0688 32.0264 22.0039C32.0835 21.669 32.1447 21.3344 32.208 20.999C32.2372 20.8426 32.2658 20.6857 32.2949 20.5293C32.3557 20.204 32.4172 19.8789 32.4785 19.5537C32.5571 19.1366 32.6352 18.7191 32.7129 18.3018C32.7729 17.9799 32.8332 17.6577 32.8936 17.3359C32.9224 17.1821 32.9508 17.0279 32.9795 16.874C33.0194 16.6601 33.0602 16.4463 33.1006 16.2324C33.1235 16.1107 33.1464 15.9887 33.1699 15.8633C33.2169 15.6478 33.229 15.5938 33.2783 15.4873L33.3428 15.3545C33.4063 15.3332 33.4665 15.3173 33.5244 15.3047C33.6325 15.2758 33.7045 15.2605 33.9404 15.2158C34.0407 15.1966 34.1409 15.1768 34.2432 15.1572C34.4263 15.12 34.6093 15.087 34.792 15.0557C34.8919 15.0364 34.9929 15.0179 35.0957 14.998C35.8505 14.8558 36.6019 14.7314 37.3652 14.6953C37.4137 14.6824 37.4738 14.6775 37.5664 14.6699C37.6659 14.6725 37.7656 14.6751 37.8682 14.6777C38.0183 14.6807 38.0187 14.6815 38.1719 14.6846C38.2486 14.6871 38.3253 14.6888 38.4043 14.6914V14.4707C39.2121 14.4565 40.0202 14.447 40.8281 14.4404C41.1021 14.4377 41.3765 14.4345 41.6504 14.4297ZM23.4395 28.0586C23.5119 28.095 23.5845 28.1315 23.6592 28.1689H23.3291V27.8369C23.3654 27.9098 23.402 27.9835 23.4395 28.0586ZM67.5186 18.7871C65.6608 18.8297 64.1321 19.0797 62.6494 20.3604C61.6267 21.5534 61.2063 22.7865 61.2598 24.3691C61.2752 24.5398 61.2937 24.6976 61.3203 24.8457C61.4027 25.1017 61.547 25.353 61.8213 25.8184C61.8231 25.8201 61.8253 25.8224 61.8271 25.8242C61.8846 25.87 61.9414 25.911 61.9961 25.9502C62.2906 26.1601 62.5503 26.2785 62.8447 26.3428C63.0829 26.3947 63.3428 26.4126 63.6611 26.4111C63.8674 26.4106 63.8676 26.4117 64.0781 26.4111C64.2212 26.4102 64.3643 26.4092 64.5117 26.4082C64.6566 26.4077 64.8019 26.4068 64.9512 26.4062C64.994 26.4061 65.0372 26.4054 65.0801 26.4053C65.2507 26.4046 65.4212 26.4042 65.5918 26.4033C65.8317 26.3537 66.0687 26.2902 66.3037 26.2109C66.3352 26.1961 66.3674 26.1821 66.3994 26.167C66.7685 25.8998 66.7896 25.7327 66.8721 25.29C66.897 25.163 66.9215 25.0352 66.9473 24.9043C66.9699 24.7786 66.9923 24.6529 67.0156 24.5234C67.0589 24.3094 67.1026 24.0948 67.1465 23.8809C67.1765 23.7269 67.2069 23.573 67.2363 23.4189H67.3691C67.3927 23.2953 67.4161 23.1716 67.4395 23.0479C67.5102 22.6732 67.5822 22.2983 67.6543 21.9238C67.7231 21.5662 67.7912 21.2083 67.8594 20.8506C67.874 20.7745 67.8828 20.7271 67.8906 20.6865C67.8868 20.1581 67.9308 19.6282 68.1191 19.1348C68.1182 19.0951 68.1176 19.0506 68.1162 19C67.9298 18.9065 67.7293 18.836 67.5186 18.7871ZM53.3359 8.22949C54.1696 7.7066 55.1423 7.49646 56.1299 7.72754C56.1637 7.7295 56.1982 7.73022 56.2324 7.73242V7.75195C56.3453 7.78184 56.4584 7.81666 56.5713 7.8584C56.8043 7.98717 57.015 8.11884 57.2227 8.28516V8.50586H57.4424L57.5918 8.85938C57.6885 9.10754 57.7591 9.34089 57.8037 9.57129C57.8295 9.58425 57.8556 9.59717 57.8818 9.61035V10.3838C57.8686 10.3882 57.8551 10.392 57.8418 10.3965C57.8172 10.6478 57.7624 10.9125 57.6689 11.2041C57.6545 11.2396 57.6363 11.2735 57.6211 11.3086C57.4769 11.6554 57.3116 11.9984 57.0664 12.2656C57.0105 12.3391 56.9537 12.4123 56.8926 12.4824C56.8514 12.4962 56.8099 12.5096 56.7686 12.5234C56.7139 12.5589 56.657 12.5926 56.5957 12.6211C56.5848 12.6247 56.5734 12.6273 56.5625 12.6309V12.8145C56.3703 12.9232 56.1772 13.031 55.9844 13.1387C55.8772 13.1989 55.7696 13.2593 55.6592 13.3213C54.8819 13.7145 53.901 13.7249 53.0654 13.5078C52.9451 13.4579 52.8369 13.4059 52.7373 13.3506C52.671 13.3285 52.6032 13.2971 52.5312 13.251C52.2893 13.0509 52.082 12.8771 51.9404 12.5928C51.8315 12.5199 51.7225 12.4472 51.6104 12.3721V11.9307C51.6052 11.8428 51.6 11.7546 51.5947 11.6641C51.5503 10.5836 51.8003 9.75275 52.4902 8.91309C52.7717 8.62552 53.0514 8.40174 53.3359 8.22949ZM30.5918 7.62988C30.5999 7.63004 30.6081 7.62966 30.6162 7.62988C30.6495 7.63127 30.6826 7.63433 30.7158 7.63672C31.2379 7.66813 31.7568 7.83355 32.2432 8.1748L32.4043 8.32812C32.7671 8.69049 33.0316 9.08035 33.123 9.61035C33.1305 9.90616 33.1086 10.1877 33.0596 10.457C33.0588 10.4613 33.0574 10.4655 33.0566 10.4697C33.0527 10.5046 33.0489 10.5397 33.0449 10.5752C33.0344 10.6577 33.0235 10.7402 33.0127 10.8252C33.0031 10.8085 32.9943 10.7917 32.9854 10.7754C32.8013 11.451 32.4388 12.0509 31.9238 12.6123C31.8597 12.6682 31.7942 12.72 31.7295 12.7705C31.131 13.2434 30.4302 13.577 29.6689 13.5918C29.4 13.6213 29.1203 13.6317 28.8281 13.626C28.2785 13.5776 27.9466 13.4035 27.6016 13.1055C27.5723 13.0827 27.5413 13.0603 27.5107 13.0352C27.4904 13.0142 27.4717 12.9919 27.4521 12.9707C27.3889 12.911 27.3243 12.847 27.2568 12.7793C27.2057 12.6975 27.1594 12.6166 27.1162 12.5371C27.0127 12.3747 26.9265 12.2063 26.8633 12.0264C26.8588 12.0308 26.8552 12.0364 26.8506 12.041C26.8463 12.0066 26.842 11.9729 26.8379 11.9404C26.7768 11.7433 26.7373 11.5349 26.7256 11.3105C26.7296 11.2296 26.7356 11.1495 26.7441 11.0703C26.7299 10.7892 26.7651 10.67 26.8506 10.3838L26.9307 10.1807C26.9675 10.0926 27.0065 10.0072 27.0469 9.92383C27.2557 9.44473 27.5608 9.0081 27.9512 8.61621C28.0296 8.55544 28.109 8.49589 28.1904 8.43945C28.2857 8.37176 28.3814 8.30813 28.4775 8.24805C28.6233 8.1452 28.7776 8.04685 28.9414 7.95312C29.373 7.77118 29.8253 7.66069 30.2754 7.63477C30.3784 7.62689 30.4838 7.62208 30.5918 7.62207V7.62988Z" fill="#B5BABF"/>
<path d="M16.2715 7.13379C16.8577 7.12842 17.4306 7.13746 17.9883 7.18066H18.5977C18.6121 7.20966 18.622 7.23129 18.6309 7.24902C18.9472 7.29112 19.2583 7.34602 19.5635 7.41992C20.0257 7.48283 20.471 7.63582 20.9082 7.84277C20.9115 7.85276 20.9147 7.86306 20.918 7.87305C21.2117 8.01965 21.4944 8.19511 21.7686 8.3916C21.9788 8.537 22.1858 8.69727 22.3877 8.87695C22.4424 8.92132 22.4974 8.96608 22.5537 9.01172C23.5097 9.86765 24.036 11.0239 24.3066 12.2451C24.4303 12.7681 24.5028 13.3093 24.5293 13.8623C24.5298 13.8697 24.5308 13.8774 24.5312 13.8848C24.5316 13.8935 24.531 13.9024 24.5312 13.9111C24.5345 13.9871 24.5384 14.0633 24.54 14.1396C24.538 14.2995 24.5286 14.4586 24.5166 14.6172C24.5117 14.6874 24.504 14.7573 24.4971 14.8271C24.4913 14.8825 24.4864 14.938 24.4795 14.9932C24.4336 15.3701 24.3584 15.7411 24.2578 16.1055C24.2535 16.1211 24.2495 16.1368 24.2451 16.1523C24.2191 16.2443 24.1913 16.3357 24.1621 16.4268C24.1488 16.4688 24.1361 16.5109 24.1221 16.5527C24.1048 16.6037 24.0866 16.6544 24.0684 16.7051C23.7447 17.6147 23.267 18.4701 22.6738 19.2363C22.5566 19.3907 22.4366 19.5428 22.3115 19.6904C22.2617 19.7436 22.2095 19.7951 22.1582 19.8477C22.1254 19.8835 22.0939 19.9207 22.0605 19.9561C22.0204 19.9943 21.9778 20.0293 21.9375 20.0664C21.5403 20.45 21.1049 20.8066 20.6367 21.1016C20.5411 21.1962 20.4228 21.2732 20.2549 21.3545C20.179 21.3928 20.1026 21.4312 20.0244 21.4707C19.9553 21.4931 19.908 21.5069 19.8652 21.5137C19.8458 21.5221 19.8271 21.5328 19.8076 21.541C19.7942 21.5365 19.781 21.5318 19.7676 21.5273C19.5746 21.6169 19.3786 21.6966 19.1807 21.7715C19.1696 21.8048 19.1587 21.8383 19.1475 21.8721C18.6733 22.1016 18.1914 22.1884 17.6914 22.208C17.4215 22.2666 17.1469 22.3166 16.8672 22.3604C16.8567 22.3814 16.8466 22.4034 16.8359 22.4248C16.5203 22.4627 16.5201 22.4622 16.1279 22.4795C16.0659 22.4788 16.011 22.4796 15.9619 22.4795C15.8392 22.4929 15.7155 22.5049 15.5908 22.5166C15.527 22.5379 15.4661 22.5713 15.3877 22.6211C15.2966 23.0552 15.2056 23.4897 15.1133 23.9297C15.075 24.1605 15.0268 24.3927 14.9658 24.6338H14.7461L14.6836 24.3848C14.6431 24.3667 14.6022 24.3486 14.5605 24.3301C14.0285 24.0414 13.688 23.6659 13.3154 23.1973C13.2634 23.1403 13.2104 23.0841 13.1582 23.0273C13.0994 22.9844 13.0412 22.9395 12.9844 22.8916V23.0869H12.7646V22.7559C12.8447 22.796 12.8662 22.8061 12.916 22.8311C12.5717 22.5253 12.2657 22.1379 11.9961 21.7451C11.4027 21.0603 11.3673 20.8925 11.2246 20.2148C11.5493 19.3524 12.2113 18.5362 12.9756 17.8955C13.0811 17.8022 13.1854 17.7137 13.2842 17.6309C13.562 17.4346 13.8511 17.2432 14.1543 17.0918C14.205 17.0645 14.2551 17.0371 14.3057 17.0117C14.6664 16.8544 15.0324 16.7096 15.4062 16.5889V16.5693C15.5978 16.5117 15.7005 16.4817 15.7803 16.4775C15.8023 16.4715 15.8246 16.4648 15.8467 16.459C15.9192 16.4954 15.9917 16.5318 16.0664 16.5693C15.9938 17.1161 15.9215 17.6633 15.8467 18.2266C16.0674 18.1896 16.2717 18.1344 16.4648 18.0664C16.6173 17.9836 16.718 17.9375 16.8096 17.9209C17.0957 17.7689 17.3602 17.6066 17.6133 17.4248C17.898 17.2072 18.1736 16.9595 18.46 16.6904C18.6543 16.5086 18.85 16.3402 19.0586 16.1758C19.3947 15.8833 19.6742 15.5686 19.96 15.2275C20.1042 15.0621 20.1324 15.0314 20.2842 14.9004C20.2946 14.8909 20.3054 14.8811 20.3164 14.8711C20.3773 14.8158 20.4248 14.7712 20.4629 14.7334C20.6069 14.5798 20.6072 14.5531 20.5986 14.2637C20.4956 13.9917 20.3772 13.8307 20.21 13.6777C20.1225 13.5976 20.0227 13.5198 19.9053 13.4316C19.8014 13.3438 19.7494 13.3 19.6982 13.2461L19.4961 13.001C19.1398 12.5561 18.7261 12.1732 18.3145 11.7803C18.252 11.7191 18.1893 11.6577 18.125 11.5947C18.0679 11.5398 18.01 11.4843 17.9512 11.4277C17.908 11.3719 17.8797 11.3356 17.8613 11.2979C17.6671 11.104 17.4738 10.9093 17.2793 10.7158C17.2136 10.7073 17.1476 10.7074 17.0234 10.7119C16.9256 10.7856 16.8271 10.8599 16.7266 10.9355C16.6855 10.8118 16.6457 10.6904 16.6094 10.5684C16.6052 10.6092 16.601 10.6505 16.5967 10.6924C16.489 11.7116 16.4887 11.7119 16.3965 12.041C16.3172 12.0808 16.2384 12.108 16.1602 12.1299C15.9837 12.2194 15.7716 12.1972 15.5625 12.2168C15.0689 12.2638 14.6028 12.3321 14.1631 12.4463C14.0828 12.4672 14.0033 12.4895 13.9248 12.5137C13.7484 12.5678 13.5767 12.631 13.4092 12.7041C13.3855 12.7144 13.3614 12.7236 13.3379 12.7344C13.1477 12.8214 12.9639 12.9235 12.7852 13.041C12.547 13.1976 12.3185 13.3829 12.1006 13.6045C12.037 13.6692 11.974 13.7367 11.9121 13.8076C11.4231 14.4765 11.212 15.2226 11.0039 16.0176H10.9717C10.8998 16.3103 10.8391 16.6071 10.7832 16.9033C10.7638 17.3497 10.7034 17.7897 10.5635 18.2266C10.5558 18.2304 10.5477 18.2335 10.54 18.2373C10.5256 18.315 10.514 18.3933 10.499 18.4697C10.4517 18.708 10.4048 18.9463 10.3574 19.1846C10.3385 19.2796 10.3196 19.3747 10.3008 19.4697C10.2644 19.7859 10.2088 20.1007 10.1377 20.4287C10.109 20.5715 10.1084 20.5721 10.0791 20.7178C10.06 20.808 10.0412 20.8983 10.0215 20.9912C10.0042 21.0729 9.98656 21.1551 9.96875 21.2393C9.95362 21.2835 9.94136 21.3172 9.92969 21.3447C9.84875 21.7541 9.76786 22.164 9.68652 22.5732C9.68013 22.6052 9.67326 22.6367 9.66699 22.668C9.64113 22.9609 9.58823 23.2498 9.49512 23.5371C9.39617 24.0319 9.31617 24.4384 9.24512 24.7979C9.23287 25.0119 9.20188 25.1385 9.13281 25.4072H9.12598C9.03097 25.8952 8.94805 26.3317 8.84863 26.8672C8.82445 27.0414 8.79633 27.2172 8.76172 27.3955C8.74786 27.4696 8.73401 27.5438 8.71973 27.6201C8.70558 27.6892 8.68858 27.7576 8.67188 27.8262C8.59886 28.2246 8.51253 28.6835 8.41211 29.2334C8.39375 29.3374 8.37536 29.4417 8.35645 29.5488C8.33423 29.6788 8.33419 29.6789 8.31152 29.8115C8.27877 29.9443 8.26278 30.0015 8.2168 30.1064C8.19492 30.1963 8.1713 30.2869 8.14355 30.3779C8.10231 30.4193 8.07469 30.4423 8.04688 30.459C8.04218 30.4684 8.03811 30.4784 8.0332 30.4883C8.00823 30.4878 7.9835 30.4868 7.95898 30.4863C7.92353 30.4906 7.87745 30.4944 7.81152 30.4971C7.71402 30.4949 7.61608 30.4935 7.51562 30.4912C7.40554 30.489 7.29506 30.4867 7.18164 30.4844C7.06207 30.4814 6.94252 30.4777 6.81934 30.4746C6.69737 30.472 6.57488 30.4695 6.44922 30.4668C6.05795 30.4583 5.66664 30.4497 5.27539 30.4404C5.01083 30.4346 4.74601 30.4286 4.48145 30.4229C3.83136 30.4086 3.18131 30.3933 2.53125 30.3779C2.64019 29.7582 2.74909 29.1385 2.86133 28.5H2.8916C3.40076 25.8428 3.91458 23.1868 4.4375 20.5322C4.51621 20.1327 4.59345 19.7326 4.67188 19.333C4.69866 19.0993 4.73374 18.8642 4.78223 18.6221C4.80768 18.4898 4.80701 18.4895 4.83301 18.3545C4.88883 18.0656 4.94587 17.7769 5.00293 17.4883C5.0422 17.2868 5.08195 17.0853 5.12109 16.8838C5.20298 16.4631 5.28529 16.0425 5.36816 15.6221C5.47459 15.082 5.57964 14.5413 5.68457 14.001C5.7653 13.5856 5.84739 13.1701 5.92871 12.7549C5.96773 12.5555 6.00611 12.3557 6.04492 12.1562C6.09902 11.8788 6.15416 11.6015 6.20898 11.3242C6.22503 11.2414 6.24031 11.1585 6.25684 11.0732C6.31579 10.7774 6.34406 10.6358 6.375 10.5508C6.59348 9.42658 6.81854 8.30368 7.04297 7.18066C8.51907 7.17038 9.99555 7.16201 11.4717 7.15723C12.1572 7.15493 12.8429 7.15152 13.5283 7.14648C14.1911 7.14165 14.8538 7.13981 15.5166 7.13867C15.7682 7.13786 16.0199 7.13619 16.2715 7.13379ZM12.3242 22.4248H12.1045V22.2031C12.1771 22.276 12.2494 22.3497 12.3242 22.4248ZM11.4443 21.0986C11.3718 21.0622 11.2993 21.0258 11.2246 20.9883C11.2609 20.9518 11.2976 20.9155 11.335 20.8779C11.3712 20.9507 11.407 21.0237 11.4443 21.0986ZM13.6445 7.06934H13.0947V6.95898H13.6445V7.06934Z" fill="#909498"/>
</svg>
